<?xml version="1.0" standalone="no"?>
<!DOCTYPE svg PUBLIC "-//W3C//DTD SVG 1.1//EN" "http://www.w3.org/Graphics/SVG/1.1/DTD/svg11.dtd" >
<svg xmlns="http://www.w3.org/2000/svg" xmlns:xlink="http://www.w3.org/1999/xlink" version="1.1">
<metadata>
Created by FontForge 20170731 at Sat Jun  9 21:21:37 2012
 By Aleksey,,,
Copyright (c) 2010, 2012, Khaled Hosny &#60;khaledhosny@eglug.org&#62;.
Portions copyright (c) 2010, Sebastian Kosch &#60;sebastian@aldusleaf.org&#62;

This Font Software is licensed under the Open Font License, Version 1.1.
</metadata>
<defs>
<font id="Amiri-Bold" horiz-adv-x="449" >
  <font-face 
    font-family="Amiri"
    font-weight="700"
    font-stretch="normal"
    units-per-em="2048"
    panose-1="0 0 5 0 0 0 0 0 0 0"
    ascent="1638"
    descent="-410"
    x-height="872"
    cap-height="1324"
    bbox="-914.391 -1728 23523.4 3729.33"
    underline-thickness="102"
    underline-position="-1304"
    unicode-range="U+0020-FEFC"
  />
<missing-glyph horiz-adv-x="748" 
d="M68 0v1365h544v-1365h-544zM136 68h408v1229h-408v-1229z" />
    <glyph glyph-name="uni08F0" unicode="&#x64e;&#x64e;" horiz-adv-x="0" 
d="M681 2085q38 26 60 19t8 -53l-21 -64q-13 -37 -40 -54l-358 -220q-23 -13 -44 -9t-15 43l6 39q7 35 41 58zM843 2390q34 20 51 16q27 -8 15 -50l-14 -52q-12 -39 -49 -62l-363 -211q-42 -23 -63 -14t-2 53l18 39q17 34 38 48z" />
    <glyph glyph-name="uni08F1" unicode="&#x64f;&#x64f;" horiz-adv-x="0" 
d="M740 2301q39 10 64 -23q20 -29 22 -78q1 -48 -37 -141q30 -18 44 -26q23 -14 8 -46l-25 -51q-16 -30 -89 11q-113 -145 -206 -196q-50 -26 -68 -2q-16 27 42 69q94 68 171 166q-120 65 -74 167q58 124 148 150zM720 2149q-12 18 -39 6q-17 -8 -23 -14q18 -20 66 -47
q7 35 -4 55zM405 2296q39 10 64 -23q20 -29 22 -78q1 -48 -37 -141q30 -18 44 -26q23 -14 8 -46l-25 -51q-16 -30 -89 11q-113 -145 -206 -196q-50 -26 -68 -2q-16 27 42 69q94 68 171 166q-120 65 -74 167q58 124 148 150zM385 2144q-12 18 -39 6q-17 -8 -23 -14
q18 -20 66 -47q7 35 -4 55z" />
    <glyph glyph-name="uni08F2" unicode="&#x650;&#x650;" horiz-adv-x="0" 
d="M681 -932q38 26 60 19t8 -53l-21 -64q-13 -37 -40 -54l-358 -220q-23 -13 -44 -9t-15 43l6 39q7 35 41 58zM843 -627q34 20 51 16q27 -8 15 -50l-14 -52q-12 -39 -49 -62l-363 -211q-42 -23 -63 -14t-2 53l18 39q17 34 38 48z" />
    <glyph glyph-name="f_f" unicode="ff" horiz-adv-x="1340" 
d="M828 856v30q0 74 26 152q-45 2 -98 92q-23 40 -32 50q-63 73 -122.5 59.5t-94.5 -80.5q-67 -128 -55 -303h376zM946 1206q67 85 149.5 137.5t143.5 52.5t131 -20q78 -41 78 -93.5t-27.5 -94.5t-74.5 -42q-40 0 -62.5 17.5t-42 35t-27.5 23.5q-37 30 -80 30
q-24 0 -42 -47.5t-18 -136t8 -212.5h234q12 0 12 -19.5t-15 -41.5t-31 -33h-194v-472q0 -148 16 -188q10 -27 128 -36q7 -11 6.5 -38t-6.5 -36q-136 14 -274 14t-274 -14q-6 9 -6.5 36t6.5 38q118 9 128 36q16 40 16 188v472h-370v-472q0 -148 16 -188q10 -27 128 -36
q7 -11 6.5 -38t-6.5 -36q-136 14 -274 14t-274 -14q-6 9 -6.5 36t6.5 38q118 9 128 36q16 40 16 188v472h-142q-10 4 -10 26q26 36 64 68h88q3 307 192 420q95 56 212.5 63t212.5 -26.5t131 -106.5z" />
    <glyph glyph-name="f_i" unicode="fi" horiz-adv-x="1256" 
d="M1110 858q-22 -66 -22 -240v-328q0 -148 16 -188q11 -28 114 -36q7 -11 6.5 -38t-6.5 -36q-136 14 -267 14t-267 -14q-6 9 -6.5 36t6.5 38q118 9 128 36q16 40 16 188v230q0 130 -16 160q-27 52 -160 52h-194v-442q0 -148 16 -188q10 -27 128 -36q7 -11 6.5 -38t-6.5 -36
q-136 14 -274 14t-274 -14q-6 9 -6.5 36t6.5 38q118 9 128 36q16 40 16 188v442h-142q-10 4 -10 26q26 36 64 68q68 0 88 6q3 418 282 532q83 34 166 34t147 -12t123 -37t97.5 -69.5t44 -100.5t-23.5 -99q-36 -53 -111 -38q-69 14 -101 88q-5 13 -7 17.5t-6 17.5
q-23 75 -59 104t-118 29q-49 0 -87.5 -53.5t-58.5 -130.5q-43 -165 -34 -288h234q117 0 224.5 18.5t165.5 47.5q10 -3 22 -16t12 -18z" />
    <glyph glyph-name="f_l" unicode="fl" horiz-adv-x="1262" 
d="M1086 1152q-27 -530 0 -862q0 -148 16 -188q10 -27 128 -36q7 -11 6.5 -38t-6.5 -36q-136 14 -274 14t-274 -14q-6 9 -6.5 36t6.5 38q118 9 128 36q16 40 16 188v606q0 188 -24 254.5t-74.5 100.5t-119 28.5t-101.5 -54.5q-63 -93 -55 -369h234q12 0 12 -19.5t-15 -41.5
t-31 -33h-194v-472q0 -148 16 -188q10 -27 128 -36q7 -11 6.5 -38t-6.5 -36q-136 14 -274 14t-274 -14q-6 9 -6.5 36t6.5 38q118 9 128 36q16 40 16 188v472h-142q-10 4 -10 26q26 36 64 68h88v30q0 205 116.5 348t285.5 148q53 1 119 -25.5t107 -30.5q168 3 252 64
q8 -1 18 -13.5t12 -20.5q-22 -124 -22 -204z" />
    <glyph glyph-name="f_f_i" unicode="ffi" horiz-adv-x="1888" 
d="M1742 858q-22 -66 -22 -240v-328q0 -148 16 -188q11 -28 114 -36q7 -11 6.5 -38t-6.5 -36q-136 14 -267 14t-267 -14q-6 9 -6.5 36t6.5 38q118 9 128 36q16 40 16 188v230q0 130 -16 160q-27 52 -160 52h-194v-442q0 -148 16 -188q10 -27 128 -36q7 -11 6.5 -38t-6.5 -36
q-136 14 -274 14t-274 -14q-6 9 -6.5 36t6.5 38q118 9 128 36q16 40 16 247t-2 387h-370v-446q0 -148 16 -188q10 -27 128 -36q7 -11 6.5 -38t-6.5 -36q-136 14 -274 14t-274 -14q-6 9 -6.5 36t6.5 38q118 9 128 36q16 40 16 188v446h-142q-10 4 -10 26q26 36 64 68h88
q3 310 192 437q96 65 209 71t204 -22.5t133 -91.5q124 174 358 174q138 0 254 -49q59 -25 97.5 -69.5t44 -100.5t-23.5 -99q-36 -53 -111 -38q-69 14 -101 88q-5 13 -7 17.5t-6 17.5q-23 75 -59 104t-118 29q-49 0 -87.5 -53.5t-58.5 -130.5q-43 -165 -34 -288h234
q117 0 224.5 18.5t165.5 47.5q10 -3 22 -16t12 -18zM854 1038q-44 2 -98 92q-25 41 -32 50q-63 73 -132 58q-50 -12 -85 -86q-67 -140 -55 -322h376q0 107 26 208z" />
    <glyph glyph-name="f_f_l" unicode="ffl" horiz-adv-x="1892" 
d="M828 856v30q0 72 20 152q-42 7 -94 94q-22 38 -30 48q-63 73 -122.5 59.5t-94.5 -80.5q-67 -128 -55 -303h376zM1716 1152q-27 -530 0 -862q0 -148 16 -188q10 -27 128 -36q7 -11 6.5 -38t-6.5 -36q-136 14 -274 14t-274 -14q-6 9 -6.5 36t6.5 38q118 9 128 36
q16 40 16 188v606q0 188 -24 254.5t-74.5 100.5t-119 28.5t-101.5 -54.5q-63 -93 -55 -369h234q12 0 12 -19.5t-15 -41.5t-31 -33h-194v-472q0 -148 16 -188q10 -27 128 -36q7 -11 6.5 -38t-6.5 -36q-136 14 -274 14t-274 -14q-6 9 -6.5 36t6.5 38q118 9 128 36
q16 40 16 188v472h-370v-472q0 -148 16 -188q10 -27 128 -36q7 -11 6.5 -38t-6.5 -36q-136 14 -274 14t-274 -14q-6 9 -6.5 36t6.5 38q118 9 128 36q16 40 16 188v472h-142q-10 4 -10 26q26 36 64 68h88q3 307 192 420q95 56 209.5 62t205 -22t131.5 -92q114 152 294 158
q53 1 119 -25.5t107 -30.5q168 3 252 64q8 -1 18 -13.5t12 -20.5q-22 -124 -22 -204z" />
    <glyph glyph-name="uni0640.2" unicode="&#x640;&#x640;" horiz-adv-x="700" 
d="M703 -30q-353 -16 -705 0q-39 3 -53 53l-26 89q-19 81 49 99q16 4 200.5 -2t367 0t197.5 3q68 -18 48 -100l-26 -89q-15 -50 -52 -53z" />
    <glyph glyph-name="uni0640.3" unicode="&#x640;&#x640;&#x640;" horiz-adv-x="1500" 
d="M1502 -30q-327 -26 -758.5 -26t-745.5 26q-39 3 -53 53l-26 89q-12 51 11 79q24 27 72 24q312 -26 741.5 -26t754.5 26q87 4 87 -74q-1 -15 -4 -29l-26 -89q-15 -50 -53 -53z" />
    <glyph glyph-name="uni0640.4" unicode="&#x640;&#x640;&#x640;&#x640;" horiz-adv-x="2500" 
d="M2498 215q58 3 75 -29.5t8 -72.5l-26 -90q-15 -49 -56 -53q-1281 -121 -2500 0q-41 5 -54 53l-26 89q-5 20 -5 36q2 52 52 65q18 4 37 2q1220 -119 2495 0z" />
    <glyph glyph-name="f_b" unicode="fb" horiz-adv-x="1774" 
d="M826 1326q168 3 252 64q8 -1 18 -13.5t12 -20.5q-22 -124 -22 -204v-332q0 -18 4 -18t24.5 16t79 48t102.5 32q175 0 295.5 -121.5t120.5 -304.5q0 -268 -235 -408q-135 -80 -301 -80q-58 0 -145 23t-117.5 23t-63.5 -14q-6 0 -27 20.5t-21 29.5q24 62 24 238v592
q0 188 -24 254.5t-74.5 100.5t-119 28.5t-101.5 -54.5q-63 -93 -55 -369h234q12 0 12 -19.5t-15 -41.5t-31 -33h-194v-472q0 -148 16 -188q10 -27 128 -36q7 -11 6.5 -38t-6.5 -36q-136 14 -274 14t-274 -14q-6 9 -6.5 36t6.5 38q118 9 128 36q16 40 16 188v472h-142
q-10 4 -10 26q26 36 64 68h88v30q0 205 116.5 348t285.5 148q53 1 119 -25.5t107 -30.5zM1196 750q-64 0 -104 -44q-6 -6 -6 -18v-492q0 -53 35.5 -88.5t96.5 -35.5t110 50q96 98 96 280t-62.5 265t-165.5 83z" />
    <glyph glyph-name="f_f_b" unicode="ffb" horiz-adv-x="2404" 
d="M828 856v30q0 72 20 152q-42 7 -94 94q-22 38 -30 48q-63 73 -122.5 59.5t-94.5 -80.5q-67 -128 -55 -303h376zM1826 750q-64 0 -104 -44q-6 -6 -6 -18v-492q0 -53 35.5 -88.5t96.5 -35.5t110 50q96 98 96 280t-62.5 265t-165.5 83zM1716 1152v-339q0 -11 4 -11t24.5 16
t79 48t102.5 32q175 0 295.5 -121.5t120.5 -304.5q0 -268 -235 -408q-135 -80 -301 -80q-58 0 -145 23t-117.5 23t-63.5 -14q-6 0 -27 20.5t-21 29.5q24 62 24 238v592q0 188 -24 254.5t-74.5 100.5t-119 28.5t-101.5 -54.5q-63 -93 -55 -369h234q12 0 12 -19.5t-15 -41.5
t-31 -33h-194v-472q0 -148 16 -188q10 -27 128 -36q7 -11 6.5 -38t-6.5 -36q-136 14 -274 14t-274 -14q-6 9 -6.5 36t6.5 38q118 9 128 36q16 40 16 188v472h-370v-472q0 -148 16 -188q10 -27 128 -36q7 -11 6.5 -38t-6.5 -36q-136 14 -274 14t-274 -14q-6 9 -6.5 36t6.5 38
q118 9 128 36q16 40 16 188v472h-142q-10 4 -10 26q26 36 64 68h88q3 307 192 420q95 56 209.5 62t205 -22t131.5 -92q114 152 294 158q53 1 119 -25.5t107 -30.5q168 3 252 64q8 -1 18 -13.5t12 -20.5q-22 -124 -22 -204z" />
    <glyph glyph-name="f_k" unicode="fk" horiz-adv-x="1830" 
d="M826 1326q168 3 252 64q8 -1 18 -13.5t12 -20.5q-22 -124 -22 -204l-2 -680q53 19 153 104.5t136.5 126t36.5 63.5q0 16 -46 29t-82 15q-5 13 -4 39t8 29q178 -8 262 -8l222 10q9 -15 6 -40t-12 -30q-126 -12 -198 -62q-28 -20 -122.5 -107t-141.5 -129q82 -96 166 -187
t120.5 -132t70.5 -67.5t65 -37.5q45 -16 100 -16q13 -38 0 -60q-67 -24 -177 -24q-198 0 -299 118q-138 148 -189 212q-55 68 -73 84v-112q0 -148 16 -188q10 -27 128 -36q7 -11 6.5 -38t-6.5 -36q-136 14 -274 14t-274 -14q-6 9 -6.5 36t6.5 38q118 9 128 36q16 40 16 188
v606q0 188 -24 254.5t-74.5 100.5t-119 28.5t-101.5 -54.5q-63 -93 -55 -369h234q12 0 12 -19.5t-15 -41.5t-31 -33h-194v-472q0 -148 16 -188q10 -27 128 -36q7 -11 6.5 -38t-6.5 -36q-136 14 -274 14t-274 -14q-6 9 -6.5 36t6.5 38q118 9 128 36q16 40 16 188v472h-142
q-10 4 -10 26q26 36 64 68h88v30q0 205 116.5 348t285.5 148q53 1 119 -25.5t107 -30.5z" />
    <glyph glyph-name="f_f_k" unicode="ffk" horiz-adv-x="2460" 
d="M2178 870l222 10q9 -15 6 -40t-12 -30q-126 -12 -198 -62q-28 -20 -122.5 -107t-141.5 -129q82 -96 166 -187t120.5 -132t70.5 -67.5t65 -37.5q45 -16 100 -16q13 -38 0 -60q-67 -24 -177 -24q-198 0 -299 118q-138 148 -189 212q-55 68 -73 84v-112q0 -148 16 -188
q10 -27 128 -36q7 -11 6.5 -38t-6.5 -36q-136 14 -274 14t-274 -14q-6 9 -6.5 36t6.5 38q118 9 128 36q16 40 16 188v606q0 188 -24 254.5t-74.5 100.5t-119 28.5t-101.5 -54.5q-63 -93 -55 -369h234q12 0 12 -19.5t-15 -41.5t-31 -33h-194v-472q0 -148 16 -188
q10 -27 128 -36q7 -11 6.5 -38t-6.5 -36q-136 14 -274 14t-274 -14q-6 9 -6.5 36t6.5 38q118 9 128 36q16 40 16 188v472h-370v-472q0 -148 16 -188q10 -27 128 -36q7 -11 6.5 -38t-6.5 -36q-136 14 -274 14t-274 -14q-6 9 -6.5 36t6.5 38q118 9 128 36q16 40 16 188v472
h-142q-10 4 -10 26q26 36 64 68h88q3 307 192 420q95 56 209.5 62t205 -22t131.5 -92q114 152 294 158q53 1 119 -25.5t107 -30.5q168 3 252 64q8 -1 18 -13.5t12 -20.5q-22 -124 -22 -204l-2 -680q53 19 153 104.5t136.5 126t36.5 63.5q0 16 -46 29t-82 15q-5 13 -4 39
t8 29q178 -8 262 -8zM848 1038q-42 7 -94 94q-22 38 -30 48q-63 73 -122.5 59.5t-94.5 -80.5q-67 -128 -55 -303h376v30q0 72 20 152z" />
    <glyph glyph-name="f_h" unicode="fh" horiz-adv-x="1816" 
d="M826 1326q168 3 252 64q8 -1 18 -13.5t12 -20.5q-22 -126 -22 -206v-406q0 -10 2 -12q4 0 14 10q46 53 131.5 101.5t152 48.5t114.5 -19.5t78.5 -55t47.5 -95.5q30 -106 30 -302v-130q0 -148 16 -188q10 -27 128 -36q7 -11 6.5 -38t-6.5 -36q-136 14 -262 14t-262 -14
q-6 9 -6.5 36t6.5 38q93 7 106.5 41.5t13.5 182.5v158q0 282 -134 282q-57 0 -116.5 -40t-59.5 -72v-328q0 -148 16 -188q11 -28 114 -36q7 -11 6.5 -38t-6.5 -36q-136 14 -267 14t-267 -14q-6 9 -6.5 36t6.5 38q118 9 128 36q16 40 16 188v606q0 188 -24 254.5t-74.5 100.5
t-119 28.5t-101.5 -54.5q-63 -93 -55 -369h234q12 0 12 -19.5t-15 -41.5t-31 -33h-194v-472q0 -148 16 -188q10 -27 128 -36q7 -11 6.5 -38t-6.5 -36q-136 14 -274 14t-274 -14q-6 9 -6.5 36t6.5 38q118 9 128 36q16 40 16 188v472h-142q-10 4 -10 26q26 36 64 68h88v30
q0 205 116.5 348t285.5 148q53 1 119 -25.5t107 -30.5z" />
    <glyph glyph-name="f_f_h" unicode="ffh" horiz-adv-x="2446" 
d="M1456 1326q168 3 252 64q8 -1 18 -13.5t12 -20.5q-22 -126 -22 -206v-406q0 -10 2 -12q4 0 14 10q46 53 131.5 101.5t152 48.5t114.5 -19.5t78.5 -55t47.5 -95.5q30 -106 30 -302v-130q0 -148 16 -188q10 -27 128 -36q7 -11 6.5 -38t-6.5 -36q-136 14 -262 14t-262 -14
q-6 9 -6.5 36t6.5 38q93 7 106.5 41.5t13.5 182.5v158q0 282 -134 282q-57 0 -116.5 -40t-59.5 -72v-328q0 -148 16 -188q11 -28 114 -36q7 -11 6.5 -38t-6.5 -36q-136 14 -267 14t-267 -14q-6 9 -6.5 36t6.5 38q118 9 128 36q16 40 16 188v606q0 188 -24 254.5t-74.5 100.5
t-119 28.5t-101.5 -54.5q-63 -93 -55 -369h234q12 0 12 -19.5t-15 -41.5t-31 -33h-194v-472q0 -148 16 -188q10 -27 128 -36q7 -11 6.5 -38t-6.5 -36q-136 14 -274 14t-274 -14q-6 9 -6.5 36t6.5 38q118 9 128 36q16 40 16 188v472h-370v-472q0 -148 16 -188q10 -27 128 -36
q7 -11 6.5 -38t-6.5 -36q-136 14 -274 14t-274 -14q-6 9 -6.5 36t6.5 38q118 9 128 36q16 40 16 188v472h-142q-10 4 -10 26q26 36 64 68h88q3 307 192 420q95 56 209.5 62t205 -22t131.5 -92q114 152 294 158q53 1 119 -25.5t107 -30.5zM848 1038q-42 7 -94 94
q-22 38 -30 48q-63 73 -122.5 59.5t-94.5 -80.5q-67 -128 -55 -303h376v30q0 72 20 152z" />
    <glyph glyph-name="f_j" unicode="fj" horiz-adv-x="1222" 
d="M1110 858q-22 -66 -22 -240v-378q0 -304 -96 -444q-65 -95 -173 -163.5t-165 -68.5q-28 16 -28 31t2 17q31 15 69 60t63.5 97t46.5 147.5t21 211.5v392q0 131 -17 161q-29 51 -159 51h-194v-442q0 -148 16 -188q10 -27 128 -36q7 -11 6.5 -38t-6.5 -36q-136 14 -274 14
t-274 -14q-6 9 -6.5 36t6.5 38q118 9 128 36q16 40 16 188v442h-142q-10 4 -10 26q26 36 64 68q68 0 88 6q3 418 282 532q83 34 166 34t147 -12t123 -37t97.5 -69.5t44 -100.5t-23.5 -99q-36 -53 -111 -38q-69 14 -101 88q-5 13 -7 17.5t-6 17.5q-23 75 -59 104t-118 29
q-49 0 -87.5 -53.5t-58.5 -130.5q-43 -165 -34 -288h234q117 0 224.5 18.5t165.5 47.5q10 -3 22 -16t12 -18z" />
    <glyph glyph-name="f_f_j" unicode="ffj" horiz-adv-x="1854" 
d="M1742 858q-22 -66 -22 -240v-378q0 -304 -96 -444q-65 -95 -173 -163.5t-165 -68.5q-28 16 -28 31t2 17q31 15 69 60t63.5 97t46.5 147.5t21 211.5v392q0 131 -17 161q-29 51 -159 51h-194v-442q0 -148 16 -188q10 -27 128 -36q7 -11 6.5 -38t-6.5 -36q-136 14 -274 14
t-274 -14q-6 9 -6.5 36t6.5 38q118 9 128 36q16 40 16 247t-2 387h-370v-446q0 -148 16 -188q10 -27 128 -36q7 -11 6.5 -38t-6.5 -36q-136 14 -274 14t-274 -14q-6 9 -6.5 36t6.5 38q118 9 128 36q16 40 16 188v446h-142q-10 4 -10 26q26 36 64 68h88q3 310 192 437
q96 65 209 71t204 -22.5t133 -91.5q124 174 358 174q138 0 254 -49q59 -25 97.5 -69.5t44 -100.5t-23.5 -99q-36 -53 -111 -38q-69 14 -101 88q-5 13 -7 17.5t-6 17.5q-23 75 -59 104t-118 29q-49 0 -87.5 -53.5t-58.5 -130.5q-43 -165 -34 -288h234q117 0 224.5 18.5
t165.5 47.5q10 -3 22 -16t12 -18zM852 1038q-46 4 -97 93q-23 40 -31 49q-63 73 -132 58q-50 -12 -85 -86q-67 -140 -55 -322h376q0 115 24 208z" />
    <glyph glyph-name="T_h" unicode="Th" horiz-adv-x="2224" 
d="M1234 1036q0 90 -44 130q-47 43 -93 50q-66 10 -137 10h-186v-936q0 -148 16 -188q10 -27 128 -36q7 -11 6.5 -38t-6.5 -36q-136 14 -284 14t-284 -14q-6 9 -6.5 36t6.5 38q118 9 128 36q16 40 16 188v936h-186q-75 0 -137 -76t-77 -176q-2 -10 -18 -10q-46 0 -60 14
l54 368q12 6 24 6t34 -10q68 -28 174 -28h664q180 0 435 58l85 20q8 -1 18 -13.5t12 -20.5q-22 -126 -22 -206v-408q0 -10 2 -12q4 0 14 10q46 53 131.5 101.5t152 48.5t114.5 -19.5t78.5 -55t47.5 -95.5q30 -106 30 -302v-130q0 -148 16 -188q10 -27 128 -36q7 -11 6.5 -38
t-6.5 -36q-136 14 -262 14t-262 -14q-6 9 -6.5 36t6.5 38q93 7 106.5 41.5t13.5 182.5v158q0 282 -134 282q-57 0 -116.5 -40t-59.5 -72v-328q0 -148 16 -188q11 -28 114 -36q7 -11 6.5 -38t-6.5 -36q-136 14 -267 14t-267 -14q-6 9 -6.5 36t6.5 38q118 9 128 36
q16 40 16 188v746z" />
    <glyph glyph-name="uniFB50" unicode="&#x671;" horiz-adv-x="446" arabic-form="isolated" 
d="M228 1832q-23 -24 -37 -48q89 -15 180 30q15 72 -43 75q-45 0 -100 -57zM143 1810q67 96 118 140.5t109 46.5q92 -1 110 -79q14 -76 -34 -140q-123 -163 -278 -153q-73 6 -140 50q-16 7 -29 -4l-17 -15q-28 -22 -44 -13q-23 17 -9 48q92 178 177 135q18 -9 37 -16z
M202 1418q42 91 54 -41l49 -500q61 -675 -29 -847q-20 -38 -39 -31t-17 99q3 158 -72 712l-44 341q-6 44 13 84z" />
    <glyph glyph-name="uniFB51" unicode="&#x671;" horiz-adv-x="570" arabic-form="final" 
d="M288 1832q-23 -24 -37 -48q89 -15 180 30q15 72 -43 75q-45 0 -100 -57zM203 1810q67 96 118 140.5t109 46.5q92 -1 110 -79q14 -76 -34 -140q-123 -163 -278 -153q-73 6 -140 50q-16 7 -29 -4l-17 -15q-28 -22 -44 -13q-23 17 -9 48q92 178 177 135q18 -9 37 -16z
M262 1485q40 68 50 -14q43 -380 50.5 -697t12.5 -386q10 -160 194 -172q62 -4 72 -62q4 -23 -5 -76t-22.5 -80t-43.5 -28q-290 0 -308 277q-8 127 -16 432q-8 276 -70 592q-10 51 10 85z" />
    <glyph glyph-name="uniFB52" unicode="&#x67b;" horiz-adv-x="1897" arabic-form="isolated" 
d="M954 -272q12 17 35 10q84 -30 150 -88q17 -17 6 -37l-57 -91q49 -26 91 -62q17 -17 6 -37l-98 -155q-16 -21 -37 -4.5t-148 92.5q-21 13 -7 34l65 97q-37 23 -98 59q-21 13 -7 34zM188 151q-101 125 -33 319q28 78 107 167q29 32 50 11q20 -20 -7 -49q-73 -78 -62 -146
q39 -236 615 -236q488 -1 808 179q-17 75 -91 139q-19 17 -9 48l61 181q19 56 63 -12q104 -161 65 -397q-20 -116 -88 -159q-335 -212 -817 -238q-485 -26 -662 193z" />
    <glyph glyph-name="uniFB53" unicode="&#x67b;" horiz-adv-x="1810" arabic-form="final" 
d="M854 -322q12 17 35 10q84 -30 150 -88q17 -17 6 -37l-57 -91q49 -26 91 -62q17 -17 6 -37l-98 -155q-16 -21 -37 -4.5t-148 92.5q-21 13 -7 34l65 97q-37 23 -98 59q-21 13 -7 34zM229 516q30 40 55 16q21 -21 -2 -54q-66 -93 -50 -155q65 -263 607 -247q385 11 696 138
q54 22 66 86q7 39 41 40q33 0 34 -53q2 -65 136 -72q58 -3 71 -56q5 -20 -1 -81q-12 -108 -72 -108q-92 0 -174 111q-377 -273 -880 -273q-521 -1 -614 264q-48 137 1 268q46 118 86 176z" />
    <glyph glyph-name="uniFB54" unicode="&#x67b;" horiz-adv-x="390" arabic-form="initial" 
d="M124 -222q12 17 35 10q84 -30 150 -88q17 -17 6 -37l-57 -91q49 -26 91 -62q17 -17 6 -37l-98 -155q-16 -21 -37 -4.5t-148 92.5q-21 13 -7 34l65 97q-37 23 -98 59q-21 13 -7 34zM105 436l58 127q31 68 54 27q100 -173 46.5 -396.5t-263.5 -223.5q-42 0 -59.5 68.5
t-16.5 111t44 59.5q15 6 32 6q119 -3 173 47q-11 51 -49 92t-19 82z" />
    <glyph glyph-name="uniFB55" unicode="&#x67b;" horiz-adv-x="500" arabic-form="medial" 
d="M214 -222q12 17 35 10q84 -30 150 -88q17 -17 6 -37l-57 -91q49 -26 91 -62q17 -17 6 -37l-98 -155q-16 -21 -37 -4.5t-148 92.5q-21 13 -7 34l65 97q-37 23 -98 59q-21 13 -7 34zM372 296q61 -77 128 -82q56 -5 66 -42q6 -26 -1.5 -86t-21 -87.5t-43.5 -28.5
q-119 0 -222 130q-126 -130 -278 -130q-44 1 -55 55l-18 83q-7 34 15 69t58 38q243 18 299 120q17 31 39 31q30 0 31.5 -33.5t2.5 -36.5z" />
    <glyph glyph-name="uniFB56" unicode="&#x67e;" horiz-adv-x="1897" arabic-form="isolated" 
d="M1109 -712q-12 -16 -35 -10q-84 30 -150 88q-17 16 -6 36l98 156q16 21 37 4.5t148 -92.5q21 -14 7 -34zM966 -486q-12 -16 -35 -10q-84 30 -150 88q-17 16 -6 36l98 156q15 22 34.5 6t94.5 -62l64 102q16 21 37 4.5t148 -92.5q21 -14 7 -34l-99 -148q-24 -34 -135 40z
M188 151q-101 125 -33 319q28 78 107 167q29 32 50 11q20 -20 -7 -49q-73 -78 -62 -146q39 -236 615 -236q488 -1 808 179q-17 75 -91 139q-19 17 -9 48l61 181q19 56 63 -12q104 -161 65 -397q-20 -116 -88 -159q-335 -212 -817 -238q-485 -26 -662 193z" />
    <glyph glyph-name="uniFB57" unicode="&#x67e;" horiz-adv-x="1810" arabic-form="final" 
d="M998 -772q-12 -16 -35 -10q-84 30 -150 88q-17 16 -6 36l98 156q16 21 37 4.5t148 -92.5q21 -14 7 -34zM855 -546q-12 -16 -35 -10q-84 30 -150 88q-17 16 -6 36l98 156q15 22 34.5 6t94.5 -62l64 102q16 21 37 4.5t148 -92.5q21 -14 7 -34l-99 -148q-24 -34 -135 40z
M229 516q30 40 55 16q21 -21 -2 -54q-66 -93 -50 -155q65 -263 607 -247q385 11 696 138q54 22 66 86q7 39 41 40q33 0 34 -53q2 -65 136 -72q58 -3 71 -56q5 -20 -1 -81q-12 -108 -72 -108q-92 0 -174 111q-377 -273 -880 -273q-521 -1 -614 264q-48 137 1 268
q46 118 86 176z" />
    <glyph glyph-name="uniFB58" unicode="&#x67e;" horiz-adv-x="390" arabic-form="initial" 
d="M329 -762q-12 -16 -35 -10q-84 30 -150 88q-17 16 -6 36l98 156q16 21 37 4.5t148 -92.5q21 -14 7 -34zM186 -536q-12 -16 -35 -10q-84 30 -150 88q-17 16 -6 36l98 156q15 22 34.5 6t94.5 -62l64 102q16 21 37 4.5t148 -92.5q21 -14 7 -34l-99 -148q-24 -34 -135 40z
M105 436l58 127q31 68 54 27q100 -173 46.5 -396.5t-263.5 -223.5q-42 0 -59.5 68.5t-16.5 111t44 59.5q15 6 32 6q119 -3 173 47q-11 51 -49 92t-19 82z" />
    <glyph glyph-name="uniFB59" unicode="&#x67e;" horiz-adv-x="500" arabic-form="medial" 
d="M369 -662q-12 -16 -35 -10q-84 30 -150 88q-17 16 -6 36l98 156q16 21 37 4.5t148 -92.5q21 -14 7 -34zM226 -436q-12 -16 -35 -10q-84 30 -150 88q-17 16 -6 36l98 156q15 22 34.5 6t94.5 -62l64 102q16 21 37 4.5t148 -92.5q21 -14 7 -34l-99 -148q-24 -34 -135 40z
M372 296q61 -77 128 -82q56 -5 66 -42q6 -26 -1.5 -86t-21 -87.5t-43.5 -28.5q-119 0 -222 130q-126 -130 -278 -130q-44 1 -55 55l-18 83q-7 34 15 69t58 38q243 18 299 120q17 31 39 31q30 0 31.5 -33.5t2.5 -36.5z" />
    <glyph glyph-name="uniFB5A" unicode="&#x680;" horiz-adv-x="1897" arabic-form="isolated" 
d="M1067 -126q12 17 35 10q84 -30 150 -88q17 -17 6 -37l-84 -132q59 -28 108 -71q17 -17 6 -37l-98 -155q-16 -21 -35.5 -5.5t-108.5 69.5l-69 -110q-16 -21 -37 -4.5t-148 92.5q-21 13 -7 34l91 136q-38 24 -114 70q-21 13 -7 34l99 148q12 17 35 10q62 -22 114 -59z
M961 -419q38 -18 72 -42l56 84q-27 18 -73 45zM188 151q-101 125 -33 319q28 78 107 167q29 32 50 11q20 -20 -7 -49q-73 -78 -62 -146q39 -236 615 -236q488 -1 808 179q-17 75 -91 139q-19 17 -9 48l61 181q19 56 63 -12q104 -161 65 -397q-20 -116 -88 -159
q-335 -212 -817 -238q-485 -26 -662 193z" />
    <glyph glyph-name="uniFB5B" unicode="&#x680;" horiz-adv-x="1810" arabic-form="final" 
d="M956 -186q12 17 35 10q84 -30 150 -88q17 -17 6 -37l-84 -132q59 -28 108 -71q17 -17 6 -37l-98 -155q-16 -21 -35.5 -5.5t-108.5 69.5l-69 -110q-16 -21 -37 -4.5t-148 92.5q-21 13 -7 34l91 136q-38 24 -114 70q-21 13 -7 34l99 148q12 17 35 10q62 -22 114 -59z
M850 -479q38 -18 72 -42l56 84q-27 18 -73 45zM229 516q30 40 55 16q21 -21 -2 -54q-66 -93 -50 -155q65 -263 607 -247q385 11 696 138q54 22 66 86q7 39 41 40q33 0 34 -53q2 -65 136 -72q58 -3 71 -56q5 -20 -1 -81q-12 -108 -72 -108q-92 0 -174 111
q-377 -273 -880 -273q-521 -1 -614 264q-48 137 1 268q46 118 86 176z" />
    <glyph glyph-name="uniFB5C" unicode="&#x680;" horiz-adv-x="390" arabic-form="initial" 
d="M287 -176q12 17 35 10q84 -30 150 -88q17 -17 6 -37l-84 -132q59 -28 108 -71q17 -17 6 -37l-98 -155q-16 -21 -35.5 -5.5t-108.5 69.5l-69 -110q-16 -21 -37 -4.5t-148 92.5q-21 13 -7 34l91 136q-38 24 -114 70q-21 13 -7 34l99 148q12 17 35 10q62 -22 114 -59z
M181 -469q38 -18 72 -42l56 84q-27 18 -73 45zM105 436l58 127q31 68 54 27q100 -173 46.5 -396.5t-263.5 -223.5q-42 0 -59.5 68.5t-16.5 111t44 59.5q15 6 32 6q119 -3 173 47q-11 51 -49 92t-19 82z" />
    <glyph glyph-name="uniFB5D" unicode="&#x680;" horiz-adv-x="500" arabic-form="medial" 
d="M327 -76q12 17 35 10q84 -30 150 -88q17 -17 6 -37l-84 -132q59 -28 108 -71q17 -17 6 -37l-98 -155q-16 -21 -35.5 -5.5t-108.5 69.5l-69 -110q-16 -21 -37 -4.5t-148 92.5q-21 13 -7 34l91 136q-38 24 -114 70q-21 13 -7 34l99 148q12 17 35 10q62 -22 114 -59z
M221 -369q38 -18 72 -42l56 84q-27 18 -73 45zM372 296q61 -77 128 -82q56 -5 66 -42q6 -26 -1.5 -86t-21 -87.5t-43.5 -28.5q-119 0 -222 130q-126 -130 -278 -130q-44 1 -55 55l-18 83q-7 34 15 69t58 38q243 18 299 120q17 31 39 31q30 0 31.5 -33.5t2.5 -36.5z" />
    <glyph glyph-name="uniFB5E" unicode="&#x67a;" horiz-adv-x="1897" arabic-form="isolated" 
d="M859 1188q12 17 35 10q84 -30 150 -88q17 -17 6 -37l-57 -91q49 -26 91 -62q17 -17 6 -37l-98 -155q-16 -21 -37 -4.5t-148 92.5q-21 13 -7 34l65 97q-37 23 -98 59q-21 13 -7 34zM188 151q-101 125 -33 319q28 78 107 167q29 32 50 11q20 -20 -7 -49q-73 -78 -62 -146
q39 -236 615 -236q488 -1 808 179q-17 75 -91 139q-19 17 -9 48l61 181q19 56 63 -12q104 -161 65 -397q-20 -116 -88 -159q-335 -212 -817 -238q-485 -26 -662 193z" />
    <glyph glyph-name="uniFB5F" unicode="&#x67a;" horiz-adv-x="1810" arabic-form="final" 
d="M859 1188q12 17 35 10q84 -30 150 -88q17 -17 6 -37l-57 -91q49 -26 91 -62q17 -17 6 -37l-98 -155q-16 -21 -37 -4.5t-148 92.5q-21 13 -7 34l65 97q-37 23 -98 59q-21 13 -7 34zM229 516q30 40 55 16q21 -21 -2 -54q-66 -93 -50 -155q65 -263 607 -247q385 11 696 138
q54 22 66 86q7 39 41 40q33 0 34 -53q2 -65 136 -72q58 -3 71 -56q5 -20 -1 -81q-12 -108 -72 -108q-92 0 -174 111q-377 -273 -880 -273q-521 -1 -614 264q-48 137 1 268q46 118 86 176z" />
    <glyph glyph-name="uniFB60" unicode="&#x67a;" horiz-adv-x="390" arabic-form="initial" 
d="M89 1218q12 17 35 10q84 -30 150 -88q17 -17 6 -37l-57 -91q49 -26 91 -62q17 -17 6 -37l-98 -155q-16 -21 -37 -4.5t-148 92.5q-21 13 -7 34l65 97q-37 23 -98 59q-21 13 -7 34zM105 436l58 127q31 68 54 27q100 -173 46.5 -396.5t-263.5 -223.5q-42 0 -59.5 68.5
t-16.5 111t44 59.5q15 6 32 6q119 -3 173 47q-11 51 -49 92t-19 82z" />
    <glyph glyph-name="uniFB61" unicode="&#x67a;" horiz-adv-x="500" arabic-form="medial" 
d="M164 1188q12 17 35 10q84 -30 150 -88q17 -17 6 -37l-57 -91q49 -26 91 -62q17 -17 6 -37l-98 -155q-16 -21 -37 -4.5t-148 92.5q-21 13 -7 34l65 97q-37 23 -98 59q-21 13 -7 34zM372 296q61 -77 128 -82q56 -5 66 -42q6 -26 -1.5 -86t-21 -87.5t-43.5 -28.5
q-119 0 -222 130q-126 -130 -278 -130q-44 1 -55 55l-18 83q-7 34 15 69t58 38q243 18 299 120q17 31 39 31q30 0 31.5 -33.5t2.5 -36.5z" />
    <glyph glyph-name="uniFB62" unicode="&#x67f;" horiz-adv-x="1897" arabic-form="isolated" 
d="M971 1284q12 17 35 10q84 -30 150 -88q17 -17 6 -37l-84 -132q59 -28 108 -71q17 -17 6 -37l-98 -155q-16 -21 -35.5 -5.5t-108.5 69.5l-69 -110q-16 -21 -37 -4.5t-148 92.5q-21 13 -7 34l91 136q-38 24 -114 70q-21 13 -7 34l99 148q12 17 35 10q62 -22 114 -59z
M865 991q38 -18 72 -42l56 84q-27 18 -73 45zM188 151q-101 125 -33 319q28 78 107 167q29 32 50 11q20 -20 -7 -49q-73 -78 -62 -146q39 -236 615 -236q488 -1 808 179q-17 75 -91 139q-19 17 -9 48l61 181q19 56 63 -12q104 -161 65 -397q-20 -116 -88 -159
q-335 -212 -817 -238q-485 -26 -662 193z" />
    <glyph glyph-name="uniFB63" unicode="&#x67f;" horiz-adv-x="1810" arabic-form="final" 
d="M971 1284q12 17 35 10q84 -30 150 -88q17 -17 6 -37l-84 -132q59 -28 108 -71q17 -17 6 -37l-98 -155q-16 -21 -35.5 -5.5t-108.5 69.5l-69 -110q-16 -21 -37 -4.5t-148 92.5q-21 13 -7 34l91 136q-38 24 -114 70q-21 13 -7 34l99 148q12 17 35 10q62 -22 114 -59z
M865 991q38 -18 72 -42l56 84q-27 18 -73 45zM229 516q30 40 55 16q21 -21 -2 -54q-66 -93 -50 -155q65 -263 607 -247q385 11 696 138q54 22 66 86q7 39 41 40q33 0 34 -53q2 -65 136 -72q58 -3 71 -56q5 -20 -1 -81q-12 -108 -72 -108q-92 0 -174 111q-377 -273 -880 -273
q-521 -1 -614 264q-48 137 1 268q46 118 86 176z" />
    <glyph glyph-name="uniFB64" unicode="&#x67f;" horiz-adv-x="390" arabic-form="initial" 
d="M197 1214q12 17 35 10q84 -30 150 -88q17 -17 6 -37l-84 -132q59 -28 108 -71q17 -17 6 -37l-98 -155q-16 -21 -35.5 -5.5t-108.5 69.5l-69 -110q-16 -21 -37 -4.5t-148 92.5q-21 13 -7 34l91 136q-38 24 -114 70q-21 13 -7 34l99 148q12 17 35 10q62 -22 114 -59z
M91 921q38 -18 72 -42l56 84q-27 18 -73 45zM105 436l58 127q31 68 54 27q100 -173 46.5 -396.5t-263.5 -223.5q-42 0 -59.5 68.5t-16.5 111t44 59.5q15 6 32 6q119 -3 173 47q-11 51 -49 92t-19 82z" />
    <glyph glyph-name="uniFB65" unicode="&#x67f;" horiz-adv-x="500" arabic-form="medial" 
d="M257 1154q12 17 35 10q84 -30 150 -88q17 -17 6 -37l-84 -132q59 -28 108 -71q17 -17 6 -37l-98 -155q-16 -21 -35.5 -5.5t-108.5 69.5l-69 -110q-16 -21 -37 -4.5t-148 92.5q-21 13 -7 34l91 136q-38 24 -114 70q-21 13 -7 34l99 148q12 17 35 10q62 -22 114 -59z
M151 861q38 -18 72 -42l56 84q-27 18 -73 45zM372 296q61 -77 128 -82q56 -5 66 -42q6 -26 -1.5 -86t-21 -87.5t-43.5 -28.5q-119 0 -222 130q-126 -130 -278 -130q-44 1 -55 55l-18 83q-7 34 15 69t58 38q243 18 299 120q17 31 39 31q30 0 31.5 -33.5t2.5 -36.5z" />
    <glyph glyph-name="uniFB66" unicode="&#x679;" horiz-adv-x="1897" arabic-form="isolated" 
d="M871 1300q34 16 42 -36q34 -247 26 -373q49 48 106 90q58 42 110 22t77 -82t-55 -164q-19 -24 -137 -60t-242 -42h-4q-57 10 -101 49t-43 63q4 17 25 16q72 -7 146 -2l46 46q6 144 -34 391q-1 11 11.5 42.5t26.5 39.5zM1047 882q-30 -12 -113 -87q103 21 201 67
q-30 41 -88 20zM188 151q-101 125 -33 319q28 78 107 167q29 32 50 11q20 -20 -7 -49q-73 -78 -62 -146q39 -236 615 -236q488 -1 808 179q-17 75 -91 139q-19 17 -9 48l61 181q19 56 63 -12q104 -161 65 -397q-20 -116 -88 -159q-335 -212 -817 -238q-485 -26 -662 193z
" />
    <glyph glyph-name="uniFB67" unicode="&#x679;" horiz-adv-x="1810" arabic-form="final" 
d="M871 1300q34 16 42 -36q34 -247 26 -373q49 48 106 90q58 42 110 22t77 -82t-55 -164q-19 -24 -137 -60t-242 -42h-4q-57 10 -101 49t-43 63q4 17 25 16q72 -7 146 -2l46 46q6 144 -34 391q-1 11 11.5 42.5t26.5 39.5zM1047 882q-30 -12 -113 -87q103 21 201 67
q-30 41 -88 20zM229 516q30 40 55 16q21 -21 -2 -54q-66 -93 -50 -155q65 -263 607 -247q385 11 696 138q54 22 66 86q7 39 41 40q33 0 34 -53q2 -65 136 -72q58 -3 71 -56q5 -20 -1 -81q-12 -108 -72 -108q-92 0 -174 111q-377 -273 -880 -273q-521 -1 -614 264
q-48 137 1 268q46 118 86 176z" />
    <glyph glyph-name="uniFB68" unicode="&#x679;" horiz-adv-x="390" arabic-form="initial" 
d="M101 1330q34 16 42 -36q34 -247 26 -373q49 48 106 90q58 42 110 22t77 -82t-55 -164q-19 -24 -137 -60t-242 -42h-4q-57 10 -101 49t-43 63q4 17 25 16q72 -7 146 -2l46 46q6 144 -34 391q-1 11 11.5 42.5t26.5 39.5zM277 912q-30 -12 -113 -87q103 21 201 67
q-30 41 -88 20zM105 436l58 127q31 68 54 27q100 -173 46.5 -396.5t-263.5 -223.5q-42 0 -59.5 68.5t-16.5 111t44 59.5q15 6 32 6q119 -3 173 47q-11 51 -49 92t-19 82z" />
    <glyph glyph-name="uniFB69" unicode="&#x679;" horiz-adv-x="500" arabic-form="medial" 
d="M176 1300q34 16 42 -36q34 -247 26 -373q49 48 106 90q58 42 110 22t77 -82t-55 -164q-19 -24 -137 -60t-242 -42h-4q-57 10 -101 49t-43 63q4 17 25 16q72 -7 146 -2l46 46q6 144 -34 391q-1 11 11.5 42.5t26.5 39.5zM352 882q-30 -12 -113 -87q103 21 201 67
q-30 41 -88 20zM372 296q61 -77 128 -82q56 -5 66 -42q6 -26 -1.5 -86t-21 -87.5t-43.5 -28.5q-119 0 -222 130q-126 -130 -278 -130q-44 1 -55 55l-18 83q-7 34 15 69t58 38q243 18 299 120q17 31 39 31q30 0 31.5 -33.5t2.5 -36.5z" />
    <glyph glyph-name="uniFB6A" unicode="&#x6a4;" horiz-adv-x="2015" arabic-form="isolated" 
d="M1203 1753q12 17 35 10q84 -30 150 -88q17 -17 6 -37l-98 -155q-16 -21 -37 -4.5t-148 92.5q-21 13 -7 33zM1348 1524q12 17 35 10q84 -30 150 -88q17 -17 6 -37l-98 -155q-15 -22 -34.5 -6.5t-94.5 61.5l-64 -102q-16 -21 -37 -4.5t-148 92.5q-21 13 -7 34l99 148
q24 34 135 -39zM1632 773q20 19 -2 38q-73 62 -114 -12q-10 -18 2 -29q58 -50 114 3zM1779 983q92 -154 106 -405q5 -91 -22 -156q-59 -138 -249 -244t-451.5 -165t-479.5 -60q-516 -3 -552 350q-8 81 20 184t63.5 148.5t58 30t-5.5 -67.5q-103 -190 21 -279
q205 -147 652 -93q395 48 745 235q104 56 110 104q0 22 -39 69q-39 -90 -150 -114q-187 -34 -197 156q-4 142 122 334q58 91 121 89t127 -116z" />
    <glyph glyph-name="uniFB6B" unicode="&#x6a4;" horiz-adv-x="2060" arabic-form="final" 
d="M1314 1403q12 17 35 10q84 -30 150 -88q17 -17 6 -37l-98 -155q-16 -21 -37 -4.5t-148 92.5q-21 13 -7 33zM1459 1174q12 17 35 10q84 -30 150 -88q17 -17 6 -37l-98 -155q-15 -22 -34.5 -6.5t-94.5 61.5l-64 -102q-16 -21 -37 -4.5t-148 92.5q-21 13 -7 34l99 148
q24 34 135 -39zM1593 615q144 217 254.5 115.5t62.5 -363.5q-12 -66 -49 -145q69 -14 199 -7q58 3 74 -54q6 -22 6 -39q-3 -146 -80 -152q-185 -14 -354 62q-438 -252 -954 -252q-646 1 -622 360q9 140 103 299q39 66 72 39q19 -15 -4 -59q-67 -127 -43 -171
q108 -200 521.5 -192.5t728.5 116.5q-50 58 -29.5 181.5t114.5 261.5zM1718 479q-85 7 -136 -125q32 -81 105.5 -81.5t119.5 56.5q-7 143 -89 150z" />
    <glyph glyph-name="uniFB6C" unicode="&#x6a4;" horiz-adv-x="605" arabic-form="initial" 
d="M134 1553q12 17 35 10q84 -30 150 -88q17 -17 6 -37l-98 -155q-16 -21 -37 -4.5t-148 92.5q-21 13 -7 33zM279 1324q12 17 35 10q84 -30 150 -88q17 -17 6 -37l-98 -155q-15 -22 -34.5 -6.5t-94.5 61.5l-64 -102q-16 -21 -37 -4.5t-148 92.5q-21 13 -7 34l99 148
q24 34 135 -39zM158 656q-47 0 -53 -91q30 -10 78.5 -5t59.5 24q-46 72 -85 72zM209 908q62 0 103 -41q163 -165 163 -449q0 -164 -59 -242q-165 -211 -415 -206q-50 1 -66 62q-15 62 -1 120q15 60 64 63q258 18 376 128q-7 69 -16 79q-13 15 -27 -10q-39 -69 -101 -83
q-201 -48 -214 106q-15 178 52 325.5t141 147.5z" />
    <glyph glyph-name="uniFB6D" unicode="&#x6a4;" horiz-adv-x="775" arabic-form="medial" 
d="M314 1603q12 17 35 10q84 -30 150 -88q17 -17 6 -37l-98 -155q-16 -21 -37 -4.5t-148 92.5q-21 13 -7 33zM459 1374q12 17 35 10q84 -30 150 -88q17 -17 6 -37l-98 -155q-15 -22 -34.5 -6.5t-94.5 61.5l-64 -102q-16 -21 -37 -4.5t-148 92.5q-21 13 -7 34l99 148
q24 34 135 -39zM579 806q23 -1 36 -8q60 -38 77 -133q28 -166 -38 -310q-24 -52 -55 -103q101 -33 177 -37q45 -2 53.5 -94t-11.5 -126q-14 -22 -40 -25q-173 -17 -427 114q-74 -34 -191.5 -73.5t-162.5 -40.5t-59.5 59.5t-1.5 119t60 66.5q100 15 188 43q-7 88 29 184
q67 178 241 310q72 54 125 54zM482 530q-109 3 -179 -93q84 -172 258 -42q0 132 -79 135z" />
    <glyph glyph-name="uniFB6E" unicode="&#x6a6;" horiz-adv-x="2015" arabic-form="isolated" 
d="M1326 1764q12 17 35 10q84 -30 150 -88q17 -17 6 -37l-84 -132q59 -28 108 -71q17 -17 6 -37l-98 -155q-16 -21 -35.5 -5.5t-108.5 69.5l-69 -110q-16 -21 -37 -4.5t-148 92.5q-21 13 -7 34l91 136q-38 24 -114 70q-21 13 -7 34l99 148q12 17 35 10q62 -22 114 -59z
M1220 1471q38 -18 72 -42l56 84q-27 18 -73 45zM1632 773q20 19 -2 38q-73 62 -114 -12q-10 -18 2 -29q58 -50 114 3zM1779 983q92 -154 106 -405q5 -91 -22 -156q-59 -138 -249 -244t-451.5 -165t-479.5 -60q-516 -3 -552 350q-8 81 20 184t63.5 148.5t58 30t-5.5 -67.5
q-103 -190 21 -279q205 -147 652 -93q395 48 745 235q104 56 110 104q0 22 -39 69q-39 -90 -150 -114q-187 -34 -197 156q-4 142 122 334q58 91 121 89t127 -116z" />
    <glyph glyph-name="uniFB6F" unicode="&#x6a6;" horiz-adv-x="2060" arabic-form="final" 
d="M1437 1414q12 17 35 10q84 -30 150 -88q17 -17 6 -37l-84 -132q59 -28 108 -71q17 -17 6 -37l-98 -155q-16 -21 -35.5 -5.5t-108.5 69.5l-69 -110q-16 -21 -37 -4.5t-148 92.5q-21 13 -7 34l91 136q-38 24 -114 70q-21 13 -7 34l99 148q12 17 35 10q62 -22 114 -59z
M1331 1121q38 -18 72 -42l56 84q-27 18 -73 45zM1593 615q144 217 254.5 115.5t62.5 -363.5q-12 -66 -49 -145q69 -14 199 -7q58 3 74 -54q6 -22 6 -39q-3 -146 -80 -152q-185 -14 -354 62q-438 -252 -954 -252q-646 1 -622 360q9 140 103 299q39 66 72 39q19 -15 -4 -59
q-67 -127 -43 -171q108 -200 521.5 -192.5t728.5 116.5q-50 58 -29.5 181.5t114.5 261.5zM1718 479q-85 7 -136 -125q32 -81 105.5 -81.5t119.5 56.5q-7 143 -89 150z" />
    <glyph glyph-name="uniFB70" unicode="&#x6a6;" horiz-adv-x="605" arabic-form="initial" 
d="M257 1564q12 17 35 10q84 -30 150 -88q17 -17 6 -37l-84 -132q59 -28 108 -71q17 -17 6 -37l-98 -155q-16 -21 -35.5 -5.5t-108.5 69.5l-69 -110q-16 -21 -37 -4.5t-148 92.5q-21 13 -7 34l91 136q-38 24 -114 70q-21 13 -7 34l99 148q12 17 35 10q62 -22 114 -59z
M151 1271q38 -18 72 -42l56 84q-27 18 -73 45zM158 656q-47 0 -53 -91q30 -10 78.5 -5t59.5 24q-46 72 -85 72zM209 908q62 0 103 -41q163 -165 163 -449q0 -164 -59 -242q-165 -211 -415 -206q-50 1 -66 62q-15 62 -1 120q15 60 64 63q258 18 376 128q-7 69 -16 79
q-13 15 -27 -10q-39 -69 -101 -83q-201 -48 -214 106q-15 178 52 325.5t141 147.5z" />
    <glyph glyph-name="uniFB71" unicode="&#x6a6;" horiz-adv-x="775" arabic-form="medial" 
d="M437 1614q12 17 35 10q84 -30 150 -88q17 -17 6 -37l-84 -132q59 -28 108 -71q17 -17 6 -37l-98 -155q-16 -21 -35.5 -5.5t-108.5 69.5l-69 -110q-16 -21 -37 -4.5t-148 92.5q-21 13 -7 34l91 136q-38 24 -114 70q-21 13 -7 34l99 148q12 17 35 10q62 -22 114 -59z
M331 1321q38 -18 72 -42l56 84q-27 18 -73 45zM579 806q23 -1 36 -8q60 -38 77 -133q28 -166 -38 -310q-24 -52 -55 -103q101 -33 177 -37q45 -2 53.5 -94t-11.5 -126q-14 -22 -40 -25q-173 -17 -427 114q-74 -34 -191.5 -73.5t-162.5 -40.5t-59.5 59.5t-1.5 119t60 66.5
q100 15 188 43q-7 88 29 184q67 178 241 310q72 54 125 54zM482 530q-109 3 -179 -93q84 -172 258 -42q0 132 -79 135z" />
    <glyph glyph-name="uniFB72" unicode="&#x684;" horiz-adv-x="1355" arabic-form="isolated" 
d="M754 -92q12 17 35 10q84 -30 150 -88q17 -17 6 -37l-57 -91q49 -26 91 -62q17 -17 6 -37l-98 -155q-16 -21 -37 -4.5t-148 92.5q-21 13 -7 34l65 97q-37 23 -98 59q-21 13 -7 34zM552 121q-191 -113 -266 -267.5t-51 -295.5q52 -304 414 -376q303 -60 814 3q81 10 81 -29
q0 -30 -85 -58t-164 -85.5t-100 -67.5t-44 -13q-610 -73 -851 120q-193 154 -169 489q39 527 423 769q-186 28 -304 -31q-52 -26 -50 42q7 237 266 242q47 1 209 -27q265 -47 541 -1q107 18 80 -47l-59 -142q-16 -39 -46 -42q-389 -35 -639 -183z" />
    <glyph glyph-name="uniFB73" unicode="&#x684;" horiz-adv-x="1310" arabic-form="final" 
d="M754 -192q12 17 35 10q84 -30 150 -88q17 -17 6 -37l-57 -91q49 -26 91 -62q17 -17 6 -37l-98 -155q-16 -21 -37 -4.5t-148 92.5q-21 13 -7 34l65 97q-37 23 -98 59q-21 13 -7 34zM170 310q8 249 266 253q75 1 239 -27q265 -47 541 -1q108 18 80 -47l-59 -142
q-14 -33 -46 -37q-124 -11 -211 -36q59 -79 327 -58q64 5 80 -69q11 -57 -11 -116t-64 -60q-275 -1 -359 73t-73 203q-179 -37 -328 -125q-191 -113 -266 -267.5t-51 -295.5q52 -304 414 -376q312 -62 814 3q81 10 81 -29q0 -30 -85 -58t-164 -85.5t-100 -67.5t-44 -13
q-610 -73 -851 120q-193 154 -169 489q39 527 423 769q-191 28 -334 -42q-52 -26 -50 42z" />
    <glyph glyph-name="uniFB74" unicode="&#x684;" horiz-adv-x="1343" arabic-form="initial" 
d="M564 -74q12 17 35 10q84 -30 150 -88q17 -17 6 -37l-57 -91q49 -26 91 -62q17 -17 6 -37l-98 -155q-16 -21 -37 -4.5t-148 92.5q-21 13 -7 34l65 97q-37 23 -98 59q-21 13 -7 34zM13 455q19 72 93 143t146 72t337 -109.5t588 -96.5q60 3 22 -80l-57 -126q-17 -38 -42 -35
q-236 39 -442.5 -25.5t-370.5 -146t-287 -81.5q-33 1 -49 39q-27 73 -12 129t31 65.5t27 11.5q316 19 530 119q-293 131 -473 75q-57 -20 -41 46z" />
    <glyph glyph-name="uniFB75" unicode="&#x684;" horiz-adv-x="1250" arabic-form="medial" 
d="M554 -62q12 17 35 10q84 -30 150 -88q17 -17 6 -37l-57 -91q49 -26 91 -62q17 -17 6 -37l-98 -155q-16 -21 -37 -4.5t-148 92.5q-21 13 -7 34l65 97q-37 23 -98 59q-21 13 -7 34zM25 454q54 222 268 222q97 0 300 -97q97 -46 265 -72t327 -8q71 9 55 -45l-46 -151
q-11 -36 -57 -32q-82 7 -142 9q-29 -76 256 -69q120 3 67 -174q-20 -61 -64 -67q-169 -21 -270 16q-142 52 -76 288q-166 -15 -311 -69t-328.5 -145.5t-268.5 -89.5q-48 1 -69.5 54.5t-7.5 116.5t73 74q172 31 296.5 82t200.5 72q-288 95 -402 37q-39 -20 -59 -12t-7 60z
" />
    <glyph glyph-name="uniFB76" unicode="&#x683;" horiz-adv-x="1355" arabic-form="isolated" 
d="M910 -133q12 17 35 10q84 -30 150 -88q17 -17 6 -37l-98 -155q-16 -21 -35.5 -5.5t-108.5 69.5l-69 -110q-16 -21 -37 -4.5t-148 92.5q-21 13 -7 34l99 148q12 17 35 10q62 -22 114 -59zM552 121q-191 -113 -266 -267.5t-51 -295.5q52 -304 414 -376q303 -60 814 3
q81 10 81 -29q0 -30 -85 -58t-164 -85.5t-100 -67.5t-44 -13q-610 -73 -851 120q-193 154 -169 489q39 527 423 769q-186 28 -304 -31q-52 -26 -50 42q7 237 266 242q47 1 209 -27q265 -47 541 -1q107 18 80 -47l-59 -142q-16 -39 -46 -42q-389 -35 -639 -183z" />
    <glyph glyph-name="uniFB77" unicode="&#x683;" horiz-adv-x="1310" arabic-form="final" 
d="M860 -193q12 17 35 10q84 -30 150 -88q17 -17 6 -37l-98 -155q-16 -21 -35.5 -5.5t-108.5 69.5l-69 -110q-16 -21 -37 -4.5t-148 92.5q-21 13 -7 34l99 148q12 17 35 10q62 -22 114 -59zM170 310q8 249 266 253q75 1 239 -27q265 -47 541 -1q108 18 80 -47l-59 -142
q-14 -33 -46 -37q-124 -11 -211 -36q59 -79 327 -58q64 5 80 -69q11 -57 -11 -116t-64 -60q-275 -1 -359 73t-73 203q-179 -37 -328 -125q-191 -113 -266 -267.5t-51 -295.5q52 -304 414 -376q312 -62 814 3q81 10 81 -29q0 -30 -85 -58t-164 -85.5t-100 -67.5t-44 -13
q-610 -73 -851 120q-193 154 -169 489q39 527 423 769q-191 28 -334 -42q-52 -26 -50 42z" />
    <glyph glyph-name="uniFB78" unicode="&#x683;" horiz-adv-x="1343" arabic-form="initial" 
d="M670 -75q12 17 35 10q84 -30 150 -88q17 -17 6 -37l-98 -155q-16 -21 -35.5 -5.5t-108.5 69.5l-69 -110q-16 -21 -37 -4.5t-148 92.5q-21 13 -7 34l99 148q12 17 35 10q62 -22 114 -59zM13 455q19 72 93 143t146 72t337 -109.5t588 -96.5q60 3 22 -80l-57 -126
q-17 -38 -42 -35q-236 39 -442.5 -25.5t-370.5 -146t-287 -81.5q-33 1 -49 39q-27 73 -12 129t31 65.5t27 11.5q316 19 530 119q-293 131 -473 75q-57 -20 -41 46z" />
    <glyph glyph-name="uniFB79" unicode="&#x683;" horiz-adv-x="1250" arabic-form="medial" 
d="M660 -63q12 17 35 10q84 -30 150 -88q17 -17 6 -37l-98 -155q-16 -21 -35.5 -5.5t-108.5 69.5l-69 -110q-16 -21 -37 -4.5t-148 92.5q-21 13 -7 34l99 148q12 17 35 10q62 -22 114 -59zM25 454q54 222 268 222q97 0 300 -97q97 -46 265 -72t327 -8q71 9 55 -45l-46 -151
q-11 -36 -57 -32q-82 7 -142 9q-29 -76 256 -69q120 3 67 -174q-20 -61 -64 -67q-169 -21 -270 16q-142 52 -76 288q-166 -15 -311 -69t-328.5 -145.5t-268.5 -89.5q-48 1 -69.5 54.5t-7.5 116.5t73 74q172 31 296.5 82t200.5 72q-288 95 -402 37q-39 -20 -59 -12t-7 60z
" />
    <glyph glyph-name="uniFB7A" unicode="&#x686;" horiz-adv-x="1355" arabic-form="isolated" 
d="M898 -572q-12 -16 -35 -10q-84 30 -150 88q-17 16 -6 36l98 156q16 21 37 4.5t148 -92.5q21 -14 7 -34zM755 -346q-12 -16 -35 -10q-84 30 -150 88q-17 16 -6 36l98 156q15 22 34.5 6t94.5 -62l64 102q16 21 37 4.5t148 -92.5q21 -14 7 -34l-99 -148q-24 -34 -135 40z
M552 121q-191 -113 -266 -267.5t-51 -295.5q52 -304 414 -376q303 -60 814 3q81 10 81 -29q0 -30 -85 -58t-164 -85.5t-100 -67.5t-44 -13q-610 -73 -851 120q-193 154 -169 489q39 527 423 769q-186 28 -304 -31q-52 -26 -50 42q7 237 266 242q47 1 209 -27q265 -47 541 -1
q107 18 80 -47l-59 -142q-16 -39 -46 -42q-389 -35 -639 -183z" />
    <glyph glyph-name="uniFB7B" unicode="&#x686;" horiz-adv-x="1310" arabic-form="final" 
d="M898 -682q-12 -16 -35 -10q-84 30 -150 88q-17 16 -6 36l98 156q16 21 37 4.5t148 -92.5q21 -14 7 -34zM755 -456q-12 -16 -35 -10q-84 30 -150 88q-17 16 -6 36l98 156q15 22 34.5 6t94.5 -62l64 102q16 21 37 4.5t148 -92.5q21 -14 7 -34l-99 -148q-24 -34 -135 40z
M170 310q8 249 266 253q75 1 239 -27q265 -47 541 -1q108 18 80 -47l-59 -142q-14 -33 -46 -37q-124 -11 -211 -36q59 -79 327 -58q64 5 80 -69q11 -57 -11 -116t-64 -60q-275 -1 -359 73t-73 203q-179 -37 -328 -125q-191 -113 -266 -267.5t-51 -295.5q52 -304 414 -376
q312 -62 814 3q81 10 81 -29q0 -30 -85 -58t-164 -85.5t-100 -67.5t-44 -13q-610 -73 -851 120q-193 154 -169 489q39 527 423 769q-191 28 -334 -42q-52 -26 -50 42z" />
    <glyph glyph-name="uniFB7C" unicode="&#x686;" horiz-adv-x="1343" arabic-form="initial" 
d="M708 -614q-12 -16 -35 -10q-84 30 -150 88q-17 16 -6 36l98 156q16 21 37 4.5t148 -92.5q21 -14 7 -34zM565 -388q-12 -16 -35 -10q-84 30 -150 88q-17 16 -6 36l98 156q15 22 34.5 6t94.5 -62l64 102q16 21 37 4.5t148 -92.5q21 -14 7 -34l-99 -148q-24 -34 -135 40z
M13 455q19 72 93 143t146 72t337 -109.5t588 -96.5q60 3 22 -80l-57 -126q-17 -38 -42 -35q-236 39 -442.5 -25.5t-370.5 -146t-287 -81.5q-33 1 -49 39q-27 73 -12 129t31 65.5t27 11.5q316 19 530 119q-293 131 -473 75q-57 -20 -41 46z" />
    <glyph glyph-name="uniFB7D" unicode="&#x686;" horiz-adv-x="1250" arabic-form="medial" 
d="M698 -602q-12 -16 -35 -10q-84 30 -150 88q-17 16 -6 36l98 156q16 21 37 4.5t148 -92.5q21 -14 7 -34zM555 -376q-12 -16 -35 -10q-84 30 -150 88q-17 16 -6 36l98 156q15 22 34.5 6t94.5 -62l64 102q16 21 37 4.5t148 -92.5q21 -14 7 -34l-99 -148q-24 -34 -135 40z
M25 454q54 222 268 222q97 0 300 -97q97 -46 265 -72t327 -8q71 9 55 -45l-46 -151q-11 -36 -57 -32q-82 7 -142 9q-29 -76 256 -69q120 3 67 -174q-20 -61 -64 -67q-169 -21 -270 16q-142 52 -76 288q-166 -15 -311 -69t-328.5 -145.5t-268.5 -89.5q-48 1 -69.5 54.5
t-7.5 116.5t73 74q172 31 296.5 82t200.5 72q-288 95 -402 37q-39 -20 -59 -12t-7 60z" />
    <glyph glyph-name="uniFB7E" unicode="&#x687;" horiz-adv-x="1355" arabic-form="isolated" 
d="M856 -26q12 17 35 10q84 -30 150 -88q17 -17 6 -37l-84 -132q59 -28 108 -71q17 -17 6 -37l-98 -155q-16 -21 -35.5 -5.5t-108.5 69.5l-69 -110q-16 -21 -37 -4.5t-148 92.5q-21 13 -7 34l91 136q-38 24 -114 70q-21 13 -7 34l99 148q12 17 35 10q62 -22 114 -59z
M750 -319q38 -18 72 -42l56 84q-27 18 -73 45zM552 121q-191 -113 -266 -267.5t-51 -295.5q52 -304 414 -376q303 -60 814 3q81 10 81 -29q0 -30 -85 -58t-164 -85.5t-100 -67.5t-44 -13q-610 -73 -851 120q-193 154 -169 489q39 527 423 769q-186 28 -304 -31
q-52 -26 -50 42q7 237 266 242q47 1 209 -27q265 -47 541 -1q107 18 80 -47l-59 -142q-16 -39 -46 -42q-389 -35 -639 -183z" />
    <glyph glyph-name="uniFB7F" unicode="&#x687;" horiz-adv-x="1310" arabic-form="final" 
d="M856 -96q12 17 35 10q84 -30 150 -88q17 -17 6 -37l-84 -132q59 -28 108 -71q17 -17 6 -37l-98 -155q-16 -21 -35.5 -5.5t-108.5 69.5l-69 -110q-16 -21 -37 -4.5t-148 92.5q-21 13 -7 34l91 136q-38 24 -114 70q-21 13 -7 34l99 148q12 17 35 10q62 -22 114 -59z
M750 -389q38 -18 72 -42l56 84q-27 18 -73 45zM170 310q8 249 266 253q75 1 239 -27q265 -47 541 -1q108 18 80 -47l-59 -142q-14 -33 -46 -37q-124 -11 -211 -36q59 -79 327 -58q64 5 80 -69q11 -57 -11 -116t-64 -60q-275 -1 -359 73t-73 203q-179 -37 -328 -125
q-191 -113 -266 -267.5t-51 -295.5q52 -304 414 -376q312 -62 814 3q81 10 81 -29q0 -30 -85 -58t-164 -85.5t-100 -67.5t-44 -13q-610 -73 -851 120q-193 154 -169 489q39 527 423 769q-191 28 -334 -42q-52 -26 -50 42z" />
    <glyph glyph-name="uniFB80" unicode="&#x687;" horiz-adv-x="1343" arabic-form="initial" 
d="M666 -28q12 17 35 10q84 -30 150 -88q17 -17 6 -37l-84 -132q59 -28 108 -71q17 -17 6 -37l-98 -155q-16 -21 -35.5 -5.5t-108.5 69.5l-69 -110q-16 -21 -37 -4.5t-148 92.5q-21 13 -7 34l91 136q-38 24 -114 70q-21 13 -7 34l99 148q12 17 35 10q62 -22 114 -59z
M560 -321q38 -18 72 -42l56 84q-27 18 -73 45zM13 455q19 72 93 143t146 72t337 -109.5t588 -96.5q60 3 22 -80l-57 -126q-17 -38 -42 -35q-236 39 -442.5 -25.5t-370.5 -146t-287 -81.5q-33 1 -49 39q-27 73 -12 129t31 65.5t27 11.5q316 19 530 119q-293 131 -473 75
q-57 -20 -41 46z" />
    <glyph glyph-name="uniFB81" unicode="&#x687;" horiz-adv-x="1250" arabic-form="medial" 
d="M656 -16q12 17 35 10q84 -30 150 -88q17 -17 6 -37l-84 -132q59 -28 108 -71q17 -17 6 -37l-98 -155q-16 -21 -35.5 -5.5t-108.5 69.5l-69 -110q-16 -21 -37 -4.5t-148 92.5q-21 13 -7 34l91 136q-38 24 -114 70q-21 13 -7 34l99 148q12 17 35 10q62 -22 114 -59z
M550 -309q38 -18 72 -42l56 84q-27 18 -73 45zM25 454q54 222 268 222q97 0 300 -97q97 -46 265 -72t327 -8q71 9 55 -45l-46 -151q-11 -36 -57 -32q-82 7 -142 9q-29 -76 256 -69q120 3 67 -174q-20 -61 -64 -67q-169 -21 -270 16q-142 52 -76 288q-166 -15 -311 -69
t-328.5 -145.5t-268.5 -89.5q-48 1 -69.5 54.5t-7.5 116.5t73 74q172 31 296.5 82t200.5 72q-288 95 -402 37q-39 -20 -59 -12t-7 60z" />
    <glyph glyph-name="uniFB82" unicode="&#x68d;" horiz-adv-x="923" arabic-form="isolated" 
d="M560 -173q12 17 35 10q84 -30 150 -88q17 -17 6 -37l-98 -155q-16 -21 -35.5 -5.5t-108.5 69.5l-69 -110q-16 -21 -37 -4.5t-148 92.5q-21 13 -7 34l99 148q12 17 35 10q62 -22 114 -59zM368 584q-42 18 -16 89t52 119.5t65 26.5q254 -150 308 -424q29 -146 -10 -258
q-23 -67 -61 -83q-214 -86 -369 -96q-225 -15 -161 245q12 50 39 50q20 1 35 -24.5t185.5 -3.5t266.5 68q-30 156 -334 291z" />
    <glyph glyph-name="uniFB83" unicode="&#x68d;" horiz-adv-x="965" arabic-form="final" 
d="M560 -123q12 17 35 10q84 -30 150 -88q17 -17 6 -37l-98 -155q-16 -21 -35.5 -5.5t-108.5 69.5l-69 -110q-16 -21 -37 -4.5t-148 92.5q-21 13 -7 34l99 148q12 17 35 10q62 -22 114 -59zM1032 141q15 -59 0 -107q-20 -65 -68 -64q-158 2 -210 273q-65 -155 -155 -195
q-87 -39 -272 -38q-282 0 -168 309q13 33 35 33t36 -38q14 -39 46 -44q191 -32 343 27q82 32 96 91q0 21 -27.5 212t-31 232t19.5 92l47 104q13 28 35 28t25 -31q61 -502 100 -651t82 -160q52 -14 67 -73z" />
    <glyph glyph-name="uniFB84" unicode="&#x68c;" horiz-adv-x="923" arabic-form="isolated" 
d="M476 1374q12 17 35 10q84 -30 150 -88q17 -17 6 -37l-98 -155q-16 -21 -35.5 -5.5t-108.5 69.5l-69 -110q-16 -21 -37 -4.5t-148 92.5q-21 13 -7 34l99 148q12 17 35 10q62 -22 114 -59zM368 584q-42 18 -16 89t52 119.5t65 26.5q254 -150 308 -424q29 -146 -10 -258
q-23 -67 -61 -83q-214 -86 -369 -96q-225 -15 -161 245q12 50 39 50q20 1 35 -24.5t185.5 -3.5t266.5 68q-30 156 -334 291z" />
    <glyph glyph-name="uniFB85" unicode="&#x68c;" horiz-adv-x="965" arabic-form="final" 
d="M741 1474q12 17 35 10q84 -30 150 -88q17 -17 6 -37l-98 -155q-16 -21 -35.5 -5.5t-108.5 69.5l-69 -110q-16 -21 -37 -4.5t-148 92.5q-21 13 -7 34l99 148q12 17 35 10q62 -22 114 -59zM1032 141q15 -59 0 -107q-20 -65 -68 -64q-158 2 -210 273q-65 -155 -155 -195
q-87 -39 -272 -38q-282 0 -168 309q13 33 35 33t36 -38q14 -39 46 -44q191 -32 343 27q82 32 96 91q0 21 -27.5 212t-31 232t19.5 92l47 104q13 28 35 28t25 -31q61 -502 100 -651t82 -160q52 -14 67 -73z" />
    <glyph glyph-name="uniFB86" unicode="&#x68e;" horiz-adv-x="923" arabic-form="isolated" 
d="M323 1603q12 17 35 10q84 -30 150 -88q17 -17 6 -37l-98 -155q-16 -21 -37 -4.5t-148 92.5q-21 13 -7 33zM468 1374q12 17 35 10q84 -30 150 -88q17 -17 6 -37l-98 -155q-15 -22 -34.5 -6.5t-94.5 61.5l-64 -102q-16 -21 -37 -4.5t-148 92.5q-21 13 -7 34l99 148
q24 34 135 -39zM368 584q-42 18 -16 89t52 119.5t65 26.5q254 -150 308 -424q29 -146 -10 -258q-23 -67 -61 -83q-214 -86 -369 -96q-225 -15 -161 245q12 50 39 50q20 1 35 -24.5t185.5 -3.5t266.5 68q-30 156 -334 291z" />
    <glyph glyph-name="uniFB87" unicode="&#x68e;" horiz-adv-x="965" arabic-form="final" 
d="M588 1703q12 17 35 10q84 -30 150 -88q17 -17 6 -37l-98 -155q-16 -21 -37 -4.5t-148 92.5q-21 13 -7 33zM733 1474q12 17 35 10q84 -30 150 -88q17 -17 6 -37l-98 -155q-15 -22 -34.5 -6.5t-94.5 61.5l-64 -102q-16 -21 -37 -4.5t-148 92.5q-21 13 -7 34l99 148
q24 34 135 -39zM1032 141q15 -59 0 -107q-20 -65 -68 -64q-158 2 -210 273q-65 -155 -155 -195q-87 -39 -272 -38q-282 0 -168 309q13 33 35 33t36 -38q14 -39 46 -44q191 -32 343 27q82 32 96 91q0 21 -27.5 212t-31 232t19.5 92l47 104q13 28 35 28t25 -31
q61 -502 100 -651t82 -160q52 -14 67 -73z" />
    <glyph glyph-name="uniFB88" unicode="&#x688;" horiz-adv-x="923" arabic-form="isolated" 
d="M346 1730q34 16 42 -36q34 -247 26 -373q49 48 106 90q58 42 110 22t77 -82t-55 -164q-19 -24 -137 -60t-242 -42h-4q-57 10 -101 49t-43 63q4 17 25 16q72 -7 146 -2l46 46q6 144 -34 391q-1 11 11.5 42.5t26.5 39.5zM522 1312q-30 -12 -113 -87q103 21 201 67
q-30 41 -88 20zM368 584q-42 18 -16 89t52 119.5t65 26.5q254 -150 308 -424q29 -146 -10 -258q-23 -67 -61 -83q-214 -86 -369 -96q-225 -15 -161 245q12 50 39 50q20 1 35 -24.5t185.5 -3.5t266.5 68q-30 156 -334 291z" />
    <glyph glyph-name="uniFB89" unicode="&#x688;" horiz-adv-x="965" arabic-form="final" 
d="M611 1830q34 16 42 -36q34 -247 26 -373q49 48 106 90q58 42 110 22t77 -82t-55 -164q-19 -24 -137 -60t-242 -42h-4q-57 10 -101 49t-43 63q4 17 25 16q72 -7 146 -2l46 46q6 144 -34 391q-1 11 11.5 42.5t26.5 39.5zM787 1412q-30 -12 -113 -87q103 21 201 67
q-30 41 -88 20zM1032 141q15 -59 0 -107q-20 -65 -68 -64q-158 2 -210 273q-65 -155 -155 -195q-87 -39 -272 -38q-282 0 -168 309q13 33 35 33t36 -38q14 -39 46 -44q191 -32 343 27q82 32 96 91q0 21 -27.5 212t-31 232t19.5 92l47 104q13 28 35 28t25 -31
q61 -502 100 -651t82 -160q52 -14 67 -73z" />
    <glyph glyph-name="uniFB8A" unicode="&#x698;" horiz-adv-x="819" arabic-form="isolated" 
d="M280 1341q12 17 35 10q84 -30 150 -88q17 -17 6 -37l-98 -155q-16 -21 -37 -4.5t-148 92.5q-21 13 -7 33zM425 1112q12 17 35 10q84 -30 150 -88q17 -17 6 -37l-98 -155q-15 -22 -34.5 -6.5t-94.5 61.5l-64 -102q-16 -21 -37 -4.5t-148 92.5q-21 13 -7 34l99 148
q24 34 135 -39zM485 604q14 55 80 -23.5t110 -231.5q95 -344 -123 -628q-126 -164 -310 -212q-69 -18 -116 3q-181 78 -281 128q-35 17 -23.5 41.5t45.5 14.5q134 -41 221 -20.5t226 104.5q240 145 293 284q2 6 2 11q-19 96 -175 258q-15 16 -9 40z" />
    <glyph glyph-name="uniFB8B" unicode="&#x698;" horiz-adv-x="703" arabic-form="final" 
d="M260 1217q12 17 35 10q84 -30 150 -88q17 -17 6 -37l-98 -155q-16 -21 -37 -4.5t-148 92.5q-21 13 -7 33zM405 988q12 17 35 10q84 -30 150 -88q17 -17 6 -37l-98 -155q-15 -22 -34.5 -6.5t-94.5 61.5l-64 -102q-16 -21 -37 -4.5t-148 92.5q-21 13 -7 34l99 148
q24 34 135 -39zM442 139l75 178q29 69 63.5 4.5t46 -84t77.5 -22.5q74 -3 78 -121q-1 -122 -76 -124q-31 -1 -71 -1q-16 -230 -139.5 -390t-248.5 -179t-250 35t-154.5 72.5t-18.5 40.5q9 20 43 12q119 -31 219 -6q173 42 310.5 186t145.5 207q3 24 -85 114q-33 34 -15 78z
" />
    <glyph glyph-name="uniFB8C" unicode="&#x691;" horiz-adv-x="819" arabic-form="isolated" 
d="M254 1518q34 16 42 -36q34 -247 26 -373q49 48 106 90q58 42 110 22t77 -82t-55 -164q-19 -24 -137 -60t-242 -42h-4q-57 10 -101 49t-43 63q4 17 25 16q72 -7 146 -2l46 46q6 144 -34 391q-1 11 11.5 42.5t26.5 39.5zM430 1100q-30 -12 -113 -87q103 21 201 67
q-30 41 -88 20zM485 604q14 55 80 -23.5t110 -231.5q95 -344 -123 -628q-126 -164 -310 -212q-69 -18 -116 3q-181 78 -281 128q-35 17 -23.5 41.5t45.5 14.5q134 -41 221 -20.5t226 104.5q240 145 293 284q2 6 2 11q-19 96 -175 258q-15 16 -9 40z" />
    <glyph glyph-name="uniFB8D" unicode="&#x691;" horiz-adv-x="703" arabic-form="final" 
d="M282 1244q34 16 42 -36q34 -247 26 -373q49 48 106 90q58 42 110 22t77 -82t-55 -164q-19 -24 -137 -60t-242 -42h-4q-57 10 -101 49t-43 63q4 17 25 16q72 -7 146 -2l46 46q6 144 -34 391q-1 11 11.5 42.5t26.5 39.5zM458 826q-30 -12 -113 -87q103 21 201 67
q-30 41 -88 20zM442 139l75 178q29 69 63.5 4.5t46 -84t77.5 -22.5q74 -3 78 -121q-1 -122 -76 -124q-31 -1 -71 -1q-16 -230 -139.5 -390t-248.5 -179t-250 35t-154.5 72.5t-18.5 40.5q9 20 43 12q119 -31 219 -6q173 42 310.5 186t145.5 207q3 24 -85 114q-33 34 -15 78z
" />
    <glyph glyph-name="uniFB8E" unicode="&#x6a9;" horiz-adv-x="1347" arabic-form="isolated" 
d="M592 1188q18 3 27 -12t4 -29l-44 -109q-14 -33 -33 -38q-49 -11 -70 -35q31 -23 93 -32t82 -23q76 -56 -47 -227q-49 -66 -93.5 -78t-149.5 -1.5t-168 34.5q-31 13 -31 34t8.5 30.5t43 11.5t148.5 5t157 17l-59 14q-54 13 -86 48t-23 77q64 265 241 313zM1067 1814
q271 156 991 349q60 15 77.5 -13.5t6.5 -56.5l-46 -102q-13 -26 -47 -36q-516 -143 -993 -348q-72 -31 -89 20q-4 16 3.5 41t96.5 146zM963 1646q29 57 69 -27t103 -137q42 -35 8 -79l-50 -66q136 -722 134 -979q-1 -134 -62 -269q-40 -89 -284 -110q-152 -12 -381 -8.5
t-356 23.5q-36 6 -37 31q-7 106 -5 211q1 39 35 29q138 -38 284 -41q570 -10 710 65q2 37 -181 1039q-4 27 -41 122q-20 51 2 94z" />
    <glyph glyph-name="uniFB8F" unicode="&#x6a9;" horiz-adv-x="1685" arabic-form="final" 
d="M902 1194q18 3 27 -12t4 -29l-44 -109q-14 -33 -33 -38q-49 -11 -70 -35q31 -23 93 -32t82 -23q76 -56 -47 -227q-49 -66 -93.5 -78t-149.5 -1.5t-168 34.5q-31 13 -31 34t8.5 30.5t43 11.5t148.5 5t157 17l-59 14q-54 13 -86 48t-23 77q64 265 241 313zM1512 1651
q271 156 991 349q60 15 77.5 -13.5t6.5 -56.5l-46 -102q-13 -26 -47 -36q-516 -143 -993 -348q-72 -31 -89 20q-4 16 3.5 41t96.5 146zM1685 -30q-221 0 -249 372q-167 -408 -750 -429q-451 -16 -532.5 206t84.5 454q41 57 63.5 32.5t-7.5 -69.5q-82 -127 -72 -177
q40 -188 430 -193q273 -4 546 106q112 45 150 109q10 17 14.5 79t-21 373.5t-26.5 321.5q-15 138 10 175l69 103q69 103 74 -43q2 -56 36 -501q32 -421 72.5 -535.5t108 -137.5t78.5 -81t-15 -111.5t-63 -53.5z" />
    <glyph glyph-name="uniFB90" unicode="&#x6a9;" horiz-adv-x="1350" arabic-form="initial" 
d="M4 215q326 -44 506 124q-183 247 -390 326q-50 19 -55 171q-5 154 71 225q311 282 1056 507q53 16 39 -35l-49 -180q-12 -45 -47 -57q-793 -277 -987 -413q428 -230 428 -530q0 -310 -209 -362q-223 -55 -389 -24q-48 9 -56 71q-12 93 -7 111q22 75 89 66z" />
    <glyph glyph-name="uniFB91" unicode="&#x6a9;" horiz-adv-x="1206" arabic-form="medial" 
d="M-86 122q0 99 112 90q317 -26 495 133q-43 149 -425 341q-40 68 -38 197q1 85 26 119q242 354 1030 693q69 30 50 -49l-42 -178q-8 -32 -43 -49q-667 -331 -918 -544q373 -162 702 -461q205 -186 344 -200q113 -12 57 -188q-18 -57 -61 -57q-170 1 -448 293
q-94 99 -163 152q-1 -78 -6 -114q-51 -344 -489 -343q-75 0 -119 10q-64 15 -64 155z" />
    <glyph glyph-name="uniFB92" unicode="&#x6af;" horiz-adv-x="1347" arabic-form="isolated" 
d="M592 1188q18 3 27 -12t4 -29l-44 -109q-14 -33 -33 -38q-49 -11 -70 -35q31 -23 93 -32t82 -23q76 -56 -47 -227q-49 -66 -93.5 -78t-149.5 -1.5t-168 34.5q-31 13 -31 34t8.5 30.5t43 11.5t148.5 5t157 17l-59 14q-54 13 -86 48t-23 77q64 265 241 313zM1067 1814
q271 156 991 349q60 15 77.5 -13.5t6.5 -56.5l-46 -102q-13 -26 -47 -36q-516 -143 -993 -348q-72 -31 -89 20q-4 16 3.5 41t96.5 146zM1147 1902q-26 -11 -43 0q-35 22 -5 64q60 87 116 113q347 165 911 331q20 6 43.5 -16.5t-26.5 -80.5q-14 -16 -18 -20q-49 -57 -90 -69
q-367 -98 -888 -322zM963 1646q29 57 69 -27t103 -137q42 -35 8 -79l-50 -66q136 -722 134 -979q-1 -134 -62 -269q-40 -89 -284 -110q-152 -12 -381 -8.5t-356 23.5q-36 6 -37 31q-7 106 -5 211q1 39 35 29q138 -38 284 -41q570 -10 710 65q2 37 -181 1039q-4 27 -41 122
q-20 51 2 94z" />
    <glyph glyph-name="uniFB93" unicode="&#x6af;" horiz-adv-x="1685" arabic-form="final" 
d="M902 1194q18 3 27 -12t4 -29l-44 -109q-14 -33 -33 -38q-49 -11 -70 -35q31 -23 93 -32t82 -23q76 -56 -47 -227q-49 -66 -93.5 -78t-149.5 -1.5t-168 34.5q-31 13 -31 34t8.5 30.5t43 11.5t148.5 5t157 17l-59 14q-54 13 -86 48t-23 77q64 265 241 313zM1512 1651
q271 156 991 349q60 15 77.5 -13.5t6.5 -56.5l-46 -102q-13 -26 -47 -36q-516 -143 -993 -348q-72 -31 -89 20q-4 16 3.5 41t96.5 146zM1592 1739q-26 -11 -43 0q-35 22 -5 64q60 87 116 113q347 165 911 331q20 6 43.5 -16.5t-26.5 -80.5q-14 -16 -18 -20q-49 -57 -90 -69
q-367 -98 -888 -322zM1685 -30q-221 0 -249 372q-167 -408 -750 -429q-451 -16 -532.5 206t84.5 454q41 57 63.5 32.5t-7.5 -69.5q-82 -127 -72 -177q40 -188 430 -193q273 -4 546 106q112 45 150 109q10 17 14.5 79t-21 373.5t-26.5 321.5q-15 138 10 175l69 103
q69 103 74 -43q2 -56 36 -501q32 -421 72.5 -535.5t108 -137.5t78.5 -81t-15 -111.5t-63 -53.5z" />
    <glyph glyph-name="uniFB94" unicode="&#x6af;" horiz-adv-x="1350" arabic-form="initial" 
d="M231 1284q-26 -11 -43 0q-35 22 -5 64q60 87 116 113q347 165 911 331q20 6 43.5 -16.5t-26.5 -80.5q-14 -16 -18 -20q-49 -57 -90 -69q-367 -98 -888 -322zM4 215q326 -44 506 124q-183 247 -390 326q-50 19 -55 171q-5 154 71 225q311 282 1056 507q53 16 39 -35
l-49 -180q-12 -45 -47 -57q-793 -277 -987 -413q428 -230 428 -530q0 -310 -209 -362q-223 -55 -389 -24q-48 9 -56 71q-12 93 -7 111q22 75 89 66z" />
    <glyph glyph-name="uniFB95" unicode="&#x6af;" horiz-adv-x="1206" arabic-form="medial" 
d="M237 1362q-23 -13 -41 -6q-39 16 -14 63q50 94 104 127q327 201 871 426q20 8 44.5 -12.5t-19.5 -83.5q-11 -15 -14 -20q-43 -62 -83 -79q-354 -137 -848 -415zM-86 122q0 99 112 90q317 -26 495 133q-43 149 -425 341q-40 68 -38 197q1 85 26 119q242 354 1030 693
q69 30 50 -49l-42 -178q-8 -32 -43 -49q-667 -331 -918 -544q373 -162 702 -461q205 -186 344 -200q113 -12 57 -188q-18 -57 -61 -57q-170 1 -448 293q-94 99 -163 152q-1 -78 -6 -114q-51 -344 -489 -343q-75 0 -119 10q-64 15 -64 155z" />
    <glyph glyph-name="uniFB96" unicode="&#x6b3;" horiz-adv-x="1347" arabic-form="isolated" 
d="M554 -72q12 17 35 10q84 -30 150 -88q17 -17 6 -37l-57 -91q49 -26 91 -62q17 -17 6 -37l-98 -155q-16 -21 -37 -4.5t-148 92.5q-21 13 -7 34l65 97q-37 23 -98 59q-21 13 -7 34zM592 1188q18 3 27 -12t4 -29l-44 -109q-14 -33 -33 -38q-49 -11 -70 -35q31 -23 93 -32
t82 -23q76 -56 -47 -227q-49 -66 -93.5 -78t-149.5 -1.5t-168 34.5q-31 13 -31 34t8.5 30.5t43 11.5t148.5 5t157 17l-59 14q-54 13 -86 48t-23 77q64 265 241 313zM1067 1814q271 156 991 349q60 15 77.5 -13.5t6.5 -56.5l-46 -102q-13 -26 -47 -36q-516 -143 -993 -348
q-72 -31 -89 20q-4 16 3.5 41t96.5 146zM1147 1902q-26 -11 -43 0q-35 22 -5 64q60 87 116 113q347 165 911 331q20 6 43.5 -16.5t-26.5 -80.5q-14 -16 -18 -20q-49 -57 -90 -69q-367 -98 -888 -322zM963 1646q29 57 69 -27t103 -137q42 -35 8 -79l-50 -66
q136 -722 134 -979q-1 -134 -62 -269q-40 -89 -284 -110q-152 -12 -381 -8.5t-356 23.5q-36 6 -37 31q-7 106 -5 211q1 39 35 29q138 -38 284 -41q570 -10 710 65q2 37 -181 1039q-4 27 -41 122q-20 51 2 94z" />
    <glyph glyph-name="uniFB97" unicode="&#x6b3;" horiz-adv-x="1685" arabic-form="final" 
d="M684 -122q12 17 35 10q84 -30 150 -88q17 -17 6 -37l-57 -91q49 -26 91 -62q17 -17 6 -37l-98 -155q-16 -21 -37 -4.5t-148 92.5q-21 13 -7 34l65 97q-37 23 -98 59q-21 13 -7 34zM902 1194q18 3 27 -12t4 -29l-44 -109q-14 -33 -33 -38q-49 -11 -70 -35q31 -23 93 -32
t82 -23q76 -56 -47 -227q-49 -66 -93.5 -78t-149.5 -1.5t-168 34.5q-31 13 -31 34t8.5 30.5t43 11.5t148.5 5t157 17l-59 14q-54 13 -86 48t-23 77q64 265 241 313zM1512 1651q271 156 991 349q60 15 77.5 -13.5t6.5 -56.5l-46 -102q-13 -26 -47 -36q-516 -143 -993 -348
q-72 -31 -89 20q-4 16 3.5 41t96.5 146zM1592 1739q-26 -11 -43 0q-35 22 -5 64q60 87 116 113q347 165 911 331q20 6 43.5 -16.5t-26.5 -80.5q-14 -16 -18 -20q-49 -57 -90 -69q-367 -98 -888 -322zM1685 -30q-221 0 -249 372q-167 -408 -750 -429q-451 -16 -532.5 206
t84.5 454q41 57 63.5 32.5t-7.5 -69.5q-82 -127 -72 -177q40 -188 430 -193q273 -4 546 106q112 45 150 109q10 17 14.5 79t-21 373.5t-26.5 321.5q-15 138 10 175l69 103q69 103 74 -43q2 -56 36 -501q32 -421 72.5 -535.5t108 -137.5t78.5 -81t-15 -111.5t-63 -53.5z" />
    <glyph glyph-name="uniFB98" unicode="&#x6b3;" horiz-adv-x="1350" arabic-form="initial" 
d="M224 -36q12 17 35 10q84 -30 150 -88q17 -17 6 -37l-57 -91q49 -26 91 -62q17 -17 6 -37l-98 -155q-16 -21 -37 -4.5t-148 92.5q-21 13 -7 34l65 97q-37 23 -98 59q-21 13 -7 34zM231 1284q-26 -11 -43 0q-35 22 -5 64q60 87 116 113q347 165 911 331q20 6 43.5 -16.5
t-26.5 -80.5q-14 -16 -18 -20q-49 -57 -90 -69q-367 -98 -888 -322zM4 215q326 -44 506 124q-183 247 -390 326q-50 19 -55 171q-5 154 71 225q311 282 1056 507q53 16 39 -35l-49 -180q-12 -45 -47 -57q-793 -277 -987 -413q428 -230 428 -530q0 -310 -209 -362
q-223 -55 -389 -24q-48 9 -56 71q-12 93 -7 111q22 75 89 66z" />
    <glyph glyph-name="uniFB99" unicode="&#x6b3;" horiz-adv-x="1206" arabic-form="medial" 
d="M237 1362q-23 -13 -41 -6q-39 16 -14 63q50 94 104 127q327 201 871 426q20 8 44.5 -12.5t-19.5 -83.5q-11 -15 -14 -20q-43 -62 -83 -79q-354 -137 -848 -415zM713 -72q12 17 35 10q84 -30 150 -88q17 -17 6 -37l-57 -91q49 -26 91 -62q17 -17 6 -37l-98 -155
q-16 -21 -37 -4.5t-148 92.5q-21 13 -7 34l65 97q-37 23 -98 59q-21 13 -7 34zM-86 122q0 99 112 90q317 -26 495 133q-43 149 -425 341q-40 68 -38 197q1 85 26 119q242 354 1030 693q69 30 50 -49l-42 -178q-8 -32 -43 -49q-667 -331 -918 -544q373 -162 702 -461
q205 -186 344 -200q113 -12 57 -188q-18 -57 -61 -57q-170 1 -448 293q-94 99 -163 152q-1 -78 -6 -114q-51 -344 -489 -343q-75 0 -119 10q-64 15 -64 155z" />
    <glyph glyph-name="uniFB9A" unicode="&#x6b1;" horiz-adv-x="1347" arabic-form="isolated" 
d="M576 1614q12 17 35 10q84 -30 150 -88q17 -17 6 -37l-98 -155q-16 -21 -35.5 -5.5t-108.5 69.5l-69 -110q-16 -21 -37 -4.5t-148 92.5q-21 13 -7 34l99 148q12 17 35 10q62 -22 114 -59zM592 1188q18 3 27 -12t4 -29l-44 -109q-14 -33 -33 -38q-49 -11 -70 -35
q31 -23 93 -32t82 -23q76 -56 -47 -227q-49 -66 -93.5 -78t-149.5 -1.5t-168 34.5q-31 13 -31 34t8.5 30.5t43 11.5t148.5 5t157 17l-59 14q-54 13 -86 48t-23 77q64 265 241 313zM1067 1814q271 156 991 349q60 15 77.5 -13.5t6.5 -56.5l-46 -102q-13 -26 -47 -36
q-516 -143 -993 -348q-72 -31 -89 20q-4 16 3.5 41t96.5 146zM1147 1902q-26 -11 -43 0q-35 22 -5 64q60 87 116 113q347 165 911 331q20 6 43.5 -16.5t-26.5 -80.5q-14 -16 -18 -20q-49 -57 -90 -69q-367 -98 -888 -322zM963 1646q29 57 69 -27t103 -137q42 -35 8 -79
l-50 -66q136 -722 134 -979q-1 -134 -62 -269q-40 -89 -284 -110q-152 -12 -381 -8.5t-356 23.5q-36 6 -37 31q-7 106 -5 211q1 39 35 29q138 -38 284 -41q570 -10 710 65q2 37 -181 1039q-4 27 -41 122q-20 51 2 94z" />
    <glyph glyph-name="uniFB9B" unicode="&#x6b1;" horiz-adv-x="1685" arabic-form="final" 
d="M886 1620q12 17 35 10q84 -30 150 -88q17 -17 6 -37l-98 -155q-16 -21 -35.5 -5.5t-108.5 69.5l-69 -110q-16 -21 -37 -4.5t-148 92.5q-21 13 -7 34l99 148q12 17 35 10q62 -22 114 -59zM902 1194q18 3 27 -12t4 -29l-44 -109q-14 -33 -33 -38q-49 -11 -70 -35
q31 -23 93 -32t82 -23q76 -56 -47 -227q-49 -66 -93.5 -78t-149.5 -1.5t-168 34.5q-31 13 -31 34t8.5 30.5t43 11.5t148.5 5t157 17l-59 14q-54 13 -86 48t-23 77q64 265 241 313zM1512 1651q271 156 991 349q60 15 77.5 -13.5t6.5 -56.5l-46 -102q-13 -26 -47 -36
q-516 -143 -993 -348q-72 -31 -89 20q-4 16 3.5 41t96.5 146zM1592 1739q-26 -11 -43 0q-35 22 -5 64q60 87 116 113q347 165 911 331q20 6 43.5 -16.5t-26.5 -80.5q-14 -16 -18 -20q-49 -57 -90 -69q-367 -98 -888 -322zM1685 -30q-221 0 -249 372q-167 -408 -750 -429
q-451 -16 -532.5 206t84.5 454q41 57 63.5 32.5t-7.5 -69.5q-82 -127 -72 -177q40 -188 430 -193q273 -4 546 106q112 45 150 109q10 17 14.5 79t-21 373.5t-26.5 321.5q-15 138 10 175l69 103q69 103 74 -43q2 -56 36 -501q32 -421 72.5 -535.5t108 -137.5t78.5 -81
t-15 -111.5t-63 -53.5z" />
    <glyph glyph-name="uniFB9C" unicode="&#x6b1;" horiz-adv-x="1350" arabic-form="initial" 
d="M331 1324q-26 -11 -43 0q-35 22 -5 64q60 87 116 113q347 165 911 331q20 6 43.5 -16.5t-26.5 -80.5q-14 -16 -18 -20q-49 -57 -90 -69q-367 -98 -888 -322zM153 1600q12 17 35 10q84 -30 150 -88q17 -17 6 -37l-98 -155q-16 -21 -35.5 -5.5t-108.5 69.5l-69 -110
q-16 -21 -37 -4.5t-148 92.5q-21 13 -7 34l99 148q12 17 35 10q62 -22 114 -59zM4 215q326 -44 506 124q-183 247 -390 326q-50 19 -55 171q-5 154 71 225q311 282 1056 507q53 16 39 -35l-49 -180q-12 -45 -47 -57q-793 -277 -987 -413q428 -230 428 -530q0 -310 -209 -362
q-223 -55 -389 -24q-48 9 -56 71q-12 93 -7 111q22 75 89 66z" />
    <glyph glyph-name="uniFB9D" unicode="&#x6b1;" horiz-adv-x="1206" arabic-form="medial" 
d="M347 1411q-23 -13 -41 -6q-39 16 -14 63q50 94 104 127q327 201 871 426q20 8 44.5 -12.5t-19.5 -83.5q-11 -15 -14 -20q-43 -62 -83 -79q-354 -137 -848 -415zM153 1624q12 17 35 10q84 -30 150 -88q17 -17 6 -37l-98 -155q-16 -21 -35.5 -5.5t-108.5 69.5l-69 -110
q-16 -21 -37 -4.5t-148 92.5q-21 13 -7 34l99 148q12 17 35 10q62 -22 114 -59zM-86 122q0 99 112 90q317 -26 495 133q-43 149 -425 341q-40 68 -38 197q1 85 26 119q242 354 1030 693q69 30 50 -49l-42 -178q-8 -32 -43 -49q-667 -331 -918 -544q373 -162 702 -461
q205 -186 344 -200q113 -12 57 -188q-18 -57 -61 -57q-170 1 -448 293q-94 99 -163 152q-1 -78 -6 -114q-51 -344 -489 -343q-75 0 -119 10q-64 15 -64 155z" />
    <glyph glyph-name="uniFB9E" unicode="&#x6ba;" horiz-adv-x="1173" arabic-form="isolated" 
d="M934 937q155 -309 108 -691q-12 -95 -66 -178q-130 -198 -417 -229q-199 -21 -315.5 89t-112.5 292q4 188 118 355q24 35 42.5 18t-1.5 -52q-110 -196 -37 -318q70 -118 292 -116q270 2 425 165q-10 181 -172 453q-22 37 -11 63l76 172q27 64 71 -23z" />
    <glyph glyph-name="uniFB9F" unicode="&#x6ba;" horiz-adv-x="1260" arabic-form="final" 
d="M1061 315q25 53 65 24q21 -16 74 -99q13 -25 60 -25t69.5 -48t-1.5 -113.5t-40.5 -74.5t-27.5 -9h-45q-13 -145 -107 -338q-167 -342 -577 -351q-178 -3 -293.5 109t-107.5 277.5t149 423.5q20 36 39 23t2 -46q-93 -181 -89 -257q14 -246 324 -248q339 -2 507 171
q27 227 -54 405q-14 31 6 75z" />
    <glyph glyph-name="uniFBA0" unicode="&#x6bb;" horiz-adv-x="1173" arabic-form="isolated" 
d="M476 1630q34 16 42 -36q34 -247 26 -373q49 48 106 90q58 42 110 22t77 -82t-55 -164q-19 -24 -137 -60t-242 -42h-4q-57 10 -101 49t-43 63q4 17 25 16q72 -7 146 -2l46 46q6 144 -34 391q-1 11 11.5 42.5t26.5 39.5zM652 1212q-30 -12 -113 -87q103 21 201 67
q-30 41 -88 20zM934 937q155 -309 108 -691q-12 -95 -66 -178q-130 -198 -417 -229q-199 -21 -315.5 89t-112.5 292q4 188 118 355q24 35 42.5 18t-1.5 -52q-110 -196 -37 -318q70 -118 292 -116q270 2 425 165q-10 181 -172 453q-22 37 -11 63l76 172q27 64 71 -23z" />
    <glyph glyph-name="uniFBA1" unicode="&#x6bb;" horiz-adv-x="1260" arabic-form="final" 
d="M606 1030q34 16 42 -36q34 -247 26 -373q49 48 106 90q58 42 110 22t77 -82t-55 -164q-19 -24 -137 -60t-242 -42h-4q-57 10 -101 49t-43 63q4 17 25 16q72 -7 146 -2l46 46q6 144 -34 391q-1 11 11.5 42.5t26.5 39.5zM782 612q-30 -12 -113 -87q103 21 201 67
q-30 41 -88 20zM1061 315q25 53 65 24q21 -16 74 -99q13 -25 60 -25t69.5 -48t-1.5 -113.5t-40.5 -74.5t-27.5 -9h-45q-13 -145 -107 -338q-167 -342 -577 -351q-178 -3 -293.5 109t-107.5 277.5t149 423.5q20 36 39 23t2 -46q-93 -181 -89 -257q14 -246 324 -248
q339 -2 507 171q27 227 -54 405q-14 31 6 75z" />
    <glyph glyph-name="uniFBA2" unicode="&#x6bb;" horiz-adv-x="390" arabic-form="initial" 
d="M101 1330q34 16 42 -36q34 -247 26 -373q49 48 106 90q58 42 110 22t77 -82t-55 -164q-19 -24 -137 -60t-242 -42h-4q-57 10 -101 49t-43 63q4 17 25 16q72 -7 146 -2l46 46q6 144 -34 391q-1 11 11.5 42.5t26.5 39.5zM277 912q-30 -12 -113 -87q103 21 201 67
q-30 41 -88 20zM105 436l58 127q31 68 54 27q100 -173 46.5 -396.5t-263.5 -223.5q-42 0 -59.5 68.5t-16.5 111t44 59.5q15 6 32 6q119 -3 173 47q-11 51 -49 92t-19 82z" />
    <glyph glyph-name="uniFBA3" unicode="&#x6bb;" horiz-adv-x="500" arabic-form="medial" 
d="M176 1300q34 16 42 -36q34 -247 26 -373q49 48 106 90q58 42 110 22t77 -82t-55 -164q-19 -24 -137 -60t-242 -42h-4q-57 10 -101 49t-43 63q4 17 25 16q72 -7 146 -2l46 46q6 144 -34 391q-1 11 11.5 42.5t26.5 39.5zM352 882q-30 -12 -113 -87q103 21 201 67
q-30 41 -88 20zM372 296q61 -77 128 -82q56 -5 66 -42q6 -26 -1.5 -86t-21 -87.5t-43.5 -28.5q-119 0 -222 130q-126 -130 -278 -130q-44 1 -55 55l-18 83q-7 34 15 69t58 38q243 18 299 120q17 31 39 31q30 0 31.5 -33.5t2.5 -36.5z" />
    <glyph glyph-name="uniFBA4" unicode="&#x6c0;" horiz-adv-x="756" arabic-form="isolated" 
d="M522 1109q-110 -22 -156 -36.5t-171 -69.5q-38 -14 -57 13q-29 46 63 109q-61 38 -71 84q-16 90 73.5 213t194.5 115q77 -6 69.5 -80.5t-29.5 -105t-32 -37.5q-30 -20 -51 10.5t-53.5 33.5t-48 -15t0.5 -34q65 -60 189 -64q20 0 61.5 10t63 9t33.5 -20q11 -20 4 -37
q-43 -89 -83 -98zM306 691q52 35 116 -3q142 -84 191 -213t15 -271q-66 -281 -291 -283q-159 -1 -200 113.5t7.5 294t138.5 298.5q3 51 23 64zM528 249q-77 120 -201 124q-54 2 -80 -44q-68 -123 107 -123q114 0 174 43z" />
    <glyph glyph-name="uniFBA5" unicode="&#x6c0;" horiz-adv-x="777" arabic-form="final" 
d="M554 1119q-110 -22 -156 -36.5t-171 -69.5q-38 -14 -57 13q-29 46 63 109q-61 38 -71 84q-16 90 73.5 213t194.5 115q77 -6 69.5 -80.5t-29.5 -105t-32 -37.5q-30 -20 -51 10.5t-53.5 33.5t-48 -15t0.5 -34q65 -60 189 -64q20 0 61.5 10t63 9t33.5 -20q11 -20 4 -37
q-43 -89 -83 -98zM480 535q-156 -49 -213 -132q-9 -13 5 -21q103 -42 229 -7q-8 65 -21 160zM531 950q47 57 57 -56l59 -490q23 -192 129 -189q48 1 67 -46q18 -51 -3.5 -124.5t-62.5 -74.5q-129 0 -182 65.5t-73 222.5q-78 -115 -109 -130t-104 -10q-97 7 -167 52
q-48 31 -40.5 88t46.5 132t65 104q100 106 247 189q-16 160 10 192z" />
    <glyph glyph-name="uniFBA6" unicode="&#x6c1;" horiz-adv-x="756" arabic-form="isolated" 
d="M306 691q52 35 116 -3q142 -84 191 -213t15 -271q-66 -281 -291 -283q-159 -1 -200 113.5t7.5 294t138.5 298.5q3 51 23 64zM528 249q-77 120 -201 124q-54 2 -80 -44q-68 -123 107 -123q114 0 174 43z" />
    <glyph glyph-name="uniFBA7" unicode="&#x6c1;" horiz-adv-x="777" arabic-form="final" 
d="M480 535q-156 -49 -213 -132q-9 -13 5 -21q103 -42 229 -7q-8 65 -21 160zM531 950q47 57 57 -56l59 -490q23 -192 129 -189q48 1 67 -46q18 -51 -3.5 -124.5t-62.5 -74.5q-129 0 -182 65.5t-73 222.5q-78 -115 -109 -130t-104 -10q-97 7 -167 52q-48 31 -40.5 88
t46.5 132t65 104q100 106 247 189q-16 160 10 192z" />
    <glyph glyph-name="uniFBA8" unicode="&#x6c1;" horiz-adv-x="926" arabic-form="initial" 
d="M493 475q7 -77 -74 -150q188 -72 293 -74q19 0 10 24q-30 93 -229 200zM332 360q68 34 68 45q-10 118 -64 128q-82 17 -143 -61q-20 -25 15 -48q56 -38 124 -64zM278 161q-173 -190 -278 -191q-40 0 -60 48q-72 182 60 198q86 10 126 32q-61 48 -28.5 148t120.5 199
q-12 6 -36 9t-31 25.5t-4 37.5q53 203 156.5 202.5t301 -188.5t218.5 -306q25 -152 -71 -262q-56 -65 -133 -57q-153 17 -341 105z" />
    <glyph glyph-name="uniFBA9" unicode="&#x6c1;" horiz-adv-x="800" arabic-form="medial" 
d="M593 745q60 -27 66 -111q18 -281 -152 -469q114 7 293 49q42 8 56 -39q24 -83 -1 -151q-25 -44 -55 -53q-76 -17 -137 -19q30 -81 20.5 -188t-63 -185.5t-138.5 -79.5q-224 -1 -276 417l-79 11l1 76q-77 -33 -130.5 -33t-73.5 95q-5 26 -11 75t50 68q17 5 36 7
q95 5 239 53q68 214 219 391q58 66 83.5 81.5t52.5 4.5zM538 436q-30 50 -76 34q-94 -35 -152 -180q178 76 228 146zM305 -88q44 -121 131.5 -157.5t161.5 9.5q-72 126 -293 148z" />
    <glyph glyph-name="uniFBAA" unicode="&#x6be;" horiz-adv-x="1246" arabic-form="isolated" 
d="M811 318q-18 -67 -57 -125q100 -12 171 -11t74 3q-53 61 -188 133zM583 224q80 36 97 61t-1 86t-38.5 61.5t-71 -43.5t-83.5 -108q15 -36 97 -57zM382 138q-12 82 12 175.5t134 216.5t189 145q83 23 121 -124q4 -10 13 -15q197 -96 268 -172q27 -30 33.5 -92.5
t-15.5 -141t-73 -129.5t-271 -41q-145 7 -247 39q-106 -60 -239 -90q-55 -13 -86 2l-105 52q-39 21 -46 47q-11 49 68 68q7 2 76 16t168 44z" />
    <glyph glyph-name="uniFBAB" unicode="&#x6be;" horiz-adv-x="1070" arabic-form="final" 
d="M397 -18q-118 -34 -172 5l-114 83q-46 33 -50 64q-5 47 59 61q13 2 29 4q275 31 337 56q84 221 241 404q54 63 81.5 80t54.5 5q57 -26 66 -109q26 -284 -164 -470q117 7 298 49q42 8 63 -39q29 -70 -1 -151q-18 -45 -48 -53q-76 -17 -144 -19q38 -81 28 -213
q-7 -82 -65 -160t-144 -80q-241 -1 -293 419l-62 9v55zM792 429q-13 20 -30.5 20t-21.5 -2q-88 -51 -130 -146q136 62 182 128zM610 -104q36 -108 100.5 -136t129.5 9q-63 86 -230 127z" />
    <glyph glyph-name="uniFBAC" unicode="&#x6be;" horiz-adv-x="926" arabic-form="initial" 
d="M79 231q-6 72 16.5 159t133 211t189.5 144q83 22 120 -125q4 -9 13 -14q197 -96 268 -172q27 -30 33.5 -92.5t-15.5 -141.5t-72.5 -129t-229.5 -42.5t-301 42.5q-106 -67 -226 -100q-52 -11 -72 55q-42 141 25 179q15 8 50 11t68 15zM283 294q80 36 97 61t-1 86
t-38.5 61.5t-71 -43.5t-83.5 -108q15 -36 97 -57zM511 388q-18 -67 -57 -125q100 -12 171 -11t74 3q-53 61 -188 133z" />
    <glyph glyph-name="uniFBAD" unicode="&#x6be;" horiz-adv-x="800" arabic-form="medial" 
d="M593 745q60 -27 66 -111q18 -281 -152 -469q114 7 293 49q42 8 56 -39q24 -83 -1 -151q-25 -44 -55 -53q-76 -17 -137 -19q30 -81 20.5 -188t-63 -185.5t-138.5 -79.5q-224 -1 -276 417l-79 11l1 76q-77 -33 -130.5 -33t-73.5 95q-5 26 -11 75t50 68q17 5 36 7
q95 5 239 53q68 214 219 391q58 66 83.5 81.5t52.5 4.5zM538 436q-30 50 -76 34q-94 -35 -152 -180q178 76 228 146zM305 -88q44 -121 131.5 -157.5t161.5 9.5q-72 126 -293 148z" />
    <glyph glyph-name="uniFBAE" unicode="&#x6d2;" horiz-adv-x="2375" arabic-form="isolated" 
d="M920 558q4 129 -18 159q-22 -6 -49 -47.5t-72 -114.5t-97.5 -126t-205 -116.5t-190.5 -99.5q28 -33 100 -41q155 -18 801 10t1014 27q28 0 43 -9q46 -26 16 -81l-44 -83q-35 -66 -89 -66q-348 1 -901.5 -23t-801.5 -22t-307 94q-28 46 -15 96q49 192 200 325
q50 42 177 92.5t174 87t86 113.5q126 248 239 229q92 -17 80 -204q-5 -79 -29 -204q-10 -53 -58 -54q-36 0 -49 37q-4 11 -4 21z" />
    <glyph glyph-name="uniFBAF" unicode="&#x6d2;" horiz-adv-x="1170" arabic-form="final" 
d="M1170 215q101 -2 75 -129q-17 -79 -35.5 -97.5t-39.5 -18.5q-534 -1 -880 -284l-2 -2q26 -33 100 -41q211 -22 912 14q30 1 47 -8q45 -23 15 -82l-44 -83q-34 -62 -89 -66q-555 -24 -803 -22t-307 94q-28 46 -15 96q46 178 199 324q320 304 867 305z" />
    <glyph glyph-name="uniFBB0" unicode="&#x6d3;" horiz-adv-x="2375" arabic-form="isolated" 
d="M750 698q89 32 31 -142q-24 -72 -80.5 -123.5t-218 -119.5t-194.5 -100q28 -33 100 -41q155 -18 801 10t1014 27q28 0 43 -9q46 -26 16 -81l-44 -83q-35 -66 -89 -66q-348 1 -901.5 -23t-801.5 -22t-307 94q-28 46 -15 96q49 192 200 325q50 42 177 92.5t168.5 82.5
t64.5 55t36 28zM612 1543q-110 -22 -156 -36.5t-171 -69.5q-38 -14 -57 13q-29 46 63 109q-61 38 -71 84q-16 90 73.5 213t194.5 115q77 -6 69.5 -80.5t-29.5 -105t-32 -37.5q-30 -20 -51 10.5t-53.5 33.5t-48 -15t0.5 -34q65 -60 189 -64q20 0 61.5 10t63 9t33.5 -20
q11 -20 4 -37q-43 -89 -83 -98zM459 1137q0 32 34 45t101 -54q10 -10 96 -106q157 -174 119 -361q-13 -60 -17 -71q-18 -39 -52 -33q-43 9 -45 83q-1 110 -189 284q-26 24 -33.5 38t-10.5 38z" />
    <glyph glyph-name="uniFBB1" unicode="&#x6d3;" horiz-adv-x="1670" arabic-form="final" 
d="M1170 215q101 -2 75 -129q-17 -79 -35.5 -97.5t-39.5 -18.5q-534 -1 -880 -284l-2 -2q26 -33 100 -41q211 -22 912 14q30 1 47 -8q45 -23 15 -82l-44 -83q-34 -62 -89 -66q-555 -24 -803 -22t-307 94q-28 46 -15 96q46 178 199 324q320 304 867 305zM1574 759
q-110 -22 -156 -36.5t-171 -69.5q-38 -14 -57 13q-29 46 63 109q-61 38 -71 84q-16 90 73.5 213t194.5 115q77 -6 69.5 -80.5t-29.5 -105t-32 -37.5q-30 -20 -51 10.5t-53.5 33.5t-48 -15t0.5 -34q65 -60 189 -64q20 0 61.5 10t63 9t33.5 -20q11 -20 4 -37q-43 -89 -83 -98z
M1542 296q61 -77 128 -82q56 -5 66 -42q6 -26 -1.5 -86t-21 -87.5t-43.5 -28.5q-119 0 -222 130q-126 -130 -278 -130q-44 1 -55 55l-18 83q-7 34 15 69t58 38q243 18 299 120q17 31 39 31q30 0 31.5 -33.5t2.5 -36.5z" />
    <glyph glyph-name="uniFBD3" unicode="&#x6ad;" horiz-adv-x="1347" arabic-form="isolated" 
d="M423 1843q12 17 35 10q84 -30 150 -88q17 -17 6 -37l-98 -155q-16 -21 -37 -4.5t-148 92.5q-21 13 -7 33zM568 1614q12 17 35 10q84 -30 150 -88q17 -17 6 -37l-98 -155q-15 -22 -34.5 -6.5t-94.5 61.5l-64 -102q-16 -21 -37 -4.5t-148 92.5q-21 13 -7 34l99 148
q24 34 135 -39zM592 1188q18 3 27 -12t4 -29l-44 -109q-14 -33 -33 -38q-49 -11 -70 -35q31 -23 93 -32t82 -23q76 -56 -47 -227q-49 -66 -93.5 -78t-149.5 -1.5t-168 34.5q-31 13 -31 34t8.5 30.5t43 11.5t148.5 5t157 17l-59 14q-54 13 -86 48t-23 77q64 265 241 313z
M963 1646q29 57 69 -27t103 -137q42 -35 8 -79l-50 -66q136 -722 134 -979q-1 -134 -62 -269q-40 -89 -284 -110q-152 -12 -381 -8.5t-356 23.5q-36 6 -37 31q-7 106 -5 211q1 39 35 29q138 -38 284 -41q570 -10 710 65q2 37 -181 1039q-4 27 -41 122q-20 51 2 94z" />
    <glyph glyph-name="uniFBD4" unicode="&#x6ad;" horiz-adv-x="1685" arabic-form="final" 
d="M733 1849q12 17 35 10q84 -30 150 -88q17 -17 6 -37l-98 -155q-16 -21 -37 -4.5t-148 92.5q-21 13 -7 33zM878 1620q12 17 35 10q84 -30 150 -88q17 -17 6 -37l-98 -155q-15 -22 -34.5 -6.5t-94.5 61.5l-64 -102q-16 -21 -37 -4.5t-148 92.5q-21 13 -7 34l99 148
q24 34 135 -39zM902 1194q18 3 27 -12t4 -29l-44 -109q-14 -33 -33 -38q-49 -11 -70 -35q31 -23 93 -32t82 -23q76 -56 -47 -227q-49 -66 -93.5 -78t-149.5 -1.5t-168 34.5q-31 13 -31 34t8.5 30.5t43 11.5t148.5 5t157 17l-59 14q-54 13 -86 48t-23 77q64 265 241 313z
M1685 -30q-221 0 -249 372q-167 -408 -750 -429q-451 -16 -532.5 206t84.5 454q41 57 63.5 32.5t-7.5 -69.5q-82 -127 -72 -177q40 -188 430 -193q273 -4 546 106q112 45 150 109q10 17 14.5 79t-21 373.5t-26.5 321.5q-15 138 10 175l69 103q69 103 74 -43q2 -56 36 -501
q32 -421 72.5 -535.5t108 -137.5t78.5 -81t-15 -111.5t-63 -53.5z" />
    <glyph glyph-name="uniFBD5" unicode="&#x6ad;" horiz-adv-x="1350" arabic-form="initial" 
d="M186 1829q12 17 35 10q84 -30 150 -88q17 -17 6 -37l-98 -155q-16 -21 -37 -4.5t-148 92.5q-21 13 -7 33zM331 1600q12 17 35 10q84 -30 150 -88q17 -17 6 -37l-98 -155q-15 -22 -34.5 -6.5t-94.5 61.5l-64 -102q-16 -21 -37 -4.5t-148 92.5q-21 13 -7 34l99 148
q24 34 135 -39zM4 215q326 -44 506 124q-183 247 -390 326q-50 19 -55 171q-5 154 71 225q311 282 1056 507q53 16 39 -35l-49 -180q-12 -45 -47 -57q-793 -277 -987 -413q428 -230 428 -530q0 -310 -209 -362q-223 -55 -389 -24q-48 9 -56 71q-12 93 -7 111q22 75 89 66z
" />
    <glyph glyph-name="uniFBD6" unicode="&#x6ad;" horiz-adv-x="1206" arabic-form="medial" 
d="M119 1853q12 17 35 10q84 -30 150 -88q17 -17 6 -37l-98 -155q-16 -21 -37 -4.5t-148 92.5q-21 13 -7 33zM264 1624q12 17 35 10q84 -30 150 -88q17 -17 6 -37l-98 -155q-15 -22 -34.5 -6.5t-94.5 61.5l-64 -102q-16 -21 -37 -4.5t-148 92.5q-21 13 -7 34l99 148
q24 34 135 -39zM-86 122q0 99 112 90q317 -26 495 133q-43 149 -425 341q-40 68 -38 197q1 85 26 119q242 354 1030 693q69 30 50 -49l-42 -178q-8 -32 -43 -49q-667 -331 -918 -544q373 -162 702 -461q205 -186 344 -200q113 -12 57 -188q-18 -57 -61 -57q-170 1 -448 293
q-94 99 -163 152q-1 -78 -6 -114q-51 -344 -489 -343q-75 0 -119 10q-64 15 -64 155z" />
    <glyph glyph-name="uniFBD7" unicode="&#x6c7;" horiz-adv-x="821" arabic-form="isolated" 
d="M502 1376q39 10 64 -23q20 -29 22 -78q1 -48 -37 -141q30 -18 44 -26q23 -14 8 -46l-25 -51q-16 -30 -89 11q-113 -145 -206 -196q-50 -26 -68 -2q-16 27 42 69q94 68 171 166q-120 65 -74 167q58 124 148 150zM482 1224q-12 18 -39 6q-17 -8 -23 -14q18 -20 66 -47
q7 35 -4 55zM531 321q-59 96 -127 9q52 -58 127 -9zM337 418q80 219 177 216q75 -2 129 -92.5t63.5 -204t-37.5 -300.5t-179 -347q-131 -158 -223 -168q-71 -8 -217 22q-140 29 -212 58q-23 9 -17 34.5t39 20.5q121 -19 293 22q81 19 245 159.5t196 228.5q-4 23 -17 60
q-87 -110 -208 -55q-136 61 -32 346z" />
    <glyph glyph-name="uniFBD8" unicode="&#x6c7;" horiz-adv-x="708" arabic-form="final" 
d="M495 1249q39 10 64 -23q20 -29 22 -78q1 -48 -37 -141q30 -18 44 -26q23 -14 8 -46l-25 -51q-16 -30 -89 11q-113 -145 -206 -196q-50 -26 -68 -2q-16 27 42 69q94 68 171 166q-120 65 -74 167q58 124 148 150zM475 1097q-12 18 -39 6q-17 -8 -23 -14q18 -20 66 -47
q7 35 -4 55zM567 206q-39 86 -98 84q-36 -5 -51 -24t-1 -37q32 -41 141 -39q13 0 9 16zM674 -31q-73 -390 -384 -529q-89 -40 -167 -40q-104 0 -276 144q-31 24 -19.5 44t50.5 5q184 -64 412 75.5t296 311.5q-156 7 -219 46q-81 50 -53 178q46 202 140 260q101 61 168 -26
q49 -64 67 -221q75 3 85 -73q6 -51 -10 -112q-16 -60 -55 -62q-17 -1 -35 -1z" />
    <glyph glyph-name="uniFBD9" unicode="&#x6c6;" horiz-adv-x="821" arabic-form="isolated" 
d="M650 1207l39 -56q18 -30 -1 -54q-99 -164 -133 -283q-2 -5 -5 -8l-19 -14q-24 -16 -46 10q-118 146 -185 311q-21 53 19.5 66.5t59.5 -33.5q25 -66 87 -174q43 134 124 232q17 19 33.5 18.5t26.5 -15.5zM531 321q-59 96 -127 9q52 -58 127 -9zM337 418q80 219 177 216
q75 -2 129 -92.5t63.5 -204t-37.5 -300.5t-179 -347q-131 -158 -223 -168q-71 -8 -217 22q-140 29 -212 58q-23 9 -17 34.5t39 20.5q121 -19 293 22q81 19 245 159.5t196 228.5q-4 23 -17 60q-87 -110 -208 -55q-136 61 -32 346z" />
    <glyph glyph-name="uniFBDA" unicode="&#x6c6;" horiz-adv-x="708" arabic-form="final" 
d="M643 1077l39 -56q18 -30 -1 -54q-99 -164 -133 -283q-2 -5 -5 -8l-19 -14q-24 -16 -46 10q-118 146 -185 311q-21 53 19.5 66.5t59.5 -33.5q25 -66 87 -174q43 134 124 232q17 19 33.5 18.5t26.5 -15.5zM567 206q-39 86 -98 84q-36 -5 -51 -24t-1 -37q32 -41 141 -39
q13 0 9 16zM674 -31q-73 -390 -384 -529q-89 -40 -167 -40q-104 0 -276 144q-31 24 -19.5 44t50.5 5q184 -64 412 75.5t296 311.5q-156 7 -219 46q-81 50 -53 178q46 202 140 260q101 61 168 -26q49 -64 67 -221q75 3 85 -73q6 -51 -10 -112q-16 -60 -55 -62q-17 -1 -35 -1z
" />
    <glyph glyph-name="uniFBDB" unicode="&#x6c8;" horiz-adv-x="821" arabic-form="isolated" 
d="M324 1299q21 55 63 4q199 -222 137 -561q-7 -30 -27 -32q-40 -6 -44 32q-27 209 -156 367q-21 27 -12 59zM531 321q-59 96 -127 9q52 -58 127 -9zM337 418q80 219 177 216q75 -2 129 -92.5t63.5 -204t-37.5 -300.5t-179 -347q-131 -158 -223 -168q-71 -8 -217 22
q-140 29 -212 58q-23 9 -17 34.5t39 20.5q121 -19 293 22q81 19 245 159.5t196 228.5q-4 23 -17 60q-87 -110 -208 -55q-136 61 -32 346z" />
    <glyph glyph-name="uniFBDC" unicode="&#x6c8;" horiz-adv-x="708" arabic-form="final" 
d="M317 1172q21 55 63 4q199 -222 137 -561q-7 -30 -27 -32q-40 -6 -44 32q-27 209 -156 367q-21 27 -12 59zM567 206q-39 86 -98 84q-36 -5 -51 -24t-1 -37q32 -41 141 -39q13 0 9 16zM674 -31q-73 -390 -384 -529q-89 -40 -167 -40q-104 0 -276 144q-31 24 -19.5 44
t50.5 5q184 -64 412 75.5t296 311.5q-156 7 -219 46q-81 50 -53 178q46 202 140 260q101 61 168 -26q49 -64 67 -221q75 3 85 -73q6 -51 -10 -112q-16 -60 -55 -62q-17 -1 -35 -1z" />
    <glyph glyph-name="uniFBDD" unicode="&#x677;" horiz-adv-x="1021" arabic-form="isolated" 
d="M808 919q-110 -22 -156 -36.5t-171 -69.5q-38 -14 -57 13q-29 46 63 109q-61 38 -71 84q-16 90 73.5 213t194.5 115q77 -6 69.5 -80.5t-29.5 -105t-32 -37.5q-30 -20 -51 10.5t-53.5 33.5t-48 -15t0.5 -34q65 -60 189 -64q20 0 61.5 10t63 9t33.5 -20q11 -20 4 -37
q-43 -89 -83 -98zM283 1376q39 10 64 -23q20 -29 22 -78q1 -48 -37 -141q30 -18 44 -26q23 -14 8 -46l-25 -51q-16 -30 -89 11q-113 -145 -206 -196q-50 -26 -68 -2q-16 27 42 69q94 68 171 166q-120 65 -74 167q58 124 148 150zM263 1224q-12 18 -39 6q-17 -8 -23 -14
q18 -20 66 -47q7 35 -4 55zM731 321q-59 96 -127 9q52 -58 127 -9zM537 418q80 219 177 216q75 -2 129 -92.5t63.5 -204t-37.5 -300.5t-179 -347q-131 -158 -223 -168q-71 -8 -217 22q-140 29 -212 58q-23 9 -17 34.5t39 20.5q121 -19 293 22q81 19 245 159.5t196 228.5
q-4 23 -17 60q-87 -110 -208 -55q-136 61 -32 346z" />
    <glyph glyph-name="uniFBDE" unicode="&#x6cb;" horiz-adv-x="821" arabic-form="isolated" 
d="M313 1303q12 17 35 10q84 -30 150 -88q17 -17 6 -37l-98 -155q-16 -21 -37 -4.5t-148 92.5q-21 13 -7 33zM458 1074q12 17 35 10q84 -30 150 -88q17 -17 6 -37l-98 -155q-15 -22 -34.5 -6.5t-94.5 61.5l-64 -102q-16 -21 -37 -4.5t-148 92.5q-21 13 -7 34l99 148
q24 34 135 -39zM531 321q-59 96 -127 9q52 -58 127 -9zM337 418q80 219 177 216q75 -2 129 -92.5t63.5 -204t-37.5 -300.5t-179 -347q-131 -158 -223 -168q-71 -8 -217 22q-140 29 -212 58q-23 9 -17 34.5t39 20.5q121 -19 293 22q81 19 245 159.5t196 228.5q-4 23 -17 60
q-87 -110 -208 -55q-136 61 -32 346z" />
    <glyph glyph-name="uniFBDF" unicode="&#x6cb;" horiz-adv-x="708" arabic-form="final" 
d="M306 1176q12 17 35 10q84 -30 150 -88q17 -17 6 -37l-98 -155q-16 -21 -37 -4.5t-148 92.5q-21 13 -7 33zM451 947q12 17 35 10q84 -30 150 -88q17 -17 6 -37l-98 -155q-15 -22 -34.5 -6.5t-94.5 61.5l-64 -102q-16 -21 -37 -4.5t-148 92.5q-21 13 -7 34l99 148
q24 34 135 -39zM567 206q-39 86 -98 84q-36 -5 -51 -24t-1 -37q32 -41 141 -39q13 0 9 16zM674 -31q-73 -390 -384 -529q-89 -40 -167 -40q-104 0 -276 144q-31 24 -19.5 44t50.5 5q184 -64 412 75.5t296 311.5q-156 7 -219 46q-81 50 -53 178q46 202 140 260
q101 61 168 -26q49 -64 67 -221q75 3 85 -73q6 -51 -10 -112q-16 -60 -55 -62q-17 -1 -35 -1z" />
    <glyph glyph-name="uniFBE0" unicode="&#x6c5;" horiz-adv-x="821" arabic-form="isolated" 
d="M358 69h514l-74 -185h-514zM531 321q-59 96 -127 9q52 -58 127 -9zM337 418q80 219 177 216q75 -2 129 -92.5t63.5 -204t-37.5 -300.5t-179 -347q-131 -158 -223 -168q-71 -8 -217 22q-140 29 -212 58q-23 9 -17 34.5t39 20.5q121 -19 293 22q81 19 245 159.5t196 228.5
q-4 23 -17 60q-87 -110 -208 -55q-136 61 -32 346z" />
    <glyph glyph-name="uniFBE1" unicode="&#x6c5;" horiz-adv-x="708" arabic-form="final" 
d="M308 -101h514l-74 -185h-514zM567 206q-39 86 -98 84q-36 -5 -51 -24t-1 -37q32 -41 141 -39q13 0 9 16zM674 -31q-73 -390 -384 -529q-89 -40 -167 -40q-104 0 -276 144q-31 24 -19.5 44t50.5 5q184 -64 412 75.5t296 311.5q-156 7 -219 46q-81 50 -53 178
q46 202 140 260q101 61 168 -26q49 -64 67 -221q75 3 85 -73q6 -51 -10 -112q-16 -60 -55 -62q-17 -1 -35 -1z" />
    <glyph glyph-name="uniFBE2" unicode="&#x6c9;" horiz-adv-x="821" arabic-form="isolated" 
d="M392 854q-11 -42 -48 -41t-39 37q0 12 5 28q49 173 150 330q21 28 45 14t26 -18q48 -116 162 -267q21 -24 6 -55l-32 -60q-9 -16 -26 -18t-35 15q-90 89 -147 217q-50 -115 -67 -182zM531 321q-59 96 -127 9q52 -58 127 -9zM337 418q80 219 177 216q75 -2 129 -92.5
t63.5 -204t-37.5 -300.5t-179 -347q-131 -158 -223 -168q-71 -8 -217 22q-140 29 -212 58q-23 9 -17 34.5t39 20.5q121 -19 293 22q81 19 245 159.5t196 228.5q-4 23 -17 60q-87 -110 -208 -55q-136 61 -32 346z" />
    <glyph glyph-name="uniFBE3" unicode="&#x6c9;" horiz-adv-x="708" arabic-form="final" 
d="M385 724q-11 -42 -48 -41t-39 37q0 12 5 28q49 173 150 330q21 28 45 14t26 -18q48 -116 162 -267q21 -24 6 -55l-32 -60q-9 -16 -26 -18t-35 15q-90 89 -147 217q-50 -115 -67 -182zM567 206q-39 86 -98 84q-36 -5 -51 -24t-1 -37q32 -41 141 -39q13 0 9 16zM674 -31
q-73 -390 -384 -529q-89 -40 -167 -40q-104 0 -276 144q-31 24 -19.5 44t50.5 5q184 -64 412 75.5t296 311.5q-156 7 -219 46q-81 50 -53 178q46 202 140 260q101 61 168 -26q49 -64 67 -221q75 3 85 -73q6 -51 -10 -112q-16 -60 -55 -62q-17 -1 -35 -1z" />
    <glyph glyph-name="uniFBE4" unicode="&#x6d0;" horiz-adv-x="1566" arabic-form="isolated" 
d="M681 -581q12 17 35 10q84 -30 150 -88q17 -17 6 -37l-57 -91q49 -26 91 -62q17 -17 6 -37l-98 -155q-16 -21 -37 -4.5t-148 92.5q-21 13 -7 34l65 97q-37 23 -98 59q-21 13 -7 34zM1361 564q-103 54 -283 -40q-146 -77 -177 -187q-4 -15 3 -32q36 -80 258.5 -91.5
t235.5 -111.5q27 -197 -83 -285q-303 -243 -686 -258q-476 -19 -508 358q-16 190 83 392q53 109 122 196q33 42 53.5 19t-12.5 -71q-180 -266 -114 -434q83 -212 394 -207q370 7 600 183q-48 17 -201 27q-199 14 -236.5 120t3.5 223q89 253 279 391q161 116 279.5 84.5
t67.5 -224.5q-22 -80 -78 -52z" />
    <glyph glyph-name="uniFBE5" unicode="&#x6d0;" horiz-adv-x="1200" arabic-form="final" 
d="M703 -869q12 17 35 10q84 -30 150 -88q17 -17 6 -37l-57 -91q49 -26 91 -62q17 -17 6 -37l-98 -155q-16 -21 -37 -4.5t-148 92.5q-21 13 -7 34l65 97q-37 23 -98 59q-21 13 -7 34zM122 -255q22 194 141 407q21 38 50 21t5 -61q-150 -278 -77 -416q104 -203 401 -190
q335 16 585 219q-48 16 -178.5 25t-151.5 17q-53 21 -70 68q-30 85 27 170q95 143 338 209q38 10 67.5 -11t19 -106.5t-33 -105t-103.5 -20.5t-88 -14q291 -14 328 -145q13 -46 -23 -129t-67 -117q-295 -298 -661 -313q-276 -11 -418 131q-118 118 -91 361z" />
    <glyph glyph-name="uniFBE6" unicode="&#x6d0;" horiz-adv-x="390" arabic-form="initial" 
d="M124 -222q12 17 35 10q84 -30 150 -88q17 -17 6 -37l-57 -91q49 -26 91 -62q17 -17 6 -37l-98 -155q-16 -21 -37 -4.5t-148 92.5q-21 13 -7 34l65 97q-37 23 -98 59q-21 13 -7 34zM105 436l58 127q31 68 54 27q100 -173 46.5 -396.5t-263.5 -223.5q-42 0 -59.5 68.5
t-16.5 111t44 59.5q15 6 32 6q119 -3 173 47q-11 51 -49 92t-19 82z" />
    <glyph glyph-name="uniFBE7" unicode="&#x6d0;" horiz-adv-x="500" arabic-form="medial" 
d="M214 -222q12 17 35 10q84 -30 150 -88q17 -17 6 -37l-57 -91q49 -26 91 -62q17 -17 6 -37l-98 -155q-16 -21 -37 -4.5t-148 92.5q-21 13 -7 34l65 97q-37 23 -98 59q-21 13 -7 34zM372 296q61 -77 128 -82q56 -5 66 -42q6 -26 -1.5 -86t-21 -87.5t-43.5 -28.5
q-119 0 -222 130q-126 -130 -278 -130q-44 1 -55 55l-18 83q-7 34 15 69t58 38q243 18 299 120q17 31 39 31q30 0 31.5 -33.5t2.5 -36.5z" />
    <glyph glyph-name="uniFBE8" unicode="&#x649;" horiz-adv-x="390" arabic-form="initial" 
d="M105 436l58 127q31 68 54 27q100 -173 46.5 -396.5t-263.5 -223.5q-42 0 -59.5 68.5t-16.5 111t44 59.5q15 6 32 6q119 -3 173 47q-11 51 -49 92t-19 82z" />
    <glyph glyph-name="uniFBE9" unicode="&#x649;" horiz-adv-x="500" arabic-form="medial" 
d="M372 296q61 -77 128 -82q56 -5 66 -42q6 -26 -1.5 -86t-21 -87.5t-43.5 -28.5q-119 0 -222 130q-126 -130 -278 -130q-44 1 -55 55l-18 83q-7 34 15 69t58 38q243 18 299 120q17 31 39 31q30 0 31.5 -33.5t2.5 -36.5z" />
    <glyph glyph-name="uniFBEA" unicode="&#xfbea;" horiz-adv-x="860" arabic-form="isolated" 
d="M162 1485q40 68 50 -14q43 -380 50.5 -697t12.5 -386q10 -160 194 -172q62 -4 72 -62q4 -23 -5 -76t-22.5 -80t-43.5 -28q-290 0 -308 277q-8 127 -16 432q-8 276 -70 592q-10 51 10 85zM799 819q-110 -22 -156 -36.5t-171 -69.5q-38 -14 -57 13q-29 46 63 109
q-61 38 -71 84q-16 90 73.5 213t194.5 115q77 -6 69.5 -80.5t-29.5 -105t-32 -37.5q-30 -20 -51 10.5t-53.5 33.5t-48 -15t0.5 -34q65 -60 189 -64q20 0 61.5 10t63 9t33.5 -20q11 -20 4 -37q-43 -89 -83 -98zM575 436l58 127q31 68 54 27q100 -173 46.5 -396.5
t-263.5 -223.5q-42 0 -59.5 68.5t-16.5 111t44 59.5q15 6 32 6q119 -3 173 47q-11 51 -49 92t-19 82z" />
    <glyph glyph-name="uniFBEB" unicode="&#xfbeb;" horiz-adv-x="970" arabic-form="final" 
d="M162 1485q40 68 50 -14q43 -380 50.5 -697t12.5 -386q10 -160 194 -172q62 -4 72 -62q4 -23 -5 -76t-22.5 -80t-43.5 -28q-290 0 -308 277q-8 127 -16 432q-8 276 -70 592q-10 51 10 85zM874 759q-110 -22 -156 -36.5t-171 -69.5q-38 -14 -57 13q-29 46 63 109
q-61 38 -71 84q-16 90 73.5 213t194.5 115q77 -6 69.5 -80.5t-29.5 -105t-32 -37.5q-30 -20 -51 10.5t-53.5 33.5t-48 -15t0.5 -34q65 -60 189 -64q20 0 61.5 10t63 9t33.5 -20q11 -20 4 -37q-43 -89 -83 -98zM842 296q61 -77 128 -82q56 -5 66 -42q6 -26 -1.5 -86
t-21 -87.5t-43.5 -28.5q-119 0 -222 130q-126 -130 -278 -130q-44 1 -55 55l-18 83q-7 34 15 69t58 38q243 18 299 120q17 31 39 31q30 0 31.5 -33.5t2.5 -36.5z" />
    <glyph glyph-name="uniFBEC" unicode="&#xfbec;" horiz-adv-x="1167" arabic-form="isolated" 
d="M480 535q-156 -49 -213 -132q-9 -13 5 -21q103 -42 229 -7q-8 65 -21 160zM531 950q47 57 57 -56l59 -490q23 -192 129 -189q48 1 67 -46q18 -51 -3.5 -124.5t-62.5 -74.5q-129 0 -182 65.5t-73 222.5q-78 -115 -109 -130t-104 -10q-97 7 -167 52q-48 31 -40.5 88
t46.5 132t65 104q100 106 247 189q-16 160 10 192zM1106 819q-110 -22 -156 -36.5t-171 -69.5q-38 -14 -57 13q-29 46 63 109q-61 38 -71 84q-16 90 73.5 213t194.5 115q77 -6 69.5 -80.5t-29.5 -105t-32 -37.5q-30 -20 -51 10.5t-53.5 33.5t-48 -15t0.5 -34q65 -60 189 -64
q20 0 61.5 10t63 9t33.5 -20q11 -20 4 -37q-43 -89 -83 -98zM882 436l58 127q31 68 54 27q100 -173 46.5 -396.5t-263.5 -223.5q-42 0 -59.5 68.5t-16.5 111t44 59.5q15 6 32 6q119 -3 173 47q-11 51 -49 92t-19 82z" />
    <glyph glyph-name="uniFBED" unicode="&#xfbed;" horiz-adv-x="1277" arabic-form="final" 
d="M480 535q-156 -49 -213 -132q-9 -13 5 -21q103 -42 229 -7q-8 65 -21 160zM531 950q47 57 57 -56l59 -490q23 -192 129 -189q48 1 67 -46q18 -51 -3.5 -124.5t-62.5 -74.5q-129 0 -182 65.5t-73 222.5q-78 -115 -109 -130t-104 -10q-97 7 -167 52q-48 31 -40.5 88
t46.5 132t65 104q100 106 247 189q-16 160 10 192zM1181 759q-110 -22 -156 -36.5t-171 -69.5q-38 -14 -57 13q-29 46 63 109q-61 38 -71 84q-16 90 73.5 213t194.5 115q77 -6 69.5 -80.5t-29.5 -105t-32 -37.5q-30 -20 -51 10.5t-53.5 33.5t-48 -15t0.5 -34q65 -60 189 -64
q20 0 61.5 10t63 9t33.5 -20q11 -20 4 -37q-43 -89 -83 -98zM1149 296q61 -77 128 -82q56 -5 66 -42q6 -26 -1.5 -86t-21 -87.5t-43.5 -28.5q-119 0 -222 130q-126 -130 -278 -130q-44 1 -55 55l-18 83q-7 34 15 69t58 38q243 18 299 120q17 31 39 31q30 0 31.5 -33.5
t2.5 -36.5z" />
    <glyph glyph-name="uniFBEE" unicode="&#xfbee;" horiz-adv-x="1098" arabic-form="isolated" 
d="M567 206q-39 86 -98 84q-36 -5 -51 -24t-1 -37q32 -41 141 -39q13 0 9 16zM674 -31q-73 -390 -384 -529q-89 -40 -167 -40q-104 0 -276 144q-31 24 -19.5 44t50.5 5q184 -64 412 75.5t296 311.5q-156 7 -219 46q-81 50 -53 178q46 202 140 260q101 61 168 -26
q49 -64 67 -221q75 3 85 -73q6 -51 -10 -112q-16 -60 -55 -62q-17 -1 -35 -1zM1037 819q-110 -22 -156 -36.5t-171 -69.5q-38 -14 -57 13q-29 46 63 109q-61 38 -71 84q-16 90 73.5 213t194.5 115q77 -6 69.5 -80.5t-29.5 -105t-32 -37.5q-30 -20 -51 10.5t-53.5 33.5
t-48 -15t0.5 -34q65 -60 189 -64q20 0 61.5 10t63 9t33.5 -20q11 -20 4 -37q-43 -89 -83 -98zM813 436l58 127q31 68 54 27q100 -173 46.5 -396.5t-263.5 -223.5q-42 0 -59.5 68.5t-16.5 111t44 59.5q15 6 32 6q119 -3 173 47q-11 51 -49 92t-19 82z" />
    <glyph glyph-name="uniFBEF" unicode="&#xfbef;" horiz-adv-x="1208" arabic-form="final" 
d="M567 206q-39 86 -98 84q-36 -5 -51 -24t-1 -37q32 -41 141 -39q13 0 9 16zM674 -31q-73 -390 -384 -529q-89 -40 -167 -40q-104 0 -276 144q-31 24 -19.5 44t50.5 5q184 -64 412 75.5t296 311.5q-156 7 -219 46q-81 50 -53 178q46 202 140 260q101 61 168 -26
q49 -64 67 -221q75 3 85 -73q6 -51 -10 -112q-16 -60 -55 -62q-17 -1 -35 -1zM1112 759q-110 -22 -156 -36.5t-171 -69.5q-38 -14 -57 13q-29 46 63 109q-61 38 -71 84q-16 90 73.5 213t194.5 115q77 -6 69.5 -80.5t-29.5 -105t-32 -37.5q-30 -20 -51 10.5t-53.5 33.5
t-48 -15t0.5 -34q65 -60 189 -64q20 0 61.5 10t63 9t33.5 -20q11 -20 4 -37q-43 -89 -83 -98zM1080 296q61 -77 128 -82q56 -5 66 -42q6 -26 -1.5 -86t-21 -87.5t-43.5 -28.5q-119 0 -222 130q-126 -130 -278 -130q-44 1 -55 55l-18 83q-7 34 15 69t58 38q243 18 299 120
q17 31 39 31q30 0 31.5 -33.5t2.5 -36.5z" />
    <glyph glyph-name="uniFBF0" unicode="&#xfbf0;" horiz-adv-x="1098" arabic-form="isolated" 
d="M495 1249q39 10 64 -23q20 -29 22 -78q1 -48 -37 -141q30 -18 44 -26q23 -14 8 -46l-25 -51q-16 -30 -89 11q-113 -145 -206 -196q-50 -26 -68 -2q-16 27 42 69q94 68 171 166q-120 65 -74 167q58 124 148 150zM475 1097q-12 18 -39 6q-17 -8 -23 -14q18 -20 66 -47
q7 35 -4 55zM567 206q-39 86 -98 84q-36 -5 -51 -24t-1 -37q32 -41 141 -39q13 0 9 16zM674 -31q-73 -390 -384 -529q-89 -40 -167 -40q-104 0 -276 144q-31 24 -19.5 44t50.5 5q184 -64 412 75.5t296 311.5q-156 7 -219 46q-81 50 -53 178q46 202 140 260q101 61 168 -26
q49 -64 67 -221q75 3 85 -73q6 -51 -10 -112q-16 -60 -55 -62q-17 -1 -35 -1zM1037 819q-110 -22 -156 -36.5t-171 -69.5q-38 -14 -57 13q-29 46 63 109q-61 38 -71 84q-16 90 73.5 213t194.5 115q77 -6 69.5 -80.5t-29.5 -105t-32 -37.5q-30 -20 -51 10.5t-53.5 33.5
t-48 -15t0.5 -34q65 -60 189 -64q20 0 61.5 10t63 9t33.5 -20q11 -20 4 -37q-43 -89 -83 -98zM813 436l58 127q31 68 54 27q100 -173 46.5 -396.5t-263.5 -223.5q-42 0 -59.5 68.5t-16.5 111t44 59.5q15 6 32 6q119 -3 173 47q-11 51 -49 92t-19 82z" />
    <glyph glyph-name="uniFBF1" unicode="&#xfbf1;" horiz-adv-x="1208" arabic-form="final" 
d="M495 1249q39 10 64 -23q20 -29 22 -78q1 -48 -37 -141q30 -18 44 -26q23 -14 8 -46l-25 -51q-16 -30 -89 11q-113 -145 -206 -196q-50 -26 -68 -2q-16 27 42 69q94 68 171 166q-120 65 -74 167q58 124 148 150zM475 1097q-12 18 -39 6q-17 -8 -23 -14q18 -20 66 -47
q7 35 -4 55zM567 206q-39 86 -98 84q-36 -5 -51 -24t-1 -37q32 -41 141 -39q13 0 9 16zM674 -31q-73 -390 -384 -529q-89 -40 -167 -40q-104 0 -276 144q-31 24 -19.5 44t50.5 5q184 -64 412 75.5t296 311.5q-156 7 -219 46q-81 50 -53 178q46 202 140 260q101 61 168 -26
q49 -64 67 -221q75 3 85 -73q6 -51 -10 -112q-16 -60 -55 -62q-17 -1 -35 -1zM1112 759q-110 -22 -156 -36.5t-171 -69.5q-38 -14 -57 13q-29 46 63 109q-61 38 -71 84q-16 90 73.5 213t194.5 115q77 -6 69.5 -80.5t-29.5 -105t-32 -37.5q-30 -20 -51 10.5t-53.5 33.5
t-48 -15t0.5 -34q65 -60 189 -64q20 0 61.5 10t63 9t33.5 -20q11 -20 4 -37q-43 -89 -83 -98zM1080 296q61 -77 128 -82q56 -5 66 -42q6 -26 -1.5 -86t-21 -87.5t-43.5 -28.5q-119 0 -222 130q-126 -130 -278 -130q-44 1 -55 55l-18 83q-7 34 15 69t58 38q243 18 299 120
q17 31 39 31q30 0 31.5 -33.5t2.5 -36.5z" />
    <glyph glyph-name="uniFBF2" unicode="&#xfbf2;" horiz-adv-x="1098" arabic-form="isolated" 
d="M643 1077l39 -56q18 -30 -1 -54q-99 -164 -133 -283q-2 -5 -5 -8l-19 -14q-24 -16 -46 10q-118 146 -185 311q-21 53 19.5 66.5t59.5 -33.5q25 -66 87 -174q43 134 124 232q17 19 33.5 18.5t26.5 -15.5zM567 206q-39 86 -98 84q-36 -5 -51 -24t-1 -37q32 -41 141 -39
q13 0 9 16zM674 -31q-73 -390 -384 -529q-89 -40 -167 -40q-104 0 -276 144q-31 24 -19.5 44t50.5 5q184 -64 412 75.5t296 311.5q-156 7 -219 46q-81 50 -53 178q46 202 140 260q101 61 168 -26q49 -64 67 -221q75 3 85 -73q6 -51 -10 -112q-16 -60 -55 -62q-17 -1 -35 -1z
M1037 819q-110 -22 -156 -36.5t-171 -69.5q-38 -14 -57 13q-29 46 63 109q-61 38 -71 84q-16 90 73.5 213t194.5 115q77 -6 69.5 -80.5t-29.5 -105t-32 -37.5q-30 -20 -51 10.5t-53.5 33.5t-48 -15t0.5 -34q65 -60 189 -64q20 0 61.5 10t63 9t33.5 -20q11 -20 4 -37
q-43 -89 -83 -98zM813 436l58 127q31 68 54 27q100 -173 46.5 -396.5t-263.5 -223.5q-42 0 -59.5 68.5t-16.5 111t44 59.5q15 6 32 6q119 -3 173 47q-11 51 -49 92t-19 82z" />
    <glyph glyph-name="uniFBF3" unicode="&#xfbf3;" horiz-adv-x="1208" arabic-form="final" 
d="M643 1077l39 -56q18 -30 -1 -54q-99 -164 -133 -283q-2 -5 -5 -8l-19 -14q-24 -16 -46 10q-118 146 -185 311q-21 53 19.5 66.5t59.5 -33.5q25 -66 87 -174q43 134 124 232q17 19 33.5 18.5t26.5 -15.5zM567 206q-39 86 -98 84q-36 -5 -51 -24t-1 -37q32 -41 141 -39
q13 0 9 16zM674 -31q-73 -390 -384 -529q-89 -40 -167 -40q-104 0 -276 144q-31 24 -19.5 44t50.5 5q184 -64 412 75.5t296 311.5q-156 7 -219 46q-81 50 -53 178q46 202 140 260q101 61 168 -26q49 -64 67 -221q75 3 85 -73q6 -51 -10 -112q-16 -60 -55 -62q-17 -1 -35 -1z
M1112 759q-110 -22 -156 -36.5t-171 -69.5q-38 -14 -57 13q-29 46 63 109q-61 38 -71 84q-16 90 73.5 213t194.5 115q77 -6 69.5 -80.5t-29.5 -105t-32 -37.5q-30 -20 -51 10.5t-53.5 33.5t-48 -15t0.5 -34q65 -60 189 -64q20 0 61.5 10t63 9t33.5 -20q11 -20 4 -37
q-43 -89 -83 -98zM1080 296q61 -77 128 -82q56 -5 66 -42q6 -26 -1.5 -86t-21 -87.5t-43.5 -28.5q-119 0 -222 130q-126 -130 -278 -130q-44 1 -55 55l-18 83q-7 34 15 69t58 38q243 18 299 120q17 31 39 31q30 0 31.5 -33.5t2.5 -36.5z" />
    <glyph glyph-name="uniFBF4" unicode="&#xfbf4;" horiz-adv-x="1098" arabic-form="isolated" 
d="M317 1172q21 55 63 4q199 -222 137 -561q-7 -30 -27 -32q-40 -6 -44 32q-27 209 -156 367q-21 27 -12 59zM567 206q-39 86 -98 84q-36 -5 -51 -24t-1 -37q32 -41 141 -39q13 0 9 16zM674 -31q-73 -390 -384 -529q-89 -40 -167 -40q-104 0 -276 144q-31 24 -19.5 44
t50.5 5q184 -64 412 75.5t296 311.5q-156 7 -219 46q-81 50 -53 178q46 202 140 260q101 61 168 -26q49 -64 67 -221q75 3 85 -73q6 -51 -10 -112q-16 -60 -55 -62q-17 -1 -35 -1zM1037 819q-110 -22 -156 -36.5t-171 -69.5q-38 -14 -57 13q-29 46 63 109q-61 38 -71 84
q-16 90 73.5 213t194.5 115q77 -6 69.5 -80.5t-29.5 -105t-32 -37.5q-30 -20 -51 10.5t-53.5 33.5t-48 -15t0.5 -34q65 -60 189 -64q20 0 61.5 10t63 9t33.5 -20q11 -20 4 -37q-43 -89 -83 -98zM813 436l58 127q31 68 54 27q100 -173 46.5 -396.5t-263.5 -223.5
q-42 0 -59.5 68.5t-16.5 111t44 59.5q15 6 32 6q119 -3 173 47q-11 51 -49 92t-19 82z" />
    <glyph glyph-name="uniFBF5" unicode="&#xfbf5;" horiz-adv-x="1208" arabic-form="final" 
d="M317 1172q21 55 63 4q199 -222 137 -561q-7 -30 -27 -32q-40 -6 -44 32q-27 209 -156 367q-21 27 -12 59zM567 206q-39 86 -98 84q-36 -5 -51 -24t-1 -37q32 -41 141 -39q13 0 9 16zM674 -31q-73 -390 -384 -529q-89 -40 -167 -40q-104 0 -276 144q-31 24 -19.5 44
t50.5 5q184 -64 412 75.5t296 311.5q-156 7 -219 46q-81 50 -53 178q46 202 140 260q101 61 168 -26q49 -64 67 -221q75 3 85 -73q6 -51 -10 -112q-16 -60 -55 -62q-17 -1 -35 -1zM1112 759q-110 -22 -156 -36.5t-171 -69.5q-38 -14 -57 13q-29 46 63 109q-61 38 -71 84
q-16 90 73.5 213t194.5 115q77 -6 69.5 -80.5t-29.5 -105t-32 -37.5q-30 -20 -51 10.5t-53.5 33.5t-48 -15t0.5 -34q65 -60 189 -64q20 0 61.5 10t63 9t33.5 -20q11 -20 4 -37q-43 -89 -83 -98zM1080 296q61 -77 128 -82q56 -5 66 -42q6 -26 -1.5 -86t-21 -87.5t-43.5 -28.5
q-119 0 -222 130q-126 -130 -278 -130q-44 1 -55 55l-18 83q-7 34 15 69t58 38q243 18 299 120q17 31 39 31q30 0 31.5 -33.5t2.5 -36.5z" />
    <glyph glyph-name="uniFBF6" unicode="&#xfbf6;" horiz-adv-x="1504" arabic-form="isolated" 
d="M682 -611q12 17 35 10q84 -30 150 -88q17 -17 6 -37l-57 -91q49 -26 91 -62q17 -17 6 -37l-98 -155q-16 -21 -37 -4.5t-148 92.5q-21 13 -7 34l65 97q-37 23 -98 59q-21 13 -7 34zM904 295q139 14 272 -2t196 -74q40 -40 31 -119q-18 -139 -60 -193.5t-115 -110.5
q-382 -291 -723 -266q-521 38 -366 634q43 166 139 289q28 34 52 14q24 -22 -6 -66q-119 -181 -112 -319q16 -294 366.5 -296t685.5 277q-88 48 -380 48q-28 0 -34.5 23t-0.5 36zM1252 1319q-110 -22 -156 -36.5t-171 -69.5q-38 -14 -57 13q-29 46 63 109q-61 38 -71 84
q-16 90 73.5 213t194.5 115q77 -6 69.5 -80.5t-29.5 -105t-32 -37.5q-30 -20 -51 10.5t-53.5 33.5t-48 -15t0.5 -34q65 -60 189 -64q20 0 61.5 10t63 9t33.5 -20q11 -20 4 -37q-43 -89 -83 -98zM1082 968q22 64 72 35q49 -30 101 -141q116 -249 47 -457q-30 -88 -86 -150
q-128 -144 -338 -152q-13 0 -23 4q-35 16 -14 59l59 120q17 17 39 20q164 22 265 127q2 92 -46.5 172.5t-109.5 127.5q-34 30 -18 78z" />
    <glyph glyph-name="uniFBF7" unicode="&#xfbf7;" horiz-adv-x="1494" arabic-form="final" 
d="M708 -863q12 17 35 10q84 -30 150 -88q17 -17 6 -37l-57 -91q49 -26 91 -62q17 -17 6 -37l-98 -155q-16 -21 -37 -4.5t-148 92.5q-21 13 -7 34l65 97q-37 23 -98 59q-21 13 -7 34zM884 -223q-178 66 -24 283q2 4 20 36q18 33 41 24q31 -12 11 -56q-20 -42 45 -75
t207.5 -53t197 -39.5t78.5 -77t16 -118t-37 -104.5q-56 -78 -259.5 -178t-462.5 -129q-469 -52 -582 271q-37 105 -6 281q32 180 157 381q23 37 56 18.5t-6 -81.5q-134 -221 -101 -359q67 -289 450 -264q299 19 630 177q-45 8 -177 18q-166 13 -254 45zM1218 819
q-110 -22 -156 -36.5t-171 -69.5q-38 -14 -57 13q-29 46 63 109q-61 38 -71 84q-16 90 73.5 213t194.5 115q77 -6 69.5 -80.5t-29.5 -105t-32 -37.5q-30 -20 -51 10.5t-53.5 33.5t-48 -15t0.5 -34q65 -60 189 -64q20 0 61.5 10t63 9t33.5 -20q11 -20 4 -37q-43 -89 -83 -98z
M1369 311q50 -83 120 -95q102 -18 81 -105t-21 -89q-20 -54 -56 -52q-146 9 -234 136q-51 74 -94 76.5t-135 -50t-102 -79.5q-39 -128 -80 -184q-18 -15 -32 -18q-23 -4 -27 38q-7 83 74 217q79 132 189 221.5t181 91t136 -107.5z" />
    <glyph glyph-name="uniFBF8" unicode="&#xfbf8;" horiz-adv-x="965" arabic-form="initial" 
d="M54 -172q12 17 35 10q84 -30 150 -88q17 -17 6 -37l-57 -91q49 -26 91 -62q17 -17 6 -37l-98 -155q-16 -21 -37 -4.5t-148 92.5q-21 13 -7 34l65 97q-37 23 -98 59q-21 13 -7 34zM412 142q-58 -106 -121 -63q-26 17 -51 34q-133 -141 -239 -143q-69 -1 -86 116
q-16 117 81 130q179 20 251 109q36 44 72 14q31 -26 52 -41q86 -73 41 -156zM769 844q-110 -22 -156 -36.5t-171 -69.5q-38 -14 -57 13q-29 46 63 109q-61 38 -71 84q-16 90 73.5 213t194.5 115q77 -6 69.5 -80.5t-29.5 -105t-32 -37.5q-30 -20 -51 10.5t-53.5 33.5t-48 -15
t0.5 -34q65 -60 189 -64q20 0 61.5 10t63 9t33.5 -20q11 -20 4 -37q-43 -89 -83 -98zM279 82q-75 53 -35 155q62 110 121 66q121 -92 253 -105q-1 16 -25 45.5t-15 57.5l47 141q37 110 83 5q44 -114 31 -251q-18 -197 -137 -217q-148 -23 -323 103z" />
    <glyph glyph-name="uniFBF9" unicode="&#xfbf9;" horiz-adv-x="1504" arabic-form="isolated" 
d="M904 295q139 14 272 -2t196 -74q40 -40 31 -119q-18 -139 -60 -193.5t-115 -110.5q-382 -291 -723 -266q-521 38 -366 634q43 166 139 289q28 34 52 14q24 -22 -6 -66q-119 -181 -112 -319q16 -294 366.5 -296t685.5 277q-88 48 -380 48q-28 0 -34.5 23t-0.5 36z
M1252 1319q-110 -22 -156 -36.5t-171 -69.5q-38 -14 -57 13q-29 46 63 109q-61 38 -71 84q-16 90 73.5 213t194.5 115q77 -6 69.5 -80.5t-29.5 -105t-32 -37.5q-30 -20 -51 10.5t-53.5 33.5t-48 -15t0.5 -34q65 -60 189 -64q20 0 61.5 10t63 9t33.5 -20q11 -20 4 -37
q-43 -89 -83 -98zM1082 968q22 64 72 35q49 -30 101 -141q116 -249 47 -457q-30 -88 -86 -150q-128 -144 -338 -152q-13 0 -23 4q-35 16 -14 59l59 120q17 17 39 20q164 22 265 127q2 92 -46.5 172.5t-109.5 127.5q-34 30 -18 78z" />
    <glyph glyph-name="uniFBFA" unicode="&#xfbfa;" horiz-adv-x="1494" arabic-form="final" 
d="M884 -223q-178 66 -24 283q2 4 20 36q18 33 41 24q31 -12 11 -56q-20 -42 45 -75t207.5 -53t197 -39.5t78.5 -77t16 -118t-37 -104.5q-56 -78 -259.5 -178t-462.5 -129q-469 -52 -582 271q-37 105 -6 281q32 180 157 381q23 37 56 18.5t-6 -81.5q-134 -221 -101 -359
q67 -289 450 -264q299 19 630 177q-45 8 -177 18q-166 13 -254 45zM1218 819q-110 -22 -156 -36.5t-171 -69.5q-38 -14 -57 13q-29 46 63 109q-61 38 -71 84q-16 90 73.5 213t194.5 115q77 -6 69.5 -80.5t-29.5 -105t-32 -37.5q-30 -20 -51 10.5t-53.5 33.5t-48 -15t0.5 -34
q65 -60 189 -64q20 0 61.5 10t63 9t33.5 -20q11 -20 4 -37q-43 -89 -83 -98zM1369 311q50 -83 120 -95q102 -18 81 -105t-21 -89q-20 -54 -56 -52q-146 9 -234 136q-51 74 -94 76.5t-135 -50t-102 -79.5q-39 -128 -80 -184q-18 -15 -32 -18q-23 -4 -27 38q-7 83 74 217
q79 132 189 221.5t181 91t136 -107.5z" />
    <glyph glyph-name="uniFBFB" unicode="&#xfbfb;" horiz-adv-x="965" arabic-form="initial" 
d="M412 142q-58 -106 -121 -63q-26 17 -51 34q-133 -141 -239 -143q-69 -1 -86 116q-16 117 81 130q179 20 251 109q36 44 72 14q31 -26 52 -41q86 -73 41 -156zM769 844q-110 -22 -156 -36.5t-171 -69.5q-38 -14 -57 13q-29 46 63 109q-61 38 -71 84q-16 90 73.5 213
t194.5 115q77 -6 69.5 -80.5t-29.5 -105t-32 -37.5q-30 -20 -51 10.5t-53.5 33.5t-48 -15t0.5 -34q65 -60 189 -64q20 0 61.5 10t63 9t33.5 -20q11 -20 4 -37q-43 -89 -83 -98zM279 82q-75 53 -35 155q62 110 121 66q121 -92 253 -105q-1 16 -25 45.5t-15 57.5l47 141
q37 110 83 5q44 -114 31 -251q-18 -197 -137 -217q-148 -23 -323 103z" />
    <glyph glyph-name="uniFBFC" unicode="&#x6cc;" horiz-adv-x="1566" arabic-form="isolated" 
d="M1361 564q-103 54 -283 -40q-146 -77 -177 -187q-4 -15 3 -32q36 -80 258.5 -91.5t235.5 -111.5q27 -197 -83 -285q-303 -243 -686 -258q-476 -19 -508 358q-16 190 83 392q53 109 122 196q33 42 53.5 19t-12.5 -71q-180 -266 -114 -434q83 -212 394 -207q370 7 600 183
q-48 17 -201 27q-199 14 -236.5 120t3.5 223q89 253 279 391q161 116 279.5 84.5t67.5 -224.5q-22 -80 -78 -52z" />
    <glyph glyph-name="uniFBFD" unicode="&#x6cc;" horiz-adv-x="1200" arabic-form="final" 
d="M122 -255q22 194 141 407q21 38 50 21t5 -61q-150 -278 -77 -416q104 -203 401 -190q335 16 585 219q-48 16 -178.5 25t-151.5 17q-53 21 -70 68q-30 85 27 170q95 143 338 209q38 10 67.5 -11t19 -106.5t-33 -105t-103.5 -20.5t-88 -14q291 -14 328 -145
q13 -46 -23 -129t-67 -117q-295 -298 -661 -313q-276 -11 -418 131q-118 118 -91 361z" />
    <glyph glyph-name="uniFBFE" unicode="&#x6cc;" horiz-adv-x="390" arabic-form="initial" 
d="M291 -223q12 17 35 10q84 -30 150 -88q17 -17 6 -37l-98 -155q-16 -21 -35.5 -5.5t-108.5 69.5l-69 -110q-16 -21 -37 -4.5t-148 92.5q-21 13 -7 34l99 148q12 17 35 10q62 -22 114 -59zM105 436l58 127q31 68 54 27q100 -173 46.5 -396.5t-263.5 -223.5
q-42 0 -59.5 68.5t-16.5 111t44 59.5q15 6 32 6q119 -3 173 47q-11 51 -49 92t-19 82z" />
    <glyph glyph-name="uniFBFF" unicode="&#x6cc;" horiz-adv-x="500" arabic-form="medial" 
d="M331 -123q12 17 35 10q84 -30 150 -88q17 -17 6 -37l-98 -155q-16 -21 -35.5 -5.5t-108.5 69.5l-69 -110q-16 -21 -37 -4.5t-148 92.5q-21 13 -7 34l99 148q12 17 35 10q62 -22 114 -59zM372 296q61 -77 128 -82q56 -5 66 -42q6 -26 -1.5 -86t-21 -87.5t-43.5 -28.5
q-119 0 -222 130q-126 -130 -278 -130q-44 1 -55 55l-18 83q-7 34 15 69t58 38q243 18 299 120q17 31 39 31q30 0 31.5 -33.5t2.5 -36.5z" />
    <glyph glyph-name="uniFC00" unicode="&#xfc00;" horiz-adv-x="1327" arabic-form="isolated" 
d="M771 -232q12 17 35 10q84 -30 150 -88q17 -17 6 -37l-98 -155q-16 -21 -37 -4.5t-148 92.5q-21 13 -7 34zM403 508q566 -28 813 6q62 4 51 -40l-34 -132q-9 -37 -53 -43q-461 -55 -725 -304q-172 -163 -178 -343q-10 -318 267.5 -413.5t969.5 -57.5q41 2 42 -30
q2 -26 -17 -35q-243 -104 -380 -145.5t-251 -39.5q-431 12 -597 178t-144 438q39 481 361 729l-381 3q-104 1 -42 91l88 130q11 17 210 8zM1036 1446q-110 -22 -156 -36.5t-171 -69.5q-38 -14 -57 13q-29 46 63 109q-61 38 -71 84q-16 90 73.5 213t194.5 115
q77 -6 69.5 -80.5t-29.5 -105t-32 -37.5q-30 -20 -51 10.5t-53.5 33.5t-48 -15t0.5 -34q65 -60 189 -64q20 0 61.5 10t63 9t33.5 -20q11 -20 4 -37q-43 -89 -83 -98zM158 462q48 59 154 118q234 133 309 208.5t112 172.5t72.5 161t97 64t105.5 -69q60 -95 49 -385
q-1 -37 -30 -51q-11 -5 -23 -4q-45 1 -54 54q-18 163 -61 195q-15 9 -29.5 -12t-51.5 -95q-101 -205 -373 -358q-9 -5 -83 -49q-98 -57 -188 7l-27 18z" />
    <glyph glyph-name="uniFC01" unicode="&#xfc01;" horiz-adv-x="1327" arabic-form="isolated" 
d="M403 508q566 -28 813 6q62 4 51 -40l-34 -132q-9 -37 -53 -43q-461 -55 -725 -304q-172 -163 -178 -343q-10 -318 267.5 -413.5t969.5 -57.5q41 2 42 -30q2 -26 -17 -35q-243 -104 -380 -145.5t-251 -39.5q-431 12 -597 178t-144 438q39 481 361 729l-381 3
q-104 1 -42 91l88 130q11 17 210 8zM1036 1446q-110 -22 -156 -36.5t-171 -69.5q-38 -14 -57 13q-29 46 63 109q-61 38 -71 84q-16 90 73.5 213t194.5 115q77 -6 69.5 -80.5t-29.5 -105t-32 -37.5q-30 -20 -51 10.5t-53.5 33.5t-48 -15t0.5 -34q65 -60 189 -64q20 0 61.5 10
t63 9t33.5 -20q11 -20 4 -37q-43 -89 -83 -98zM158 462q48 59 154 118q234 133 309 208.5t112 172.5t72.5 161t97 64t105.5 -69q60 -95 49 -385q-1 -37 -30 -51q-11 -5 -23 -4q-45 1 -54 54q-18 163 -61 195q-15 9 -29.5 -12t-51.5 -95q-101 -205 -373 -358q-9 -5 -83 -49
q-98 -57 -188 7l-27 18z" />
    <glyph glyph-name="uniFC02" unicode="&#xfc02;" horiz-adv-x="1217" arabic-form="isolated" 
d="M242 199q-46 21 -27 75q42 119 57.5 137t21.5 23q34 27 122 -2q186 -60 329 -167q53 -40 30 -108q-32 -93 -36 -104q-24 -59 -72 -55q-203 26 -377 -17q-111 -27 -143 -61q2 -31 50.5 -319t51.5 -340q8 -142 -30 -291q-11 -42 -44 -36.5t-26.5 99t-90.5 585.5
q-32 164 8 304.5t82.5 192t93.5 84.5zM1016 1150q-110 -22 -156 -36.5t-171 -69.5q-38 -14 -57 13q-29 46 63 109q-61 38 -71 84q-16 90 73.5 213t194.5 115q77 -6 69.5 -80.5t-29.5 -105t-32 -37.5q-30 -20 -51 10.5t-53.5 33.5t-48 -15t0.5 -34q65 -60 189 -64
q20 0 61.5 10t63 9t33.5 -20q11 -20 4 -37q-43 -89 -83 -98zM1124 577q-13 -45 -59.5 -105t-68.5 -67q-57 -17 -76 46q-12 45 -69 51q-125 11 -405 -151q-110 -63 -159 18q-22 40 1 64q37 38 165 119q308 197 483 195q82 -1 145.5 -49t42.5 -121z" />
    <glyph glyph-name="uniFC03" unicode="&#xfc03;" horiz-adv-x="1504" arabic-form="isolated" 
d="M904 295q139 14 272 -2t196 -74q40 -40 31 -119q-18 -139 -60 -193.5t-115 -110.5q-382 -291 -723 -266q-521 38 -366 634q43 166 139 289q28 34 52 14q24 -22 -6 -66q-119 -181 -112 -319q16 -294 366.5 -296t685.5 277q-88 48 -380 48q-28 0 -34.5 23t-0.5 36z
M1252 1319q-110 -22 -156 -36.5t-171 -69.5q-38 -14 -57 13q-29 46 63 109q-61 38 -71 84q-16 90 73.5 213t194.5 115q77 -6 69.5 -80.5t-29.5 -105t-32 -37.5q-30 -20 -51 10.5t-53.5 33.5t-48 -15t0.5 -34q65 -60 189 -64q20 0 61.5 10t63 9t33.5 -20q11 -20 4 -37
q-43 -89 -83 -98zM1082 968q22 64 72 35q49 -30 101 -141q116 -249 47 -457q-30 -88 -86 -150q-128 -144 -338 -152q-13 0 -23 4q-35 16 -14 59l59 120q17 17 39 20q164 22 265 127q2 92 -46.5 172.5t-109.5 127.5q-34 30 -18 78z" />
    <glyph glyph-name="uniFC04" unicode="&#xfc04;" horiz-adv-x="1504" arabic-form="isolated" 
d="M788 -612q12 17 35 10q84 -30 150 -88q17 -17 6 -37l-98 -155q-16 -21 -35.5 -5.5t-108.5 69.5l-69 -110q-16 -21 -37 -4.5t-148 92.5q-21 13 -7 34l99 148q12 17 35 10q62 -22 114 -59zM904 295q139 14 272 -2t196 -74q40 -40 31 -119q-18 -139 -60 -193.5t-115 -110.5
q-382 -291 -723 -266q-521 38 -366 634q43 166 139 289q28 34 52 14q24 -22 -6 -66q-119 -181 -112 -319q16 -294 366.5 -296t685.5 277q-88 48 -380 48q-28 0 -34.5 23t-0.5 36zM1252 1319q-110 -22 -156 -36.5t-171 -69.5q-38 -14 -57 13q-29 46 63 109q-61 38 -71 84
q-16 90 73.5 213t194.5 115q77 -6 69.5 -80.5t-29.5 -105t-32 -37.5q-30 -20 -51 10.5t-53.5 33.5t-48 -15t0.5 -34q65 -60 189 -64q20 0 61.5 10t63 9t33.5 -20q11 -20 4 -37q-43 -89 -83 -98zM1082 968q22 64 72 35q49 -30 101 -141q116 -249 47 -457q-30 -88 -86 -150
q-128 -144 -338 -152q-13 0 -23 4q-35 16 -14 59l59 120q17 17 39 20q164 22 265 127q2 92 -46.5 172.5t-109.5 127.5q-34 30 -18 78z" />
    <glyph glyph-name="uniFC05" unicode="&#xfc05;" horiz-adv-x="1327" arabic-form="isolated" 
d="M771 -232q12 17 35 10q84 -30 150 -88q17 -17 6 -37l-98 -155q-16 -21 -37 -4.5t-148 92.5q-21 13 -7 34zM403 508q566 -28 813 6q62 4 51 -40l-34 -132q-9 -37 -53 -43q-461 -55 -725 -304q-172 -163 -178 -343q-10 -318 267.5 -413.5t969.5 -57.5q41 2 42 -30
q2 -26 -17 -35q-243 -104 -380 -145.5t-251 -39.5q-431 12 -597 178t-144 438q39 481 361 729l-381 3q-104 1 -42 91l88 130q11 17 210 8zM1111 145q12 17 35 10q84 -30 150 -88q17 -17 6 -37l-98 -155q-16 -21 -37 -4.5t-148 92.5q-21 13 -7 34zM158 462q48 59 154 118
q234 133 309 208.5t112 172.5t72.5 161t97 64t105.5 -69q60 -95 49 -385q-1 -37 -30 -51q-11 -5 -23 -4q-45 1 -54 54q-18 163 -61 195q-15 9 -29.5 -12t-51.5 -95q-101 -205 -373 -358q-9 -5 -83 -49q-98 -57 -188 7l-27 18z" />
    <glyph glyph-name="uniFC06" unicode="&#xfc06;" horiz-adv-x="1327" arabic-form="isolated" 
d="M403 508q566 -28 813 6q62 4 51 -40l-34 -132q-9 -37 -53 -43q-461 -55 -725 -304q-172 -163 -178 -343q-10 -318 267.5 -413.5t969.5 -57.5q41 2 42 -30q2 -26 -17 -35q-243 -104 -380 -145.5t-251 -39.5q-431 12 -597 178t-144 438q39 481 361 729l-381 3
q-104 1 -42 91l88 130q11 17 210 8zM1111 145q12 17 35 10q84 -30 150 -88q17 -17 6 -37l-98 -155q-16 -21 -37 -4.5t-148 92.5q-21 13 -7 34zM158 462q48 59 154 118q234 133 309 208.5t112 172.5t72.5 161t97 64t105.5 -69q60 -95 49 -385q-1 -37 -30 -51q-11 -5 -23 -4
q-45 1 -54 54q-18 163 -61 195q-15 9 -29.5 -12t-51.5 -95q-101 -205 -373 -358q-9 -5 -83 -49q-98 -57 -188 7l-27 18z" />
    <glyph glyph-name="uniFC07" unicode="&#xfc07;" horiz-adv-x="1327" arabic-form="isolated" 
d="M281 1238q12 17 35 10q84 -30 150 -88q17 -17 6 -37l-98 -155q-16 -21 -37 -4.5t-148 92.5q-21 13 -7 34zM403 508q566 -28 813 6q62 4 51 -40l-34 -132q-9 -37 -53 -43q-461 -55 -725 -304q-172 -163 -178 -343q-10 -318 267.5 -413.5t969.5 -57.5q41 2 42 -30
q2 -26 -17 -35q-243 -104 -380 -145.5t-251 -39.5q-431 12 -597 178t-144 438q39 481 361 729l-381 3q-104 1 -42 91l88 130q11 17 210 8zM1111 145q12 17 35 10q84 -30 150 -88q17 -17 6 -37l-98 -155q-16 -21 -37 -4.5t-148 92.5q-21 13 -7 34zM158 462q48 59 154 118
q234 133 309 208.5t112 172.5t72.5 161t97 64t105.5 -69q60 -95 49 -385q-1 -37 -30 -51q-11 -5 -23 -4q-45 1 -54 54q-18 163 -61 195q-15 9 -29.5 -12t-51.5 -95q-101 -205 -373 -358q-9 -5 -83 -49q-98 -57 -188 7l-27 18z" />
    <glyph glyph-name="uniFC08" unicode="&#xfc08;" horiz-adv-x="1217" arabic-form="isolated" 
d="M242 199q-46 21 -27 75q42 119 57.5 137t21.5 23q34 27 122 -2q186 -60 329 -167q53 -40 30 -108q-32 -93 -36 -104q-24 -59 -72 -55q-203 26 -377 -17q-111 -27 -143 -61q2 -31 50.5 -319t51.5 -340q8 -142 -30 -291q-11 -42 -44 -36.5t-26.5 99t-90.5 585.5
q-32 164 8 304.5t82.5 192t93.5 84.5zM973 -219q12 17 35 10q84 -30 150 -88q17 -17 6 -37l-98 -155q-16 -21 -37 -4.5t-148 92.5q-21 13 -7 34zM1124 577q-13 -45 -59.5 -105t-68.5 -67q-57 -17 -76 46q-12 45 -69 51q-125 11 -405 -151q-110 -63 -159 18q-22 40 1 64
q37 38 165 119q308 197 483 195q82 -1 145.5 -49t42.5 -121z" />
    <glyph glyph-name="uniFC09" unicode="&#xfc09;" horiz-adv-x="1504" arabic-form="isolated" 
d="M904 295q139 14 272 -2t196 -74q40 -40 31 -119q-18 -139 -60 -193.5t-115 -110.5q-382 -291 -723 -266q-521 38 -366 634q43 166 139 289q28 34 52 14q24 -22 -6 -66q-119 -181 -112 -319q16 -294 366.5 -296t685.5 277q-88 48 -380 48q-28 0 -34.5 23t-0.5 36z
M1272 -462q12 17 35 10q84 -30 150 -88q17 -17 6 -37l-98 -155q-16 -21 -37 -4.5t-148 92.5q-21 13 -7 34zM1082 968q22 64 72 35q49 -30 101 -141q116 -249 47 -457q-30 -88 -86 -150q-128 -144 -338 -152q-13 0 -23 4q-35 16 -14 59l59 120q17 17 39 20q164 22 265 127
q2 92 -46.5 172.5t-109.5 127.5q-34 30 -18 78z" />
    <glyph glyph-name="uniFC0A" unicode="&#xfc0a;" horiz-adv-x="1504" arabic-form="isolated" 
d="M788 -612q12 17 35 10q84 -30 150 -88q17 -17 6 -37l-98 -155q-16 -21 -35.5 -5.5t-108.5 69.5l-69 -110q-16 -21 -37 -4.5t-148 92.5q-21 13 -7 34l99 148q12 17 35 10q62 -22 114 -59zM904 295q139 14 272 -2t196 -74q40 -40 31 -119q-18 -139 -60 -193.5t-115 -110.5
q-382 -291 -723 -266q-521 38 -366 634q43 166 139 289q28 34 52 14q24 -22 -6 -66q-119 -181 -112 -319q16 -294 366.5 -296t685.5 277q-88 48 -380 48q-28 0 -34.5 23t-0.5 36zM1272 -462q12 17 35 10q84 -30 150 -88q17 -17 6 -37l-98 -155q-16 -21 -37 -4.5t-148 92.5
q-21 13 -7 34zM1082 968q22 64 72 35q49 -30 101 -141q116 -249 47 -457q-30 -88 -86 -150q-128 -144 -338 -152q-13 0 -23 4q-35 16 -14 59l59 120q17 17 39 20q164 22 265 127q2 92 -46.5 172.5t-109.5 127.5q-34 30 -18 78z" />
    <glyph glyph-name="uniFC0B" unicode="&#xfc0b;" horiz-adv-x="1327" arabic-form="isolated" 
d="M771 -232q12 17 35 10q84 -30 150 -88q17 -17 6 -37l-98 -155q-16 -21 -37 -4.5t-148 92.5q-21 13 -7 34zM403 508q566 -28 813 6q62 4 51 -40l-34 -132q-9 -37 -53 -43q-461 -55 -725 -304q-172 -163 -178 -343q-10 -318 267.5 -413.5t969.5 -57.5q41 2 42 -30
q2 -26 -17 -35q-243 -104 -380 -145.5t-251 -39.5q-431 12 -597 178t-144 438q39 481 361 729l-381 3q-104 1 -42 91l88 130q11 17 210 8zM938 1601q12 17 35 10q84 -30 150 -88q17 -17 6 -37l-98 -155q-16 -21 -35.5 -5.5t-108.5 69.5l-69 -110q-16 -21 -37 -4.5t-148 92.5
q-21 13 -7 34l99 148q12 17 35 10q62 -22 114 -59zM158 462q48 59 154 118q234 133 309 208.5t112 172.5t72.5 161t97 64t105.5 -69q60 -95 49 -385q-1 -37 -30 -51q-11 -5 -23 -4q-45 1 -54 54q-18 163 -61 195q-15 9 -29.5 -12t-51.5 -95q-101 -205 -373 -358
q-9 -5 -83 -49q-98 -57 -188 7l-27 18z" />
    <glyph glyph-name="uniFC0C" unicode="&#xfc0c;" horiz-adv-x="1327" arabic-form="isolated" 
d="M403 508q566 -28 813 6q62 4 51 -40l-34 -132q-9 -37 -53 -43q-461 -55 -725 -304q-172 -163 -178 -343q-10 -318 267.5 -413.5t969.5 -57.5q41 2 42 -30q2 -26 -17 -35q-243 -104 -380 -145.5t-251 -39.5q-431 12 -597 178t-144 438q39 481 361 729l-381 3
q-104 1 -42 91l88 130q11 17 210 8zM938 1601q12 17 35 10q84 -30 150 -88q17 -17 6 -37l-98 -155q-16 -21 -35.5 -5.5t-108.5 69.5l-69 -110q-16 -21 -37 -4.5t-148 92.5q-21 13 -7 34l99 148q12 17 35 10q62 -22 114 -59zM158 462q48 59 154 118q234 133 309 208.5
t112 172.5t72.5 161t97 64t105.5 -69q60 -95 49 -385q-1 -37 -30 -51q-11 -5 -23 -4q-45 1 -54 54q-18 163 -61 195q-15 9 -29.5 -12t-51.5 -95q-101 -205 -373 -358q-9 -5 -83 -49q-98 -57 -188 7l-27 18z" />
    <glyph glyph-name="uniFC0D" unicode="&#xfc0d;" horiz-adv-x="1327" arabic-form="isolated" 
d="M281 1238q12 17 35 10q84 -30 150 -88q17 -17 6 -37l-98 -155q-16 -21 -37 -4.5t-148 92.5q-21 13 -7 34zM403 508q566 -28 813 6q62 4 51 -40l-34 -132q-9 -37 -53 -43q-461 -55 -725 -304q-172 -163 -178 -343q-10 -318 267.5 -413.5t969.5 -57.5q41 2 42 -30
q2 -26 -17 -35q-243 -104 -380 -145.5t-251 -39.5q-431 12 -597 178t-144 438q39 481 361 729l-381 3q-104 1 -42 91l88 130q11 17 210 8zM938 1601q12 17 35 10q84 -30 150 -88q17 -17 6 -37l-98 -155q-16 -21 -35.5 -5.5t-108.5 69.5l-69 -110q-16 -21 -37 -4.5t-148 92.5
q-21 13 -7 34l99 148q12 17 35 10q62 -22 114 -59zM158 462q48 59 154 118q234 133 309 208.5t112 172.5t72.5 161t97 64t105.5 -69q60 -95 49 -385q-1 -37 -30 -51q-11 -5 -23 -4q-45 1 -54 54q-18 163 -61 195q-15 9 -29.5 -12t-51.5 -95q-101 -205 -373 -358
q-9 -5 -83 -49q-98 -57 -188 7l-27 18z" />
    <glyph glyph-name="uniFC0E" unicode="&#xfc0e;" horiz-adv-x="1217" arabic-form="isolated" 
d="M242 199q-46 21 -27 75q42 119 57.5 137t21.5 23q34 27 122 -2q186 -60 329 -167q53 -40 30 -108q-32 -93 -36 -104q-24 -59 -72 -55q-203 26 -377 -17q-111 -27 -143 -61q2 -31 50.5 -319t51.5 -340q8 -142 -30 -291q-11 -42 -44 -36.5t-26.5 99t-90.5 585.5
q-32 164 8 304.5t82.5 192t93.5 84.5zM918 1305q12 17 35 10q84 -30 150 -88q17 -17 6 -37l-98 -155q-16 -21 -35.5 -5.5t-108.5 69.5l-69 -110q-16 -21 -37 -4.5t-148 92.5q-21 13 -7 34l99 148q12 17 35 10q62 -22 114 -59zM1124 577q-13 -45 -59.5 -105t-68.5 -67
q-57 -17 -76 46q-12 45 -69 51q-125 11 -405 -151q-110 -63 -159 18q-22 40 1 64q37 38 165 119q308 197 483 195q82 -1 145.5 -49t42.5 -121z" />
    <glyph glyph-name="uniFC0F" unicode="&#xfc0f;" horiz-adv-x="1504" arabic-form="isolated" 
d="M904 295q139 14 272 -2t196 -74q40 -40 31 -119q-18 -139 -60 -193.5t-115 -110.5q-382 -291 -723 -266q-521 38 -366 634q43 166 139 289q28 34 52 14q24 -22 -6 -66q-119 -181 -112 -319q16 -294 366.5 -296t685.5 277q-88 48 -380 48q-28 0 -34.5 23t-0.5 36z
M1115 1474q12 17 35 10q84 -30 150 -88q17 -17 6 -37l-98 -155q-16 -21 -35.5 -5.5t-108.5 69.5l-69 -110q-16 -21 -37 -4.5t-148 92.5q-21 13 -7 34l99 148q12 17 35 10q62 -22 114 -59zM1082 968q22 64 72 35q49 -30 101 -141q116 -249 47 -457q-30 -88 -86 -150
q-128 -144 -338 -152q-13 0 -23 4q-35 16 -14 59l59 120q17 17 39 20q164 22 265 127q2 92 -46.5 172.5t-109.5 127.5q-34 30 -18 78z" />
    <glyph glyph-name="uniFC10" unicode="&#xfc10;" horiz-adv-x="1504" arabic-form="isolated" 
d="M788 -612q12 17 35 10q84 -30 150 -88q17 -17 6 -37l-98 -155q-16 -21 -35.5 -5.5t-108.5 69.5l-69 -110q-16 -21 -37 -4.5t-148 92.5q-21 13 -7 34l99 148q12 17 35 10q62 -22 114 -59zM904 295q139 14 272 -2t196 -74q40 -40 31 -119q-18 -139 -60 -193.5t-115 -110.5
q-382 -291 -723 -266q-521 38 -366 634q43 166 139 289q28 34 52 14q24 -22 -6 -66q-119 -181 -112 -319q16 -294 366.5 -296t685.5 277q-88 48 -380 48q-28 0 -34.5 23t-0.5 36zM1115 1474q12 17 35 10q84 -30 150 -88q17 -17 6 -37l-98 -155q-16 -21 -35.5 -5.5
t-108.5 69.5l-69 -110q-16 -21 -37 -4.5t-148 92.5q-21 13 -7 34l99 148q12 17 35 10q62 -22 114 -59zM1082 968q22 64 72 35q49 -30 101 -141q116 -249 47 -457q-30 -88 -86 -150q-128 -144 -338 -152q-13 0 -23 4q-35 16 -14 59l59 120q17 17 39 20q164 22 265 127
q2 92 -46.5 172.5t-109.5 127.5q-34 30 -18 78z" />
    <glyph glyph-name="uniFC11" unicode="&#xfc11;" horiz-adv-x="1327" arabic-form="isolated" 
d="M771 -232q12 17 35 10q84 -30 150 -88q17 -17 6 -37l-98 -155q-16 -21 -37 -4.5t-148 92.5q-21 13 -7 34zM403 508q566 -28 813 6q62 4 51 -40l-34 -132q-9 -37 -53 -43q-461 -55 -725 -304q-172 -163 -178 -343q-10 -318 267.5 -413.5t969.5 -57.5q41 2 42 -30
q2 -26 -17 -35q-243 -104 -380 -145.5t-251 -39.5q-431 12 -597 178t-144 438q39 481 361 729l-381 3q-104 1 -42 91l88 130q11 17 210 8zM785 1830q12 17 35 10q84 -30 150 -88q17 -17 6 -37l-98 -155q-16 -21 -37 -4.5t-148 92.5q-21 13 -7 33zM930 1601q12 17 35 10
q84 -30 150 -88q17 -17 6 -37l-98 -155q-15 -22 -34.5 -6.5t-94.5 61.5l-64 -102q-16 -21 -37 -4.5t-148 92.5q-21 13 -7 34l99 148q24 34 135 -39zM158 462q48 59 154 118q234 133 309 208.5t112 172.5t72.5 161t97 64t105.5 -69q60 -95 49 -385q-1 -37 -30 -51
q-11 -5 -23 -4q-45 1 -54 54q-18 163 -61 195q-15 9 -29.5 -12t-51.5 -95q-101 -205 -373 -358q-9 -5 -83 -49q-98 -57 -188 7l-27 18z" />
    <glyph glyph-name="uniFC12" unicode="&#xfc12;" horiz-adv-x="1217" arabic-form="isolated" 
d="M242 199q-46 21 -27 75q42 119 57.5 137t21.5 23q34 27 122 -2q186 -60 329 -167q53 -40 30 -108q-32 -93 -36 -104q-24 -59 -72 -55q-203 26 -377 -17q-111 -27 -143 -61q2 -31 50.5 -319t51.5 -340q8 -142 -30 -291q-11 -42 -44 -36.5t-26.5 99t-90.5 585.5
q-32 164 8 304.5t82.5 192t93.5 84.5zM765 1534q12 17 35 10q84 -30 150 -88q17 -17 6 -37l-98 -155q-16 -21 -37 -4.5t-148 92.5q-21 13 -7 33zM910 1305q12 17 35 10q84 -30 150 -88q17 -17 6 -37l-98 -155q-15 -22 -34.5 -6.5t-94.5 61.5l-64 -102q-16 -21 -37 -4.5
t-148 92.5q-21 13 -7 34l99 148q24 34 135 -39zM1124 577q-13 -45 -59.5 -105t-68.5 -67q-57 -17 -76 46q-12 45 -69 51q-125 11 -405 -151q-110 -63 -159 18q-22 40 1 64q37 38 165 119q308 197 483 195q82 -1 145.5 -49t42.5 -121z" />
    <glyph glyph-name="uniFC13" unicode="&#xfc13;" horiz-adv-x="1504" arabic-form="isolated" 
d="M904 295q139 14 272 -2t196 -74q40 -40 31 -119q-18 -139 -60 -193.5t-115 -110.5q-382 -291 -723 -266q-521 38 -366 634q43 166 139 289q28 34 52 14q24 -22 -6 -66q-119 -181 -112 -319q16 -294 366.5 -296t685.5 277q-88 48 -380 48q-28 0 -34.5 23t-0.5 36z
M962 1703q12 17 35 10q84 -30 150 -88q17 -17 6 -37l-98 -155q-16 -21 -37 -4.5t-148 92.5q-21 13 -7 33zM1107 1474q12 17 35 10q84 -30 150 -88q17 -17 6 -37l-98 -155q-15 -22 -34.5 -6.5t-94.5 61.5l-64 -102q-16 -21 -37 -4.5t-148 92.5q-21 13 -7 34l99 148
q24 34 135 -39zM1082 968q22 64 72 35q49 -30 101 -141q116 -249 47 -457q-30 -88 -86 -150q-128 -144 -338 -152q-13 0 -23 4q-35 16 -14 59l59 120q17 17 39 20q164 22 265 127q2 92 -46.5 172.5t-109.5 127.5q-34 30 -18 78z" />
    <glyph glyph-name="uniFC14" unicode="&#xfc14;" horiz-adv-x="1504" arabic-form="isolated" 
d="M788 -612q12 17 35 10q84 -30 150 -88q17 -17 6 -37l-98 -155q-16 -21 -35.5 -5.5t-108.5 69.5l-69 -110q-16 -21 -37 -4.5t-148 92.5q-21 13 -7 34l99 148q12 17 35 10q62 -22 114 -59zM904 295q139 14 272 -2t196 -74q40 -40 31 -119q-18 -139 -60 -193.5t-115 -110.5
q-382 -291 -723 -266q-521 38 -366 634q43 166 139 289q28 34 52 14q24 -22 -6 -66q-119 -181 -112 -319q16 -294 366.5 -296t685.5 277q-88 48 -380 48q-28 0 -34.5 23t-0.5 36zM962 1703q12 17 35 10q84 -30 150 -88q17 -17 6 -37l-98 -155q-16 -21 -37 -4.5t-148 92.5
q-21 13 -7 33zM1107 1474q12 17 35 10q84 -30 150 -88q17 -17 6 -37l-98 -155q-15 -22 -34.5 -6.5t-94.5 61.5l-64 -102q-16 -21 -37 -4.5t-148 92.5q-21 13 -7 34l99 148q24 34 135 -39zM1082 968q22 64 72 35q49 -30 101 -141q116 -249 47 -457q-30 -88 -86 -150
q-128 -144 -338 -152q-13 0 -23 4q-35 16 -14 59l59 120q17 17 39 20q164 22 265 127q2 92 -46.5 172.5t-109.5 127.5q-34 30 -18 78z" />
    <glyph glyph-name="uniFC15" unicode="&#xfc15;" horiz-adv-x="1711" arabic-form="isolated" 
d="M403 508q566 -28 813 6q62 4 51 -40l-34 -132q-9 -37 -53 -43q-461 -55 -725 -304q-172 -163 -178 -343q-10 -318 267.5 -413.5t969.5 -57.5q41 2 42 -30q2 -26 -17 -35q-243 -104 -380 -145.5t-251 -39.5q-431 12 -597 178t-144 438q39 481 361 729l-381 3
q-104 1 -42 91l88 130q11 17 210 8zM1434 8q12 17 35 10q84 -30 150 -88q17 -17 6 -37l-98 -155q-16 -21 -37 -4.5t-148 92.5q-21 13 -7 34zM499 990q42 195 214 211q91 7 274 -99q246 -139 558 -164q37 -4 53 -29t-2 -64l-40 -85q-23 -53 -79 -43q-140 30 -361 21
t-574 -175q-194 -92 -308 -226h-152l19 42q30 69 66 131q294 234 758 377q-135 65 -206.5 79.5t-151.5 -20.5q-21 -8 -36 -6q-39 5 -32 50z" />
    <glyph glyph-name="uniFC16" unicode="&#xfc16;" horiz-adv-x="2413" arabic-form="isolated" 
d="M558 436q177 -209 512 -221q100 -4 79.5 -124t-79.5 -121q-180 -2 -325 67q-1 -195 -89 -266q-41 -32 -80 2q-119 107 -147 311q-113 -16 -200 -106q-10 -42 20 -244q111 -738 84 -860q-18 -78 -60 -78q-44 1 -46 91q-4 143 -76 577t4 624t301 291q44 126 102 57z
M1634 -74q12 17 35 10q84 -30 150 -88q17 -17 6 -37l-98 -155q-16 -21 -37 -4.5t-148 92.5q-21 13 -7 34zM1083 455q19 72 93 143t146 72t337 -109.5t588 -96.5q60 3 22 -80l-57 -126q-17 -38 -42 -35q-236 39 -442.5 -25.5t-370.5 -146t-287 -81.5q-33 1 -49 39
q-27 73 -12 129t31 65.5t27 11.5q316 19 530 119q-293 131 -473 75q-57 -20 -41 46z" />
    <glyph glyph-name="uniFC17" unicode="&#xfc17;" horiz-adv-x="1711" arabic-form="isolated" 
d="M771 -232q12 17 35 10q84 -30 150 -88q17 -17 6 -37l-98 -155q-16 -21 -37 -4.5t-148 92.5q-21 13 -7 34zM403 508q566 -28 813 6q62 4 51 -40l-34 -132q-9 -37 -53 -43q-461 -55 -725 -304q-172 -163 -178 -343q-10 -318 267.5 -413.5t969.5 -57.5q41 2 42 -30
q2 -26 -17 -35q-243 -104 -380 -145.5t-251 -39.5q-431 12 -597 178t-144 438q39 481 361 729l-381 3q-104 1 -42 91l88 130q11 17 210 8zM499 990q42 195 214 211q91 7 274 -99q246 -139 558 -164q37 -4 53 -29t-2 -64l-40 -85q-23 -53 -79 -43q-140 30 -361 21t-574 -175
q-194 -92 -308 -226h-152l19 42q30 69 66 131q294 234 758 377q-135 65 -206.5 79.5t-151.5 -20.5q-21 -8 -36 -6q-39 5 -32 50z" />
    <glyph glyph-name="uniFC18" unicode="&#xfc18;" horiz-adv-x="2413" arabic-form="isolated" 
d="M558 436q177 -209 512 -221q100 -4 79.5 -124t-79.5 -121q-180 -2 -325 67q-1 -195 -89 -266q-41 -32 -80 2q-119 107 -147 311q-113 -16 -200 -106q-10 -42 20 -244q111 -738 84 -860q-18 -78 -60 -78q-44 1 -46 91q-4 143 -76 577t4 624t301 291q44 126 102 57z
M1083 455q19 72 93 143t146 72t337 -109.5t588 -96.5q60 3 22 -80l-57 -126q-17 -38 -42 -35q-236 39 -442.5 -25.5t-370.5 -146t-287 -81.5q-33 1 -49 39q-27 73 -12 129t31 65.5t27 11.5q316 19 530 119q-293 131 -473 75q-57 -20 -41 46z" />
    <glyph glyph-name="uniFC19" unicode="&#xfc19;" horiz-adv-x="1711" arabic-form="isolated" 
d="M771 -232q12 17 35 10q84 -30 150 -88q17 -17 6 -37l-98 -155q-16 -21 -37 -4.5t-148 92.5q-21 13 -7 34zM403 508q566 -28 813 6q62 4 51 -40l-34 -132q-9 -37 -53 -43q-461 -55 -725 -304q-172 -163 -178 -343q-10 -318 267.5 -413.5t969.5 -57.5q41 2 42 -30
q2 -26 -17 -35q-243 -104 -380 -145.5t-251 -39.5q-431 12 -597 178t-144 438q39 481 361 729l-381 3q-104 1 -42 91l88 130q11 17 210 8zM1434 1467q12 17 35 10q84 -30 150 -88q17 -17 6 -37l-98 -155q-16 -21 -37 -4.5t-148 92.5q-21 13 -7 34zM499 990q42 195 214 211
q91 7 274 -99q246 -139 558 -164q37 -4 53 -29t-2 -64l-40 -85q-23 -53 -79 -43q-140 30 -361 21t-574 -175q-194 -92 -308 -226h-152l19 42q30 69 66 131q294 234 758 377q-135 65 -206.5 79.5t-151.5 -20.5q-21 -8 -36 -6q-39 5 -32 50z" />
    <glyph glyph-name="uniFC1A" unicode="&#xfc1a;" horiz-adv-x="1711" arabic-form="isolated" 
d="M403 508q566 -28 813 6q62 4 51 -40l-34 -132q-9 -37 -53 -43q-461 -55 -725 -304q-172 -163 -178 -343q-10 -318 267.5 -413.5t969.5 -57.5q41 2 42 -30q2 -26 -17 -35q-243 -104 -380 -145.5t-251 -39.5q-431 12 -597 178t-144 438q39 481 361 729l-381 3
q-104 1 -42 91l88 130q11 17 210 8zM1434 1467q12 17 35 10q84 -30 150 -88q17 -17 6 -37l-98 -155q-16 -21 -37 -4.5t-148 92.5q-21 13 -7 34zM499 990q42 195 214 211q91 7 274 -99q246 -139 558 -164q37 -4 53 -29t-2 -64l-40 -85q-23 -53 -79 -43q-140 30 -361 21
t-574 -175q-194 -92 -308 -226h-152l19 42q30 69 66 131q294 234 758 377q-135 65 -206.5 79.5t-151.5 -20.5q-21 -8 -36 -6q-39 5 -32 50z" />
    <glyph glyph-name="uniFC1B" unicode="&#xfc1b;" horiz-adv-x="2413" arabic-form="isolated" 
d="M558 436q177 -209 512 -221q100 -4 79.5 -124t-79.5 -121q-180 -2 -325 67q-1 -195 -89 -266q-41 -32 -80 2q-119 107 -147 311q-113 -16 -200 -106q-10 -42 20 -244q111 -738 84 -860q-18 -78 -60 -78q-44 1 -46 91q-4 143 -76 577t4 624t301 291q44 126 102 57z
M1634 1078q12 17 35 10q84 -30 150 -88q17 -17 6 -37l-98 -155q-16 -21 -37 -4.5t-148 92.5q-21 13 -7 34zM1083 455q19 72 93 143t146 72t337 -109.5t588 -96.5q60 3 22 -80l-57 -126q-17 -38 -42 -35q-236 39 -442.5 -25.5t-370.5 -146t-287 -81.5q-33 1 -49 39
q-27 73 -12 129t31 65.5t27 11.5q316 19 530 119q-293 131 -473 75q-57 -20 -41 46z" />
    <glyph glyph-name="uniFC1C" unicode="&#xfc1c;" horiz-adv-x="1589" arabic-form="isolated" 
d="M771 -232q12 17 35 10q84 -30 150 -88q17 -17 6 -37l-98 -155q-16 -21 -37 -4.5t-148 92.5q-21 13 -7 34zM403 508q566 -28 813 6q62 4 51 -40l-34 -132q-9 -37 -53 -43q-461 -55 -725 -304q-172 -163 -178 -343q-10 -318 267.5 -413.5t969.5 -57.5q41 2 42 -30
q2 -26 -17 -35q-243 -104 -380 -145.5t-251 -39.5q-431 12 -597 178t-144 438q39 481 361 729l-381 3q-104 1 -42 91l88 130q11 17 210 8zM1365 1066q25 68 61 16.5t41 -122.5q12 -189 -114 -318q-37 -36 -85 -31q-110 11 -175 104q-94 -151 -212 -156q-152 -6 -246 203
q-28 58 -50 7q-116 -278 -386 -417q-45 -23 -67 -12q-46 23 -8 99q5 10 21.5 44t41.5 43q224 74 353 343q43 82 73 109q43 39 77 -22q100 -151 211 -151q146 0 244 227q15 34 42 21t10 -54.5t-18 -57.5q8 -91 181 -89q-14 21 -33.5 36.5t-4.5 58.5z" />
    <glyph glyph-name="uniFC1D" unicode="&#xfc1d;" horiz-adv-x="1589" arabic-form="isolated" 
d="M403 508q566 -28 813 6q62 4 51 -40l-34 -132q-9 -37 -53 -43q-461 -55 -725 -304q-172 -163 -178 -343q-10 -318 267.5 -413.5t969.5 -57.5q41 2 42 -30q2 -26 -17 -35q-243 -104 -380 -145.5t-251 -39.5q-431 12 -597 178t-144 438q39 481 361 729l-381 3
q-104 1 -42 91l88 130q11 17 210 8zM1365 1066q25 68 61 16.5t41 -122.5q12 -189 -114 -318q-37 -36 -85 -31q-110 11 -175 104q-94 -151 -212 -156q-152 -6 -246 203q-28 58 -50 7q-116 -278 -386 -417q-45 -23 -67 -12q-46 23 -8 99q5 10 21.5 44t41.5 43q224 74 353 343
q43 82 73 109q43 39 77 -22q100 -151 211 -151q146 0 244 227q15 34 42 21t10 -54.5t-18 -57.5q8 -91 181 -89q-14 21 -33.5 36.5t-4.5 58.5z" />
    <glyph glyph-name="uniFC1E" unicode="&#xfc1e;" horiz-adv-x="1589" arabic-form="isolated" 
d="M281 1238q12 17 35 10q84 -30 150 -88q17 -17 6 -37l-98 -155q-16 -21 -37 -4.5t-148 92.5q-21 13 -7 34zM403 508q566 -28 813 6q62 4 51 -40l-34 -132q-9 -37 -53 -43q-461 -55 -725 -304q-172 -163 -178 -343q-10 -318 267.5 -413.5t969.5 -57.5q41 2 42 -30
q2 -26 -17 -35q-243 -104 -380 -145.5t-251 -39.5q-431 12 -597 178t-144 438q39 481 361 729l-381 3q-104 1 -42 91l88 130q11 17 210 8zM1365 1066q25 68 61 16.5t41 -122.5q12 -189 -114 -318q-37 -36 -85 -31q-110 11 -175 104q-94 -151 -212 -156q-152 -6 -246 203
q-28 58 -50 7q-116 -278 -386 -417q-45 -23 -67 -12q-46 23 -8 99q5 10 21.5 44t41.5 43q224 74 353 343q43 82 73 109q43 39 77 -22q100 -151 211 -151q146 0 244 227q15 34 42 21t10 -54.5t-18 -57.5q8 -91 181 -89q-14 21 -33.5 36.5t-4.5 58.5z" />
    <glyph glyph-name="uniFC1F" unicode="&#xfc1f;" horiz-adv-x="1864" arabic-form="isolated" 
d="M899 416q85 -1 189 -143q40 -53 67 -58q95 -18 96 -92q1 -54 -26.5 -103t-74.5 -50q-119 1 -209 146q-55 89 -196.5 72t-245.5 -98q-52 -41 -83 -7q-49 51 -24.5 83.5t103.5 84.5q259 167 404 165zM356 -51q-46 21 -27 75q42 119 57.5 137t21.5 23q34 27 122 -2
q186 -60 329 -167q53 -40 30 -108q-32 -93 -36 -104q-24 -59 -72 -55q-203 26 -377 -17q-111 -27 -143 -61q2 -31 50.5 -319t51.5 -340q8 -142 -30 -291q-11 -42 -44 -36.5t-26.5 99t-90.5 585.5q-32 164 8 304.5t82.5 192t93.5 84.5zM1650 545q23 70 67 19q73 -84 33 -285
q-15 -76 -58 -146.5t-84 -74.5q-124 -12 -247 94q-90 -182 -203 -182q-43 1 -55 66q-33 169 52 179q96 10 168.5 71.5t107.5 204.5q8 33 37.5 28t21.5 -39q-19 -84 -16 -103q10 -22 56 -46.5t104 -35.5q-6 21 -26 39q-21 18 -12 44z" />
    <glyph glyph-name="uniFC20" unicode="&#xfc20;" horiz-adv-x="1952" arabic-form="isolated" 
d="M403 508q566 -28 813 6q62 4 51 -40l-34 -132q-9 -37 -53 -43q-461 -55 -725 -304q-172 -163 -178 -343q-10 -318 267.5 -413.5t969.5 -57.5q41 2 42 -30q2 -26 -17 -35q-243 -104 -380 -145.5t-251 -39.5q-431 12 -597 178t-144 438q39 481 361 729l-381 3
q-104 1 -42 91l88 130q11 17 210 8zM1580 1230q66 -1 157.5 -80.5t94 -147.5t-98.5 -206t-162 -161q-322 -123 -695 -65q-26 -40 -32 -48q-27 -32 -49 -16.5t13 87.5q-103 42 -166 128q-140 -208 -402 -382q-62 -41 -97 -28q-63 24 -4 169q11 27 30 35q187 74 317.5 186
t189.5 241q16 34 40 35.5t47 -38.5q50 -89 210 -130q146 158 319 290t288 131zM1628 880q-104 109 -218 92q-189 -28 -343 -177q388 -9 561 85z" />
    <glyph glyph-name="uniFC21" unicode="&#xfc21;" horiz-adv-x="2250" arabic-form="isolated" 
d="M899 416q85 -1 189 -143q40 -53 67 -58q95 -18 96 -92q1 -54 -26.5 -103t-74.5 -50q-119 1 -209 146q-55 89 -196.5 72t-245.5 -98q-52 -41 -83 -7q-49 51 -24.5 83.5t103.5 84.5q259 167 404 165zM356 -51q-46 21 -27 75q42 119 57.5 137t21.5 23q34 27 122 -2
q186 -60 329 -167q53 -40 30 -108q-32 -93 -36 -104q-24 -59 -72 -55q-203 26 -377 -17q-111 -27 -143 -61q2 -31 50.5 -319t51.5 -340q8 -142 -30 -291q-11 -42 -44 -36.5t-26.5 99t-90.5 585.5q-32 164 8 304.5t82.5 192t93.5 84.5zM1294 219q351 502 588 508
q92 2 200 -99q59 -57 50 -125t-55.5 -172t-72.5 -127q-225 -207 -744 -237q-20 -75 -36 -99q-24 -26 -52.5 -10t-2.5 113q-68 8 -85 65q-55 181 83 179q80 -1 127 4zM1956 384q-135 74 -226 53q-168 -40 -313 -206q405 57 539 153z" />
    <glyph glyph-name="uniFC22" unicode="&#xfc22;" horiz-adv-x="1952" arabic-form="isolated" 
d="M771 -232q12 17 35 10q84 -30 150 -88q17 -17 6 -37l-98 -155q-16 -21 -37 -4.5t-148 92.5q-21 13 -7 34zM403 508q566 -28 813 6q62 4 51 -40l-34 -132q-9 -37 -53 -43q-461 -55 -725 -304q-172 -163 -178 -343q-10 -318 267.5 -413.5t969.5 -57.5q41 2 42 -30
q2 -26 -17 -35q-243 -104 -380 -145.5t-251 -39.5q-431 12 -597 178t-144 438q39 481 361 729l-381 3q-104 1 -42 91l88 130q11 17 210 8zM1095 1534q12 17 35 10q84 -30 150 -88q17 -17 6 -37l-98 -155q-16 -21 -37 -4.5t-148 92.5q-21 13 -7 34zM1580 1230
q66 -1 157.5 -80.5t94 -147.5t-98.5 -206t-162 -161q-322 -123 -695 -65q-26 -40 -32 -48q-27 -32 -49 -16.5t13 87.5q-103 42 -166 128q-140 -208 -402 -382q-62 -41 -97 -28q-63 24 -4 169q11 27 30 35q187 74 317.5 186t189.5 241q16 34 40 35.5t47 -38.5
q50 -89 210 -130q146 158 319 290t288 131zM1628 880q-104 109 -218 92q-189 -28 -343 -177q388 -9 561 85z" />
    <glyph glyph-name="uniFC23" unicode="&#xfc23;" horiz-adv-x="1952" arabic-form="isolated" 
d="M403 508q566 -28 813 6q62 4 51 -40l-34 -132q-9 -37 -53 -43q-461 -55 -725 -304q-172 -163 -178 -343q-10 -318 267.5 -413.5t969.5 -57.5q41 2 42 -30q2 -26 -17 -35q-243 -104 -380 -145.5t-251 -39.5q-431 12 -597 178t-144 438q39 481 361 729l-381 3
q-104 1 -42 91l88 130q11 17 210 8zM1095 1534q12 17 35 10q84 -30 150 -88q17 -17 6 -37l-98 -155q-16 -21 -37 -4.5t-148 92.5q-21 13 -7 34zM1580 1230q66 -1 157.5 -80.5t94 -147.5t-98.5 -206t-162 -161q-322 -123 -695 -65q-26 -40 -32 -48q-27 -32 -49 -16.5t13 87.5
q-103 42 -166 128q-140 -208 -402 -382q-62 -41 -97 -28q-63 24 -4 169q11 27 30 35q187 74 317.5 186t189.5 241q16 34 40 35.5t47 -38.5q50 -89 210 -130q146 158 319 290t288 131zM1628 880q-104 109 -218 92q-189 -28 -343 -177q388 -9 561 85z" />
    <glyph glyph-name="uniFC24" unicode="&#xfc24;" horiz-adv-x="1952" arabic-form="isolated" 
d="M281 1238q12 17 35 10q84 -30 150 -88q17 -17 6 -37l-98 -155q-16 -21 -37 -4.5t-148 92.5q-21 13 -7 34zM403 508q566 -28 813 6q62 4 51 -40l-34 -132q-9 -37 -53 -43q-461 -55 -725 -304q-172 -163 -178 -343q-10 -318 267.5 -413.5t969.5 -57.5q41 2 42 -30
q2 -26 -17 -35q-243 -104 -380 -145.5t-251 -39.5q-431 12 -597 178t-144 438q39 481 361 729l-381 3q-104 1 -42 91l88 130q11 17 210 8zM1095 1534q12 17 35 10q84 -30 150 -88q17 -17 6 -37l-98 -155q-16 -21 -37 -4.5t-148 92.5q-21 13 -7 34zM1580 1230
q66 -1 157.5 -80.5t94 -147.5t-98.5 -206t-162 -161q-322 -123 -695 -65q-26 -40 -32 -48q-27 -32 -49 -16.5t13 87.5q-103 42 -166 128q-140 -208 -402 -382q-62 -41 -97 -28q-63 24 -4 169q11 27 30 35q187 74 317.5 186t189.5 241q16 34 40 35.5t47 -38.5
q50 -89 210 -130q146 158 319 290t288 131zM1628 880q-104 109 -218 92q-189 -28 -343 -177q388 -9 561 85z" />
    <glyph glyph-name="uniFC25" unicode="&#xfc25;" horiz-adv-x="2250" arabic-form="isolated" 
d="M899 416q85 -1 189 -143q40 -53 67 -58q95 -18 96 -92q1 -54 -26.5 -103t-74.5 -50q-119 1 -209 146q-55 89 -196.5 72t-245.5 -98q-52 -41 -83 -7q-49 51 -24.5 83.5t103.5 84.5q259 167 404 165zM356 -51q-46 21 -27 75q42 119 57.5 137t21.5 23q34 27 122 -2
q186 -60 329 -167q53 -40 30 -108q-32 -93 -36 -104q-24 -59 -72 -55q-203 26 -377 -17q-111 -27 -143 -61q2 -31 50.5 -319t51.5 -340q8 -142 -30 -291q-11 -42 -44 -36.5t-26.5 99t-90.5 585.5q-32 164 8 304.5t82.5 192t93.5 84.5zM1412 1128q12 17 35 10q84 -30 150 -88
q17 -17 6 -37l-98 -155q-16 -21 -37 -4.5t-148 92.5q-21 13 -7 34zM1294 219q351 502 588 508q92 2 200 -99q59 -57 50 -125t-55.5 -172t-72.5 -127q-225 -207 -744 -237q-20 -75 -36 -99q-24 -26 -52.5 -10t-2.5 113q-68 8 -85 65q-55 181 83 179q80 -1 127 4zM1956 384
q-135 74 -226 53q-168 -40 -313 -206q405 57 539 153z" />
    <glyph glyph-name="uniFC26" unicode="&#xfc26;" horiz-adv-x="2473" arabic-form="isolated" 
d="M170 310q8 249 266 253q75 1 239 -27q265 -47 541 -1q108 18 80 -47l-59 -142q-14 -33 -46 -37q-124 -11 -211 -36q59 -79 327 -58q64 5 80 -69q11 -57 -11 -116t-64 -60q-275 -1 -359 73t-73 203q-179 -37 -328 -125q-191 -113 -266 -267.5t-51 -295.5q52 -304 414 -376
q312 -62 814 3q81 10 81 -29q0 -30 -85 -58t-164 -85.5t-100 -67.5t-44 -13q-610 -73 -851 120q-193 154 -169 489q39 527 423 769q-191 28 -334 -42q-52 -26 -50 42zM1552 322q19 133 -7 497.5t-39.5 434t-11.5 77.5q6 46 56 134q33 58 64 -10q52 -111 77 -139
q44 -50 13 -86l-51 -57q-4 -5 -3 -23q27 -409 21.5 -522t-19.5 -220q281 233 419 269q171 45 271 -152q17 -34 4 -80q-40 -141 -106 -237.5t-201 -127.5q-380 -88 -729 -110q-44 -1 -62 59t-7 121t69 65q106 4 141 9zM2006 439q-155 -3 -399 -201q389 39 594 104
q-81 98 -195 97z" />
    <glyph glyph-name="uniFC27" unicode="&#xfc27;" horiz-adv-x="2233" arabic-form="isolated" 
d="M558 436q177 -209 512 -221q100 -4 79.5 -124t-79.5 -121q-180 -2 -325 67q-1 -195 -89 -266q-41 -32 -80 2q-119 107 -147 311q-113 -16 -200 -106q-10 -42 20 -244q111 -738 84 -860q-18 -78 -60 -78q-44 1 -46 91q-4 143 -76 577t4 624t301 291q44 126 102 57z
M1312 322q19 133 -7 497.5t-39.5 434t-11.5 77.5q6 46 56 134q33 58 64 -10q52 -111 77 -139q44 -50 13 -86l-51 -57q-4 -5 -3 -23q27 -409 21.5 -522t-19.5 -220q281 233 419 269q171 45 271 -152q17 -34 4 -80q-40 -141 -106 -237.5t-201 -127.5q-380 -88 -729 -110
q-44 -1 -62 59t-7 121t69 65q106 4 141 9zM1766 439q-155 -3 -399 -201q389 39 594 104q-81 98 -195 97z" />
    <glyph glyph-name="uniFC28" unicode="&#xfc28;" horiz-adv-x="2233" arabic-form="isolated" 
d="M558 436q177 -209 512 -221q100 -4 79.5 -124t-79.5 -121q-180 -2 -325 67q-1 -195 -89 -266q-41 -32 -80 2q-119 107 -147 311q-113 -16 -200 -106q-10 -42 20 -244q111 -738 84 -860q-18 -78 -60 -78q-44 1 -46 91q-4 143 -76 577t4 624t301 291q44 126 102 57z
M1789 1128q12 17 35 10q84 -30 150 -88q17 -17 6 -37l-98 -155q-16 -21 -37 -4.5t-148 92.5q-21 13 -7 34zM1312 322q19 133 -7 497.5t-39.5 434t-11.5 77.5q6 46 56 134q33 58 64 -10q52 -111 77 -139q44 -50 13 -86l-51 -57q-4 -5 -3 -23q27 -409 21.5 -522t-19.5 -220
q281 233 419 269q171 45 271 -152q17 -34 4 -80q-40 -141 -106 -237.5t-201 -127.5q-380 -88 -729 -110q-44 -1 -62 59t-7 121t69 65q106 4 141 9zM1766 439q-155 -3 -399 -201q389 39 594 104q-81 98 -195 97z" />
    <glyph glyph-name="uniFC29" unicode="&#xfc29;" horiz-adv-x="1395" arabic-form="isolated" 
d="M771 -232q12 17 35 10q84 -30 150 -88q17 -17 6 -37l-98 -155q-16 -21 -37 -4.5t-148 92.5q-21 13 -7 34zM403 508q566 -28 813 6q62 4 51 -40l-34 -132q-9 -37 -53 -43q-461 -55 -725 -304q-172 -163 -178 -343q-10 -318 267.5 -413.5t969.5 -57.5q41 2 42 -30
q2 -26 -17 -35q-243 -104 -380 -145.5t-251 -39.5q-431 12 -597 178t-144 438q39 481 361 729l-381 3q-104 1 -42 91l88 130q11 17 210 8zM1220 957q27 13 55 -13.5t-17 -102.5q-1 -2 -41 -64q-19 -29 -51 -38q-547 -150 -643 -185l-252 -112q-67 -9 -81 36q-7 23 17 48
q75 89 318 194q-48 44 -73 86q-39 66 2 173.5t160.5 208.5t224.5 93q152 -13 246 -149q22 -34 2 -61t-55 -15q-117 39 -195 37q-160 -5 -234 -100q83 -117 197 -127q184 -16 420 91z" />
    <glyph glyph-name="uniFC2A" unicode="&#xfc2a;" horiz-adv-x="2048" arabic-form="isolated" 
d="M558 436q177 -209 512 -221q100 -4 79.5 -124t-79.5 -121q-180 -2 -325 67q-1 -195 -89 -266q-41 -32 -80 2q-119 107 -147 311q-113 -16 -200 -106q-10 -42 20 -244q111 -738 84 -860q-18 -78 -60 -78q-44 1 -46 91q-4 143 -76 577t4 624t301 291q44 126 102 57z
M1937 508l-42 -165q-7 -27 -51 -45.5t-299 -120.5l-476 -207q-68 0 -90.5 100.5t79.5 142.5q80 33 121 51q-110 93 -79 223q65 276 295 384q58 27 138 -11t161 -122q43 -45 30.5 -71.5t-102.5 -1t-222.5 -4.5t-175.5 -121q-12 -25 57 -85q172 -148 499 58q45 28 76 47
q112 71 81 -52z" />
    <glyph glyph-name="uniFC2B" unicode="&#xfc2b;" horiz-adv-x="1395" arabic-form="isolated" 
d="M771 -232q12 17 35 10q84 -30 150 -88q17 -17 6 -37l-98 -155q-16 -21 -37 -4.5t-148 92.5q-21 13 -7 34zM403 508q566 -28 813 6q62 4 51 -40l-34 -132q-9 -37 -53 -43q-461 -55 -725 -304q-172 -163 -178 -343q-10 -318 267.5 -413.5t969.5 -57.5q41 2 42 -30
q2 -26 -17 -35q-243 -104 -380 -145.5t-251 -39.5q-431 12 -597 178t-144 438q39 481 361 729l-381 3q-104 1 -42 91l88 130q11 17 210 8zM660 1613q12 17 35 10q84 -30 150 -88q17 -17 6 -37l-98 -155q-16 -21 -37 -4.5t-148 92.5q-21 13 -7 34zM1220 957q27 13 55 -13.5
t-17 -102.5q-1 -2 -41 -64q-19 -29 -51 -38q-547 -150 -643 -185l-252 -112q-67 -9 -81 36q-7 23 17 48q75 89 318 194q-48 44 -73 86q-39 66 2 173.5t160.5 208.5t224.5 93q152 -13 246 -149q22 -34 2 -61t-55 -15q-117 39 -195 37q-160 -5 -234 -100q83 -117 197 -127
q184 -16 420 91z" />
    <glyph glyph-name="uniFC2C" unicode="&#xfc2c;" horiz-adv-x="2048" arabic-form="isolated" 
d="M558 436q177 -209 512 -221q100 -4 79.5 -124t-79.5 -121q-180 -2 -325 67q-1 -195 -89 -266q-41 -32 -80 2q-119 107 -147 311q-113 -16 -200 -106q-10 -42 20 -244q111 -738 84 -860q-18 -78 -60 -78q-44 1 -46 91q-4 143 -76 577t4 624t301 291q44 126 102 57z
M1324 1228q12 17 35 10q84 -30 150 -88q17 -17 6 -37l-98 -155q-16 -21 -37 -4.5t-148 92.5q-21 13 -7 34zM1937 508l-42 -165q-7 -27 -51 -45.5t-299 -120.5l-476 -207q-68 0 -90.5 100.5t79.5 142.5q80 33 121 51q-110 93 -79 223q65 276 295 384q58 27 138 -11t161 -122
q43 -45 30.5 -71.5t-102.5 -1t-222.5 -4.5t-175.5 -121q-12 -25 57 -85q172 -148 499 58q45 28 76 47q112 71 81 -52z" />
    <glyph glyph-name="uniFC2D" unicode="&#xfc2d;" horiz-adv-x="1480" arabic-form="isolated" 
d="M771 -232q12 17 35 10q84 -30 150 -88q17 -17 6 -37l-98 -155q-16 -21 -37 -4.5t-148 92.5q-21 13 -7 34zM403 508q566 -28 813 6q62 4 51 -40l-34 -132q-9 -37 -53 -43q-461 -55 -725 -304q-172 -163 -178 -343q-10 -318 267.5 -413.5t969.5 -57.5q41 2 42 -30
q2 -26 -17 -35q-243 -104 -380 -145.5t-251 -39.5q-431 12 -597 178t-144 438q39 481 361 729l-381 3q-104 1 -42 91l88 130q11 17 210 8zM322 1638q12 17 35 10q84 -30 150 -88q17 -17 6 -37l-98 -155q-16 -21 -37 -4.5t-148 92.5q-21 13 -7 34zM345 997q12 -72 62 -74
q51 -1 68 50q-41 43 -75 47.5t-55 -23.5zM620 727q-2 43 -40 84q-116 -164 -240 -129q-146 41 -58 343q60 207 165 240q67 21 148 -76q109 -131 118 -421q3 -98 -45 -185q-124 -227 -396 -219q-86 3 -104.5 45.5t20.5 91t60.5 59.5t55.5 17q290 53 316 150z" />
    <glyph glyph-name="uniFC2E" unicode="&#xfc2e;" horiz-adv-x="1480" arabic-form="isolated" 
d="M403 508q566 -28 813 6q62 4 51 -40l-34 -132q-9 -37 -53 -43q-461 -55 -725 -304q-172 -163 -178 -343q-10 -318 267.5 -413.5t969.5 -57.5q41 2 42 -30q2 -26 -17 -35q-243 -104 -380 -145.5t-251 -39.5q-431 12 -597 178t-144 438q39 481 361 729l-381 3
q-104 1 -42 91l88 130q11 17 210 8zM322 1638q12 17 35 10q84 -30 150 -88q17 -17 6 -37l-98 -155q-16 -21 -37 -4.5t-148 92.5q-21 13 -7 34zM345 997q12 -72 62 -74q51 -1 68 50q-41 43 -75 47.5t-55 -23.5zM620 727q-2 43 -40 84q-116 -164 -240 -129q-146 41 -58 343
q60 207 165 240q67 21 148 -76q109 -131 118 -421q3 -98 -45 -185q-124 -227 -396 -219q-86 3 -104.5 45.5t20.5 91t60.5 59.5t55.5 17q290 53 316 150z" />
    <glyph glyph-name="uniFC2F" unicode="&#xfc2f;" horiz-adv-x="1480" arabic-form="isolated" 
d="M1011 918q12 17 35 10q84 -30 150 -88q17 -17 6 -37l-98 -155q-16 -21 -37 -4.5t-148 92.5q-21 13 -7 34zM403 508q566 -28 813 6q62 4 51 -40l-34 -132q-9 -37 -53 -43q-461 -55 -725 -304q-172 -163 -178 -343q-10 -318 267.5 -413.5t969.5 -57.5q41 2 42 -30
q2 -26 -17 -35q-243 -104 -380 -145.5t-251 -39.5q-431 12 -597 178t-144 438q39 481 361 729l-381 3q-104 1 -42 91l88 130q11 17 210 8zM322 1638q12 17 35 10q84 -30 150 -88q17 -17 6 -37l-98 -155q-16 -21 -37 -4.5t-148 92.5q-21 13 -7 34zM345 997q12 -72 62 -74
q51 -1 68 50q-41 43 -75 47.5t-55 -23.5zM620 727q-2 43 -40 84q-116 -164 -240 -129q-146 41 -58 343q60 207 165 240q67 21 148 -76q109 -131 118 -421q3 -98 -45 -185q-124 -227 -396 -219q-86 3 -104.5 45.5t20.5 91t60.5 59.5t55.5 17q290 53 316 150z" />
    <glyph glyph-name="uniFC30" unicode="&#xfc30;" horiz-adv-x="1675" arabic-form="isolated" 
d="M558 436q177 -209 512 -221q100 -4 79.5 -124t-79.5 -121q-180 -2 -325 67q-1 -195 -89 -266q-41 -32 -80 2q-119 107 -147 311q-113 -16 -200 -106q-10 -42 20 -244q111 -738 84 -860q-18 -78 -60 -78q-44 1 -46 91q-4 143 -76 577t4 624t301 291q44 126 102 57z
M1184 1278q12 17 35 10q84 -30 150 -88q17 -17 6 -37l-98 -155q-16 -21 -37 -4.5t-148 92.5q-21 13 -7 34zM1228 656q-47 0 -53 -91q30 -10 78.5 -5t59.5 24q-46 72 -85 72zM1279 908q62 0 103 -41q163 -165 163 -449q0 -164 -59 -242q-165 -211 -415 -206q-50 1 -66 62
q-15 62 -1 120q15 60 64 63q258 18 376 128q-7 69 -16 79q-13 15 -27 -10q-39 -69 -101 -83q-201 -48 -214 106q-15 178 52 325.5t141 147.5z" />
    <glyph glyph-name="uniFC31" unicode="&#xfc31;" horiz-adv-x="1462" arabic-form="isolated" 
d="M904 295q139 14 272 -2t196 -74q40 -40 31 -119q-18 -139 -60 -193.5t-115 -110.5q-382 -291 -723 -266q-521 38 -366 634q43 166 139 289q28 34 52 14q24 -22 -6 -66q-119 -181 -112 -319q16 -294 366.5 -296t685.5 277q-88 48 -380 48q-28 0 -34.5 23t-0.5 36z
M928 1558q12 17 35 10q84 -30 150 -88q17 -17 6 -37l-98 -155q-16 -21 -37 -4.5t-148 92.5q-21 13 -7 34zM1012.5 781q-27.5 -1 -54.5 -35q-13 -17 12 -35q62 -45 124 11q8 9 -1 17q-53 43 -80.5 42zM1233 931q152 -228 68 -538q-75 -281 -411 -281q-93 6 10 180
q14 24 43 28q257 37 310 124q20 33 -52 127q-36 -72 -84 -100q-130 -74 -210 52q-62 99 1 254q94 233 198 237q71 2 127 -83z" />
    <glyph glyph-name="uniFC32" unicode="&#xfc32;" horiz-adv-x="1462" arabic-form="isolated" 
d="M788 -612q12 17 35 10q84 -30 150 -88q17 -17 6 -37l-98 -155q-16 -21 -35.5 -5.5t-108.5 69.5l-69 -110q-16 -21 -37 -4.5t-148 92.5q-21 13 -7 34l99 148q12 17 35 10q62 -22 114 -59zM904 295q139 14 272 -2t196 -74q40 -40 31 -119q-18 -139 -60 -193.5t-115 -110.5
q-382 -291 -723 -266q-521 38 -366 634q43 166 139 289q28 34 52 14q24 -22 -6 -66q-119 -181 -112 -319q16 -294 366.5 -296t685.5 277q-88 48 -380 48q-28 0 -34.5 23t-0.5 36zM928 1558q12 17 35 10q84 -30 150 -88q17 -17 6 -37l-98 -155q-16 -21 -37 -4.5t-148 92.5
q-21 13 -7 34zM1012.5 781q-27.5 -1 -54.5 -35q-13 -17 12 -35q62 -45 124 11q8 9 -1 17q-53 43 -80.5 42zM1233 931q152 -228 68 -538q-75 -281 -411 -281q-93 6 10 180q14 24 43 28q257 37 310 124q20 33 -52 127q-36 -72 -84 -100q-130 -74 -210 52q-62 99 1 254
q94 233 198 237q71 2 127 -83z" />
    <glyph glyph-name="uniFC33" unicode="&#xfc33;" horiz-adv-x="1480" arabic-form="isolated" 
d="M403 508q566 -28 813 6q62 4 51 -40l-34 -132q-9 -37 -53 -43q-461 -55 -725 -304q-172 -163 -178 -343q-10 -318 267.5 -413.5t969.5 -57.5q41 2 42 -30q2 -26 -17 -35q-243 -104 -380 -145.5t-251 -39.5q-431 12 -597 178t-144 438q39 481 361 729l-381 3
q-104 1 -42 91l88 130q11 17 210 8zM435 1684q12 17 35 10q84 -30 150 -88q17 -17 6 -37l-98 -155q-16 -21 -35.5 -5.5t-108.5 69.5l-69 -110q-16 -21 -37 -4.5t-148 92.5q-21 13 -7 34l99 148q12 17 35 10q62 -22 114 -59zM345 997q12 -72 62 -74q51 -1 68 50
q-41 43 -75 47.5t-55 -23.5zM620 727q-2 43 -40 84q-116 -164 -240 -129q-146 41 -58 343q60 207 165 240q67 21 148 -76q109 -131 118 -421q3 -98 -45 -185q-124 -227 -396 -219q-86 3 -104.5 45.5t20.5 91t60.5 59.5t55.5 17q290 53 316 150z" />
    <glyph glyph-name="uniFC34" unicode="&#xfc34;" horiz-adv-x="1675" arabic-form="isolated" 
d="M558 436q177 -209 512 -221q100 -4 79.5 -124t-79.5 -121q-180 -2 -325 67q-1 -195 -89 -266q-41 -32 -80 2q-119 107 -147 311q-113 -16 -200 -106q-10 -42 20 -244q111 -738 84 -860q-18 -78 -60 -78q-44 1 -46 91q-4 143 -76 577t4 624t301 291q44 126 102 57z
M1357 1324q12 17 35 10q84 -30 150 -88q17 -17 6 -37l-98 -155q-16 -21 -35.5 -5.5t-108.5 69.5l-69 -110q-16 -21 -37 -4.5t-148 92.5q-21 13 -7 34l99 148q12 17 35 10q62 -22 114 -59zM1228 656q-47 0 -53 -91q30 -10 78.5 -5t59.5 24q-46 72 -85 72zM1279 908
q62 0 103 -41q163 -165 163 -449q0 -164 -59 -242q-165 -211 -415 -206q-50 1 -66 62q-15 62 -1 120q15 60 64 63q258 18 376 128q-7 69 -16 79q-13 15 -27 -10q-39 -69 -101 -83q-201 -48 -214 106q-15 178 52 325.5t141 147.5z" />
    <glyph glyph-name="uniFC35" unicode="&#xfc35;" horiz-adv-x="1462" arabic-form="isolated" 
d="M904 295q139 14 272 -2t196 -74q40 -40 31 -119q-18 -139 -60 -193.5t-115 -110.5q-382 -291 -723 -266q-521 38 -366 634q43 166 139 289q28 34 52 14q24 -22 -6 -66q-119 -181 -112 -319q16 -294 366.5 -296t685.5 277q-88 48 -380 48q-28 0 -34.5 23t-0.5 36z
M1030 1604q12 17 35 10q84 -30 150 -88q17 -17 6 -37l-98 -155q-16 -21 -35.5 -5.5t-108.5 69.5l-69 -110q-16 -21 -37 -4.5t-148 92.5q-21 13 -7 34l99 148q12 17 35 10q62 -22 114 -59zM1012.5 781q-27.5 -1 -54.5 -35q-13 -17 12 -35q62 -45 124 11q8 9 -1 17
q-53 43 -80.5 42zM1233 931q152 -228 68 -538q-75 -281 -411 -281q-93 6 10 180q14 24 43 28q257 37 310 124q20 33 -52 127q-36 -72 -84 -100q-130 -74 -210 52q-62 99 1 254q94 233 198 237q71 2 127 -83z" />
    <glyph glyph-name="uniFC36" unicode="&#xfc36;" horiz-adv-x="1462" arabic-form="isolated" 
d="M788 -612q12 17 35 10q84 -30 150 -88q17 -17 6 -37l-98 -155q-16 -21 -35.5 -5.5t-108.5 69.5l-69 -110q-16 -21 -37 -4.5t-148 92.5q-21 13 -7 34l99 148q12 17 35 10q62 -22 114 -59zM904 295q139 14 272 -2t196 -74q40 -40 31 -119q-18 -139 -60 -193.5t-115 -110.5
q-382 -291 -723 -266q-521 38 -366 634q43 166 139 289q28 34 52 14q24 -22 -6 -66q-119 -181 -112 -319q16 -294 366.5 -296t685.5 277q-88 48 -380 48q-28 0 -34.5 23t-0.5 36zM1030 1604q12 17 35 10q84 -30 150 -88q17 -17 6 -37l-98 -155q-16 -21 -35.5 -5.5
t-108.5 69.5l-69 -110q-16 -21 -37 -4.5t-148 92.5q-21 13 -7 34l99 148q12 17 35 10q62 -22 114 -59zM1012.5 781q-27.5 -1 -54.5 -35q-13 -17 12 -35q62 -45 124 11q8 9 -1 17q-53 43 -80.5 42zM1233 931q152 -228 68 -538q-75 -281 -411 -281q-93 6 10 180q14 24 43 28
q257 37 310 124q20 33 -52 127q-36 -72 -84 -100q-130 -74 -210 52q-62 99 1 254q94 233 198 237q71 2 127 -83z" />
    <glyph glyph-name="uniFC37" unicode="&#xfc37;" horiz-adv-x="1589" arabic-form="isolated" 
d="M171 1513q56 -207 59.5 -665.5t38.5 -534.5t124.5 -93t104.5 -152q10 -96 -66 -116q-22 -6 -49 -4q-103 10 -177 87q-119 123 -113 547q3 227 -21 448.5t-39.5 290t-12 85.5t9.5 26l59 94q13 20 28 25q39 12 54 -38zM301 822q330 -90 433 -226q98 -130 97 -260
q-2 -319 -220 -374q-93 -23 -228 -14q-51 6 -73 67.5t-2 125.5q27 89 82 81q198 -27 361 96q-137 188 -526 306q-44 13 -45 116q-1 87 16 126q81 194 493 437q417 246 618 318q109 39 84 -67l-30 -130q-11 -43 -51 -59q-253 -103 -573.5 -276.5t-435.5 -266.5z" />
    <glyph glyph-name="uniFC38" unicode="&#xfc38;" horiz-adv-x="1663" arabic-form="isolated" 
d="M771 -232q12 17 35 10q84 -30 150 -88q17 -17 6 -37l-98 -155q-16 -21 -37 -4.5t-148 92.5q-21 13 -7 34zM403 508q566 -28 813 6q62 4 51 -40l-34 -132q-9 -37 -53 -43q-461 -55 -725 -304q-172 -163 -178 -343q-10 -318 267.5 -413.5t969.5 -57.5q41 2 42 -30
q2 -26 -17 -35q-243 -104 -380 -145.5t-251 -39.5q-431 12 -597 178t-144 438q39 481 361 729l-381 3q-104 1 -42 91l88 130q11 17 210 8zM1561 1655l-39 -92q-21 -48 -85 -59q-826 -123 -1104 -264q161 -153 225 -238q135 -186 95 -380q-76 -270 -381 -258
q-86 4 -104.5 46.5t21 91.5t63.5 59.5t52 15.5q175 36 240 76q-42 104 -226 290l-25 -16q-38 -21 -77 26l-101 122q-27 34 -16 91q20 111 91 202q301 218 1302 380q30 4 48 -4q49 -20 21 -89z" />
    <glyph glyph-name="uniFC39" unicode="&#xfc39;" horiz-adv-x="1663" arabic-form="isolated" 
d="M403 508q566 -28 813 6q62 4 51 -40l-34 -132q-9 -37 -53 -43q-461 -55 -725 -304q-172 -163 -178 -343q-10 -318 267.5 -413.5t969.5 -57.5q41 2 42 -30q2 -26 -17 -35q-243 -104 -380 -145.5t-251 -39.5q-431 12 -597 178t-144 438q39 481 361 729l-381 3
q-104 1 -42 91l88 130q11 17 210 8zM1561 1655l-39 -92q-21 -48 -85 -59q-826 -123 -1104 -264q161 -153 225 -238q135 -186 95 -380q-76 -270 -381 -258q-86 4 -104.5 46.5t21 91.5t63.5 59.5t52 15.5q175 36 240 76q-42 104 -226 290l-25 -16q-38 -21 -77 26l-101 122
q-27 34 -16 91q20 111 91 202q301 218 1302 380q30 4 48 -4q49 -20 21 -89z" />
    <glyph glyph-name="uniFC3A" unicode="&#xfc3a;" horiz-adv-x="1663" arabic-form="isolated" 
d="M1011 918q12 17 35 10q84 -30 150 -88q17 -17 6 -37l-98 -155q-16 -21 -37 -4.5t-148 92.5q-21 13 -7 34zM403 508q566 -28 813 6q62 4 51 -40l-34 -132q-9 -37 -53 -43q-461 -55 -725 -304q-172 -163 -178 -343q-10 -318 267.5 -413.5t969.5 -57.5q41 2 42 -30
q2 -26 -17 -35q-243 -104 -380 -145.5t-251 -39.5q-431 12 -597 178t-144 438q39 481 361 729l-381 3q-104 1 -42 91l88 130q11 17 210 8zM1561 1655l-39 -92q-21 -48 -85 -59q-826 -123 -1104 -264q161 -153 225 -238q135 -186 95 -380q-76 -270 -381 -258
q-86 4 -104.5 46.5t21 91.5t63.5 59.5t52 15.5q175 36 240 76q-42 104 -226 290l-25 -16q-38 -21 -77 26l-101 122q-27 34 -16 91q20 111 91 202q301 218 1302 380q30 4 48 -4q49 -20 21 -89z" />
    <glyph glyph-name="uniFC3B" unicode="&#xfc3b;" horiz-adv-x="2437" arabic-form="isolated" 
d="M1107 18q50 -476 -123 -608q-227 -171 -441.5 -176t-340 119t-97.5 333.5t185 418.5q19 24 49.5 22.5t43 -29.5t-7.5 -60q-164 -235 -101 -378q73 -164 337 -149q219 14 393 180l-99 1379q-5 73 5 112l39 128q18 23 37 27q44 8 57 -56q1 -6 4 -22l54 -544
q39 -446 145 -496q73 -34 74 -94q0 -15 -3.5 -27t-17.5 -66q-23 -91 -71 -83q-71 14 -121 69zM1149 822q330 -90 433 -226q98 -130 97 -260q-2 -319 -220 -374q-93 -23 -228 -14q-51 6 -73 67.5t-2 125.5q27 89 82 81q198 -27 361 96q-137 188 -526 306q-44 13 -45 116
q-1 87 16 126q81 194 493 437q417 246 618 318q109 39 84 -67l-30 -130q-11 -43 -51 -59q-253 -103 -573.5 -276.5t-435.5 -266.5z" />
    <glyph glyph-name="uniFC3C" unicode="&#xfc3c;" horiz-adv-x="1605" arabic-form="isolated" 
d="M242 199q-46 21 -27 75q42 119 57.5 137t21.5 23q34 27 122 -2q186 -60 329 -167q53 -40 30 -108q-32 -93 -36 -104q-24 -59 -72 -55q-203 26 -377 -17q-111 -27 -143 -61q2 -31 50.5 -319t51.5 -340q8 -142 -30 -291q-11 -42 -44 -36.5t-26.5 99t-90.5 585.5
q-32 164 8 304.5t82.5 192t93.5 84.5zM1503 1743l-39 -130q-12 -41 -57 -49q-744 -123 -965 -196q-80 -27 -122 -53q417 -438 364 -752q-18 -91 -94 -184q-45 -55 -160 -80q-55 -13 -100.5 -7.5t-60.5 51.5q-5 19 0 51.5t45 49.5q197 75 253 125q-11 174 -246 399h-1
l-63 -22q-37 -11 -65 27l-115 167q-21 30 -8 77q44 147 128 231q42 41 132 88q265 145 1110 284q20 3 34 -1q48 -13 30 -76z" />
    <glyph glyph-name="uniFC3D" unicode="&#xfc3d;" horiz-adv-x="2010" arabic-form="isolated" 
d="M904 295q139 14 272 -2t196 -74q40 -40 31 -119q-18 -139 -60 -193.5t-115 -110.5q-382 -291 -723 -266q-521 38 -366 634q43 166 139 289q28 34 52 14q24 -22 -6 -66q-119 -181 -112 -319q16 -294 366.5 -296t685.5 277q-88 48 -380 48q-28 0 -34.5 23t-0.5 36z
M1835 1947q18 6 32 6q49 -5 43 -68l-16 -142q-5 -39 -49 -55q-701 -257 -1070 -483q172 -126 252 -201q274 -256 242 -559q-10 -90 -76 -149q-120 -109 -300 -154q-22 -6 -37 12t-7 44l54 123q93 34 249 112q-24 231 -322 429l-26 -54q-11 -26 -43 -20q-9 1 -50 28
q-110 73 -139.5 149.5t11 207.5t90.5 175q309 262 1162 599z" />
    <glyph glyph-name="uniFC3E" unicode="&#xfc3e;" horiz-adv-x="2010" arabic-form="isolated" 
d="M788 -612q12 17 35 10q84 -30 150 -88q17 -17 6 -37l-98 -155q-16 -21 -35.5 -5.5t-108.5 69.5l-69 -110q-16 -21 -37 -4.5t-148 92.5q-21 13 -7 34l99 148q12 17 35 10q62 -22 114 -59zM904 295q139 14 272 -2t196 -74q40 -40 31 -119q-18 -139 -60 -193.5t-115 -110.5
q-382 -291 -723 -266q-521 38 -366 634q43 166 139 289q28 34 52 14q24 -22 -6 -66q-119 -181 -112 -319q16 -294 366.5 -296t685.5 277q-88 48 -380 48q-28 0 -34.5 23t-0.5 36zM1835 1947q18 6 32 6q49 -5 43 -68l-16 -142q-5 -39 -49 -55q-701 -257 -1070 -483
q172 -126 252 -201q274 -256 242 -559q-10 -90 -76 -149q-120 -109 -300 -154q-22 -6 -37 12t-7 44l54 123q93 34 249 112q-24 231 -322 429l-26 -54q-11 -26 -43 -20q-9 1 -50 28q-110 73 -139.5 149.5t11 207.5t90.5 175q309 262 1162 599z" />
    <glyph glyph-name="uniFC3F" unicode="&#xfc3f;" horiz-adv-x="1429" arabic-form="isolated" 
d="M771 -232q12 17 35 10q84 -30 150 -88q17 -17 6 -37l-98 -155q-16 -21 -37 -4.5t-148 92.5q-21 13 -7 34zM403 508q566 -28 813 6q62 4 51 -40l-34 -132q-9 -37 -53 -43q-461 -55 -725 -304q-172 -163 -178 -343q-10 -318 267.5 -413.5t969.5 -57.5q41 2 42 -30
q2 -26 -17 -35q-243 -104 -380 -145.5t-251 -39.5q-431 12 -597 178t-144 438q39 481 361 729l-381 3q-104 1 -42 91l88 130q11 17 210 8zM591 657q-14 225 -63 557l-25 85q-6 34 10 58l72 113q36 45 58 -38q19 -67 84 -139q32 -36 3 -76l-43 -58q-16 -19 -14 -35
q58 -440 5 -571q-69 -170 -403 -189q-69 -4 -88 11.5t-25 25.5q-23 46 77 161q22 26 70 28q144 4 236 23q48 10 46 44z" />
    <glyph glyph-name="uniFC40" unicode="&#xfc40;" horiz-adv-x="1429" arabic-form="isolated" 
d="M403 508q566 -28 813 6q62 4 51 -40l-34 -132q-9 -37 -53 -43q-461 -55 -725 -304q-172 -163 -178 -343q-10 -318 267.5 -413.5t969.5 -57.5q41 2 42 -30q2 -26 -17 -35q-243 -104 -380 -145.5t-251 -39.5q-431 12 -597 178t-144 438q39 481 361 729l-381 3
q-104 1 -42 91l88 130q11 17 210 8zM591 657q-14 225 -63 557l-25 85q-6 34 10 58l72 113q36 45 58 -38q19 -67 84 -139q32 -36 3 -76l-43 -58q-16 -19 -14 -35q58 -440 5 -571q-69 -170 -403 -189q-69 -4 -88 11.5t-25 25.5q-23 46 77 161q22 26 70 28q144 4 236 23
q48 10 46 44z" />
    <glyph glyph-name="uniFC41" unicode="&#xfc41;" horiz-adv-x="1429" arabic-form="isolated" 
d="M1011 918q12 17 35 10q84 -30 150 -88q17 -17 6 -37l-98 -155q-16 -21 -37 -4.5t-148 92.5q-21 13 -7 34zM403 508q566 -28 813 6q62 4 51 -40l-34 -132q-9 -37 -53 -43q-461 -55 -725 -304q-172 -163 -178 -343q-10 -318 267.5 -413.5t969.5 -57.5q41 2 42 -30
q2 -26 -17 -35q-243 -104 -380 -145.5t-251 -39.5q-431 12 -597 178t-144 438q39 481 361 729l-381 3q-104 1 -42 91l88 130q11 17 210 8zM591 657q-14 225 -63 557l-25 85q-6 34 10 58l72 113q36 45 58 -38q19 -67 84 -139q32 -36 3 -76l-43 -58q-16 -19 -14 -35
q58 -440 5 -571q-69 -170 -403 -189q-69 -4 -88 11.5t-25 25.5q-23 46 77 161q22 26 70 28q144 4 236 23q48 10 46 44z" />
    <glyph glyph-name="uniFC42" unicode="&#xfc42;" horiz-adv-x="904" arabic-form="isolated" 
d="M242 199q-46 21 -27 75q42 119 57.5 137t21.5 23q34 27 122 -2q186 -60 329 -167q53 -40 30 -108q-32 -93 -36 -104q-24 -59 -72 -55q-203 26 -377 -17q-111 -27 -143 -61q2 -31 50.5 -319t51.5 -340q8 -142 -30 -291q-11 -42 -44 -36.5t-26.5 99t-90.5 585.5
q-32 164 8 304.5t82.5 192t93.5 84.5zM401 1572q12 22 26 29q37 17 58 -32q26 -65 109 -128q44 -35 17 -83q-12 -21 -30.5 -49.5t-26.5 -42.5l52 -448q23 -232 -44 -399l-29 -67q-37 -87 -154 -56q-80 23 -100 72q-22 69 81 93q87 21 124 65q-9 219 -55.5 500.5t-65 351.5
t-6.5 100z" />
    <glyph glyph-name="uniFC43" unicode="&#xfc43;" horiz-adv-x="1472" arabic-form="isolated" 
d="M904 295q139 14 272 -2t196 -74q40 -40 31 -119q-18 -139 -60 -193.5t-115 -110.5q-382 -291 -723 -266q-521 38 -366 634q43 166 139 289q28 34 52 14q24 -22 -6 -66q-119 -181 -112 -319q16 -294 366.5 -296t685.5 277q-88 48 -380 48q-28 0 -34.5 23t-0.5 36z
M1063 1173q115 -646 110 -731.5t-15 -126.5q-31 -129 -125 -166q-68 -25 -158 -34l-29 -2l-4 28q-5 44 11 83t39.5 53t78 36.5t72.5 30.5q-29 215 -80 486.5t-64 354.5l-25 113q-8 34 0 55q26 74 34 102t44.5 29.5t52.5 -37.5q34 -84 89 -134q40 -38 4 -86z" />
    <glyph glyph-name="uniFC44" unicode="&#xfc44;" horiz-adv-x="1472" arabic-form="isolated" 
d="M788 -612q12 17 35 10q84 -30 150 -88q17 -17 6 -37l-98 -155q-16 -21 -35.5 -5.5t-108.5 69.5l-69 -110q-16 -21 -37 -4.5t-148 92.5q-21 13 -7 34l99 148q12 17 35 10q62 -22 114 -59zM904 295q139 14 272 -2t196 -74q40 -40 31 -119q-18 -139 -60 -193.5t-115 -110.5
q-382 -291 -723 -266q-521 38 -366 634q43 166 139 289q28 34 52 14q24 -22 -6 -66q-119 -181 -112 -319q16 -294 366.5 -296t685.5 277q-88 48 -380 48q-28 0 -34.5 23t-0.5 36zM1063 1173q115 -646 110 -731.5t-15 -126.5q-31 -129 -125 -166q-68 -25 -158 -34l-29 -2
l-4 28q-5 44 11 83t39.5 53t78 36.5t72.5 30.5q-29 215 -80 486.5t-64 354.5l-25 113q-8 34 0 55q26 74 34 102t44.5 29.5t52.5 -37.5q34 -84 89 -134q40 -38 4 -86z" />
    <glyph glyph-name="uniFC45" unicode="&#xfc45;" horiz-adv-x="1360" arabic-form="isolated" 
d="M771 -232q12 17 35 10q84 -30 150 -88q17 -17 6 -37l-98 -155q-16 -21 -37 -4.5t-148 92.5q-21 13 -7 34zM403 508q566 -28 813 6q62 4 51 -40l-34 -132q-9 -37 -53 -43q-461 -55 -725 -304q-172 -163 -178 -343q-10 -318 267.5 -413.5t969.5 -57.5q41 2 42 -30
q2 -26 -17 -35q-243 -104 -380 -145.5t-251 -39.5q-431 12 -597 178t-144 438q39 481 361 729l-381 3q-104 1 -42 91l88 130q11 17 210 8zM891 687q-374 -80 -577 -262q-64 -59 -113 -10q-52 57 57 161q170 160 435 260l-17 25q-28 43 -8 86q56 121 98.5 167.5t89.5 21.5
q158 -84 225 -152q34 -35 14 -93t-106 -164q-19 -24 -98 -40z" />
    <glyph glyph-name="uniFC46" unicode="&#xfc46;" horiz-adv-x="1360" arabic-form="isolated" 
d="M403 508q566 -28 813 6q62 4 51 -40l-34 -132q-9 -37 -53 -43q-461 -55 -725 -304q-172 -163 -178 -343q-10 -318 267.5 -413.5t969.5 -57.5q41 2 42 -30q2 -26 -17 -35q-243 -104 -380 -145.5t-251 -39.5q-431 12 -597 178t-144 438q39 481 361 729l-381 3
q-104 1 -42 91l88 130q11 17 210 8zM891 687q-374 -80 -577 -262q-64 -59 -113 -10q-52 57 57 161q170 160 435 260l-17 25q-28 43 -8 86q56 121 98.5 167.5t89.5 21.5q158 -84 225 -152q34 -35 14 -93t-106 -164q-19 -24 -98 -40z" />
    <glyph glyph-name="uniFC47" unicode="&#xfc47;" horiz-adv-x="1360" arabic-form="isolated" 
d="M281 1238q12 17 35 10q84 -30 150 -88q17 -17 6 -37l-98 -155q-16 -21 -37 -4.5t-148 92.5q-21 13 -7 34zM403 508q566 -28 813 6q62 4 51 -40l-34 -132q-9 -37 -53 -43q-461 -55 -725 -304q-172 -163 -178 -343q-10 -318 267.5 -413.5t969.5 -57.5q41 2 42 -30
q2 -26 -17 -35q-243 -104 -380 -145.5t-251 -39.5q-431 12 -597 178t-144 438q39 481 361 729l-381 3q-104 1 -42 91l88 130q11 17 210 8zM891 687q-374 -80 -577 -262q-64 -59 -113 -10q-52 57 57 161q170 160 435 260l-17 25q-28 43 -8 86q56 121 98.5 167.5t89.5 21.5
q158 -84 225 -152q34 -35 14 -93t-106 -164q-19 -24 -98 -40z" />
    <glyph glyph-name="uniFC48" unicode="&#xfc48;" horiz-adv-x="1867" arabic-form="isolated" 
d="M558 436q177 -209 512 -221q100 -4 79.5 -124t-79.5 -121q-180 -2 -325 67q-1 -195 -89 -266q-41 -32 -80 2q-119 107 -147 311q-113 -16 -200 -106q-10 -42 20 -244q111 -738 84 -860q-18 -78 -60 -78q-44 1 -46 91q-4 143 -76 577t4 624t301 291q44 126 102 57z
M1400 451q73 -71 184 -95q3 88 -58.5 117t-125.5 -22zM1547 682q152 -2 210 -377q5 -34 -13 -57l-101 -131q-27 -35 -72 -25q-163 40 -272 147q-85 -266 -229 -269q-40 -1 -58.5 58.5t-19.5 109t43 69.5q16 7 34 8q111 5 186 114q23 33 122 210q80 144 170 143z" />
    <glyph glyph-name="uniFC49" unicode="&#xfc49;" horiz-adv-x="1766" arabic-form="isolated" 
d="M904 295q139 14 272 -2t196 -74q40 -40 31 -119q-18 -139 -60 -193.5t-115 -110.5q-382 -291 -723 -266q-521 38 -366 634q43 166 139 289q28 34 52 14q24 -22 -6 -66q-119 -181 -112 -319q16 -294 366.5 -296t685.5 277q-88 48 -380 48q-28 0 -34.5 23t-0.5 36z
M1216 554l-14 10q-43 33 -20 90q50 127 99 190q30 36 79 28q104 -18 193 -87q120 -93 113 -172q-13 -125 -75 -173q-25 -19 -71.5 -25.5t-50.5 -7.5q-225 -30 -368 -136.5t-193 -30.5q-8 13 -13 38q34 71 56 93q117 111 265 183z" />
    <glyph glyph-name="uniFC4A" unicode="&#xfc4a;" horiz-adv-x="1766" arabic-form="isolated" 
d="M788 -612q12 17 35 10q84 -30 150 -88q17 -17 6 -37l-98 -155q-16 -21 -35.5 -5.5t-108.5 69.5l-69 -110q-16 -21 -37 -4.5t-148 92.5q-21 13 -7 34l99 148q12 17 35 10q62 -22 114 -59zM904 295q139 14 272 -2t196 -74q40 -40 31 -119q-18 -139 -60 -193.5t-115 -110.5
q-382 -291 -723 -266q-521 38 -366 634q43 166 139 289q28 34 52 14q24 -22 -6 -66q-119 -181 -112 -319q16 -294 366.5 -296t685.5 277q-88 48 -380 48q-28 0 -34.5 23t-0.5 36zM1216 554l-14 10q-43 33 -20 90q50 127 99 190q30 36 79 28q104 -18 193 -87
q120 -93 113 -172q-13 -125 -75 -173q-25 -19 -71.5 -25.5t-50.5 -7.5q-225 -30 -368 -136.5t-193 -30.5q-8 13 -13 38q34 71 56 93q117 111 265 183z" />
    <glyph glyph-name="uniFC4B" unicode="&#xfc4b;" horiz-adv-x="1327" arabic-form="isolated" 
d="M771 -232q12 17 35 10q84 -30 150 -88q17 -17 6 -37l-98 -155q-16 -21 -37 -4.5t-148 92.5q-21 13 -7 34zM403 508q566 -28 813 6q62 4 51 -40l-34 -132q-9 -37 -53 -43q-461 -55 -725 -304q-172 -163 -178 -343q-10 -318 267.5 -413.5t969.5 -57.5q41 2 42 -30
q2 -26 -17 -35q-243 -104 -380 -145.5t-251 -39.5q-431 12 -597 178t-144 438q39 481 361 729l-381 3q-104 1 -42 91l88 130q11 17 210 8zM836 1555q12 17 35 10q84 -30 150 -88q17 -17 6 -37l-98 -155q-16 -21 -37 -4.5t-148 92.5q-21 13 -7 34zM158 462q48 59 154 118
q234 133 309 208.5t112 172.5t72.5 161t97 64t105.5 -69q60 -95 49 -385q-1 -37 -30 -51q-11 -5 -23 -4q-45 1 -54 54q-18 163 -61 195q-15 9 -29.5 -12t-51.5 -95q-101 -205 -373 -358q-9 -5 -83 -49q-98 -57 -188 7l-27 18z" />
    <glyph glyph-name="uniFC4C" unicode="&#xfc4c;" horiz-adv-x="1327" arabic-form="isolated" 
d="M403 508q566 -28 813 6q62 4 51 -40l-34 -132q-9 -37 -53 -43q-461 -55 -725 -304q-172 -163 -178 -343q-10 -318 267.5 -413.5t969.5 -57.5q41 2 42 -30q2 -26 -17 -35q-243 -104 -380 -145.5t-251 -39.5q-431 12 -597 178t-144 438q39 481 361 729l-381 3
q-104 1 -42 91l88 130q11 17 210 8zM836 1555q12 17 35 10q84 -30 150 -88q17 -17 6 -37l-98 -155q-16 -21 -37 -4.5t-148 92.5q-21 13 -7 34zM158 462q48 59 154 118q234 133 309 208.5t112 172.5t72.5 161t97 64t105.5 -69q60 -95 49 -385q-1 -37 -30 -51q-11 -5 -23 -4
q-45 1 -54 54q-18 163 -61 195q-15 9 -29.5 -12t-51.5 -95q-101 -205 -373 -358q-9 -5 -83 -49q-98 -57 -188 7l-27 18z" />
    <glyph glyph-name="uniFC4D" unicode="&#xfc4d;" horiz-adv-x="1327" arabic-form="isolated" 
d="M281 1238q12 17 35 10q84 -30 150 -88q17 -17 6 -37l-98 -155q-16 -21 -37 -4.5t-148 92.5q-21 13 -7 34zM403 508q566 -28 813 6q62 4 51 -40l-34 -132q-9 -37 -53 -43q-461 -55 -725 -304q-172 -163 -178 -343q-10 -318 267.5 -413.5t969.5 -57.5q41 2 42 -30
q2 -26 -17 -35q-243 -104 -380 -145.5t-251 -39.5q-431 12 -597 178t-144 438q39 481 361 729l-381 3q-104 1 -42 91l88 130q11 17 210 8zM836 1555q12 17 35 10q84 -30 150 -88q17 -17 6 -37l-98 -155q-16 -21 -37 -4.5t-148 92.5q-21 13 -7 34zM158 462q48 59 154 118
q234 133 309 208.5t112 172.5t72.5 161t97 64t105.5 -69q60 -95 49 -385q-1 -37 -30 -51q-11 -5 -23 -4q-45 1 -54 54q-18 163 -61 195q-15 9 -29.5 -12t-51.5 -95q-101 -205 -373 -358q-9 -5 -83 -49q-98 -57 -188 7l-27 18z" />
    <glyph glyph-name="uniFC4E" unicode="&#xfc4e;" horiz-adv-x="1217" arabic-form="isolated" 
d="M242 199q-46 21 -27 75q42 119 57.5 137t21.5 23q34 27 122 -2q186 -60 329 -167q53 -40 30 -108q-32 -93 -36 -104q-24 -59 -72 -55q-203 26 -377 -17q-111 -27 -143 -61q2 -31 50.5 -319t51.5 -340q8 -142 -30 -291q-11 -42 -44 -36.5t-26.5 99t-90.5 585.5
q-32 164 8 304.5t82.5 192t93.5 84.5zM816 1259q12 17 35 10q84 -30 150 -88q17 -17 6 -37l-98 -155q-16 -21 -37 -4.5t-148 92.5q-21 13 -7 34zM1124 577q-13 -45 -59.5 -105t-68.5 -67q-57 -17 -76 46q-12 45 -69 51q-125 11 -405 -151q-110 -63 -159 18q-22 40 1 64
q37 38 165 119q308 197 483 195q82 -1 145.5 -49t42.5 -121z" />
    <glyph glyph-name="uniFC4F" unicode="&#xfc4f;" horiz-adv-x="1504" arabic-form="isolated" 
d="M904 295q139 14 272 -2t196 -74q40 -40 31 -119q-18 -139 -60 -193.5t-115 -110.5q-382 -291 -723 -266q-521 38 -366 634q43 166 139 289q28 34 52 14q24 -22 -6 -66q-119 -181 -112 -319q16 -294 366.5 -296t685.5 277q-88 48 -380 48q-28 0 -34.5 23t-0.5 36z
M1052 1428q12 17 35 10q84 -30 150 -88q17 -17 6 -37l-98 -155q-16 -21 -37 -4.5t-148 92.5q-21 13 -7 34zM1082 968q22 64 72 35q49 -30 101 -141q116 -249 47 -457q-30 -88 -86 -150q-128 -144 -338 -152q-13 0 -23 4q-35 16 -14 59l59 120q17 17 39 20q164 22 265 127
q2 92 -46.5 172.5t-109.5 127.5q-34 30 -18 78z" />
    <glyph glyph-name="uniFC50" unicode="&#xfc50;" horiz-adv-x="1504" arabic-form="isolated" 
d="M788 -612q12 17 35 10q84 -30 150 -88q17 -17 6 -37l-98 -155q-16 -21 -35.5 -5.5t-108.5 69.5l-69 -110q-16 -21 -37 -4.5t-148 92.5q-21 13 -7 34l99 148q12 17 35 10q62 -22 114 -59zM904 295q139 14 272 -2t196 -74q40 -40 31 -119q-18 -139 -60 -193.5t-115 -110.5
q-382 -291 -723 -266q-521 38 -366 634q43 166 139 289q28 34 52 14q24 -22 -6 -66q-119 -181 -112 -319q16 -294 366.5 -296t685.5 277q-88 48 -380 48q-28 0 -34.5 23t-0.5 36zM1052 1428q12 17 35 10q84 -30 150 -88q17 -17 6 -37l-98 -155q-16 -21 -37 -4.5t-148 92.5
q-21 13 -7 34zM1082 968q22 64 72 35q49 -30 101 -141q116 -249 47 -457q-30 -88 -86 -150q-128 -144 -338 -152q-13 0 -23 4q-35 16 -14 59l59 120q17 17 39 20q164 22 265 127q2 92 -46.5 172.5t-109.5 127.5q-34 30 -18 78z" />
    <glyph glyph-name="uniFC51" unicode="&#xfc51;" horiz-adv-x="1427" arabic-form="isolated" 
d="M771 -232q12 17 35 10q84 -30 150 -88q17 -17 6 -37l-98 -155q-16 -21 -37 -4.5t-148 92.5q-21 13 -7 34zM403 508q566 -28 813 6q62 4 51 -40l-34 -132q-9 -37 -53 -43q-461 -55 -725 -304q-172 -163 -178 -343q-10 -318 267.5 -413.5t969.5 -57.5q41 2 42 -30
q2 -26 -17 -35q-243 -104 -380 -145.5t-251 -39.5q-431 12 -597 178t-144 438q39 481 361 729l-381 3q-104 1 -42 91l88 130q11 17 210 8zM1121 628q-165 24 -325 80q-67 -36 -297.5 -146.5t-259.5 -118.5t-43 4q-24 22 13.5 87.5t87 91.5t168.5 80.5t184 86.5
q-43 50 -26 121q36 156 98 255q-13 2 -36 4q-42 25 -32 61q36 113 69 137.5t72 24.5q76 0 261 -174t201 -280q24 -180 -32 -267q-36 -57 -103 -47zM915 947q-20 83 -86 97.5t-119 -44.5q2 -23 47.5 -46.5t103.5 -35.5q54 17 54 29zM977 1018q0 -64 -36 -129q123 -42 223 -56
q-29 67 -187 185z" />
    <glyph glyph-name="uniFC52" unicode="&#xfc52;" horiz-adv-x="1996" arabic-form="isolated" 
d="M558 436q177 -209 512 -221q100 -4 79.5 -124t-79.5 -121q-180 -2 -325 67q-1 -195 -89 -266q-41 -32 -80 2q-119 107 -147 311q-113 -16 -200 -106q-10 -42 20 -244q111 -738 84 -860q-18 -78 -60 -78q-44 1 -46 91q-4 143 -76 577t4 624t301 291q44 126 102 57z
M1563 475q7 -77 -74 -150q188 -72 293 -74q19 0 10 24q-30 93 -229 200zM1402 360q68 34 68 45q-10 118 -64 128q-82 17 -143 -61q-20 -25 15 -48q56 -38 124 -64zM1348 161q-173 -190 -278 -191q-40 0 -60 48q-72 182 60 198q86 10 126 32q-61 48 -28.5 148t120.5 199
q-12 6 -36 9t-31 25.5t-4 37.5q53 203 156.5 202.5t301 -188.5t218.5 -306q25 -152 -71 -262q-56 -65 -133 -57q-153 17 -341 105z" />
    <glyph glyph-name="uniFC53" unicode="&#xfc53;" horiz-adv-x="1957" arabic-form="isolated" 
d="M904 295q139 14 272 -2t196 -74q40 -40 31 -119q-18 -139 -60 -193.5t-115 -110.5q-382 -291 -723 -266q-521 38 -366 634q43 166 139 289q28 34 52 14q24 -22 -6 -66q-119 -181 -112 -319q16 -294 366.5 -296t685.5 277q-88 48 -380 48q-28 0 -34.5 23t-0.5 36z
M1177 903q53 203 156.5 202.5t292.5 -188.5t210 -306q25 -148 -71 -262q-49 -59 -116 -53q-168 16 -314 71q-220 -198 -412 -244q-47 -11 -59 32q-3 9 0 67q3 92 63 114q140 51 229 121q-51 56 -24.5 157t130.5 211q-12 6 -43 12t-38 29t-4 37zM1210 667q22 -42 159 -74
q29 9 44 38q-8 79 -60 96q-82 11 -143 -60zM1506 682q-9 -58 -44 -118q177 -60 243 -52q-21 60 -199 170z" />
    <glyph glyph-name="uniFC54" unicode="&#xfc54;" horiz-adv-x="1957" arabic-form="isolated" 
d="M788 -612q12 17 35 10q84 -30 150 -88q17 -17 6 -37l-98 -155q-16 -21 -35.5 -5.5t-108.5 69.5l-69 -110q-16 -21 -37 -4.5t-148 92.5q-21 13 -7 34l99 148q12 17 35 10q62 -22 114 -59zM904 295q139 14 272 -2t196 -74q40 -40 31 -119q-18 -139 -60 -193.5t-115 -110.5
q-382 -291 -723 -266q-521 38 -366 634q43 166 139 289q28 34 52 14q24 -22 -6 -66q-119 -181 -112 -319q16 -294 366.5 -296t685.5 277q-88 48 -380 48q-28 0 -34.5 23t-0.5 36zM1177 903q53 203 156.5 202.5t292.5 -188.5t210 -306q25 -148 -71 -262q-49 -59 -116 -53
q-168 16 -314 71q-220 -198 -412 -244q-47 -11 -59 32q-3 9 0 67q3 92 63 114q140 51 229 121q-51 56 -24.5 157t130.5 211q-12 6 -43 12t-38 29t-4 37zM1210 667q22 -42 159 -74q29 9 44 38q-8 79 -60 96q-82 11 -143 -60zM1506 682q-9 -58 -44 -118q177 -60 243 -52
q-21 60 -199 170z" />
    <glyph glyph-name="uniFC55" unicode="&#xfc55;" horiz-adv-x="1327" arabic-form="isolated" 
d="M771 -232q12 17 35 10q84 -30 150 -88q17 -17 6 -37l-98 -155q-16 -21 -37 -4.5t-148 92.5q-21 13 -7 34zM403 508q566 -28 813 6q62 4 51 -40l-34 -132q-9 -37 -53 -43q-461 -55 -725 -304q-172 -163 -178 -343q-10 -318 267.5 -413.5t969.5 -57.5q41 2 42 -30
q2 -26 -17 -35q-243 -104 -380 -145.5t-251 -39.5q-431 12 -597 178t-144 438q39 481 361 729l-381 3q-104 1 -42 91l88 130q11 17 210 8zM1098 144q12 17 35 10q84 -30 150 -88q17 -17 6 -37l-98 -155q-16 -21 -35.5 -5.5t-108.5 69.5l-69 -110q-16 -21 -37 -4.5t-148 92.5
q-21 13 -7 34l99 148q12 17 35 10q62 -22 114 -59zM158 462q48 59 154 118q234 133 309 208.5t112 172.5t72.5 161t97 64t105.5 -69q60 -95 49 -385q-1 -37 -30 -51q-11 -5 -23 -4q-45 1 -54 54q-18 163 -61 195q-15 9 -29.5 -12t-51.5 -95q-101 -205 -373 -358
q-9 -5 -83 -49q-98 -57 -188 7l-27 18z" />
    <glyph glyph-name="uniFC56" unicode="&#xfc56;" horiz-adv-x="1327" arabic-form="isolated" 
d="M403 508q566 -28 813 6q62 4 51 -40l-34 -132q-9 -37 -53 -43q-461 -55 -725 -304q-172 -163 -178 -343q-10 -318 267.5 -413.5t969.5 -57.5q41 2 42 -30q2 -26 -17 -35q-243 -104 -380 -145.5t-251 -39.5q-431 12 -597 178t-144 438q39 481 361 729l-381 3
q-104 1 -42 91l88 130q11 17 210 8zM1098 144q12 17 35 10q84 -30 150 -88q17 -17 6 -37l-98 -155q-16 -21 -35.5 -5.5t-108.5 69.5l-69 -110q-16 -21 -37 -4.5t-148 92.5q-21 13 -7 34l99 148q12 17 35 10q62 -22 114 -59zM158 462q48 59 154 118q234 133 309 208.5
t112 172.5t72.5 161t97 64t105.5 -69q60 -95 49 -385q-1 -37 -30 -51q-11 -5 -23 -4q-45 1 -54 54q-18 163 -61 195q-15 9 -29.5 -12t-51.5 -95q-101 -205 -373 -358q-9 -5 -83 -49q-98 -57 -188 7l-27 18z" />
    <glyph glyph-name="uniFC57" unicode="&#xfc57;" horiz-adv-x="1327" arabic-form="isolated" 
d="M281 1238q12 17 35 10q84 -30 150 -88q17 -17 6 -37l-98 -155q-16 -21 -37 -4.5t-148 92.5q-21 13 -7 34zM403 508q566 -28 813 6q62 4 51 -40l-34 -132q-9 -37 -53 -43q-461 -55 -725 -304q-172 -163 -178 -343q-10 -318 267.5 -413.5t969.5 -57.5q41 2 42 -30
q2 -26 -17 -35q-243 -104 -380 -145.5t-251 -39.5q-431 12 -597 178t-144 438q39 481 361 729l-381 3q-104 1 -42 91l88 130q11 17 210 8zM1098 144q12 17 35 10q84 -30 150 -88q17 -17 6 -37l-98 -155q-16 -21 -35.5 -5.5t-108.5 69.5l-69 -110q-16 -21 -37 -4.5t-148 92.5
q-21 13 -7 34l99 148q12 17 35 10q62 -22 114 -59zM158 462q48 59 154 118q234 133 309 208.5t112 172.5t72.5 161t97 64t105.5 -69q60 -95 49 -385q-1 -37 -30 -51q-11 -5 -23 -4q-45 1 -54 54q-18 163 -61 195q-15 9 -29.5 -12t-51.5 -95q-101 -205 -373 -358
q-9 -5 -83 -49q-98 -57 -188 7l-27 18z" />
    <glyph glyph-name="uniFC58" unicode="&#xfc58;" horiz-adv-x="1217" arabic-form="isolated" 
d="M242 199q-46 21 -27 75q42 119 57.5 137t21.5 23q34 27 122 -2q186 -60 329 -167q53 -40 30 -108q-32 -93 -36 -104q-24 -59 -72 -55q-203 26 -377 -17q-111 -27 -143 -61q2 -31 50.5 -319t51.5 -340q8 -142 -30 -291q-11 -42 -44 -36.5t-26.5 99t-90.5 585.5
q-32 164 8 304.5t82.5 192t93.5 84.5zM1079 -120q12 17 35 10q84 -30 150 -88q17 -17 6 -37l-98 -155q-16 -21 -35.5 -5.5t-108.5 69.5l-69 -110q-16 -21 -37 -4.5t-148 92.5q-21 13 -7 34l99 148q12 17 35 10q62 -22 114 -59zM1124 577q-13 -45 -59.5 -105t-68.5 -67
q-57 -17 -76 46q-12 45 -69 51q-125 11 -405 -151q-110 -63 -159 18q-22 40 1 64q37 38 165 119q308 197 483 195q82 -1 145.5 -49t42.5 -121z" />
    <glyph glyph-name="uniFC59" unicode="&#xfc59;" horiz-adv-x="1504" arabic-form="isolated" 
d="M904 295q139 14 272 -2t196 -74q40 -40 31 -119q-18 -139 -60 -193.5t-115 -110.5q-382 -291 -723 -266q-521 38 -366 634q43 166 139 289q28 34 52 14q24 -22 -6 -66q-119 -181 -112 -319q16 -294 366.5 -296t685.5 277q-88 48 -380 48q-28 0 -34.5 23t-0.5 36z
M1378 -313q12 17 35 10q84 -30 150 -88q17 -17 6 -37l-98 -155q-16 -21 -35.5 -5.5t-108.5 69.5l-69 -110q-16 -21 -37 -4.5t-148 92.5q-21 13 -7 34l99 148q12 17 35 10q62 -22 114 -59zM1082 968q22 64 72 35q49 -30 101 -141q116 -249 47 -457q-30 -88 -86 -150
q-128 -144 -338 -152q-13 0 -23 4q-35 16 -14 59l59 120q17 17 39 20q164 22 265 127q2 92 -46.5 172.5t-109.5 127.5q-34 30 -18 78z" />
    <glyph glyph-name="uniFC5A" unicode="&#xfc5a;" horiz-adv-x="1504" arabic-form="isolated" 
d="M788 -612q12 17 35 10q84 -30 150 -88q17 -17 6 -37l-98 -155q-16 -21 -35.5 -5.5t-108.5 69.5l-69 -110q-16 -21 -37 -4.5t-148 92.5q-21 13 -7 34l99 148q12 17 35 10q62 -22 114 -59zM904 295q139 14 272 -2t196 -74q40 -40 31 -119q-18 -139 -60 -193.5t-115 -110.5
q-382 -291 -723 -266q-521 38 -366 634q43 166 139 289q28 34 52 14q24 -22 -6 -66q-119 -181 -112 -319q16 -294 366.5 -296t685.5 277q-88 48 -380 48q-28 0 -34.5 23t-0.5 36zM1378 -313q12 17 35 10q84 -30 150 -88q17 -17 6 -37l-98 -155q-16 -21 -35.5 -5.5
t-108.5 69.5l-69 -110q-16 -21 -37 -4.5t-148 92.5q-21 13 -7 34l99 148q12 17 35 10q62 -22 114 -59zM1082 968q22 64 72 35q49 -30 101 -141q116 -249 47 -457q-30 -88 -86 -150q-128 -144 -338 -152q-13 0 -23 4q-35 16 -14 59l59 120q17 17 39 20q164 22 265 127
q2 92 -46.5 172.5t-109.5 127.5q-34 30 -18 78z" />
    <glyph glyph-name="uniFC5B" unicode="&#xfc5b;" horiz-adv-x="923" arabic-form="isolated" 
d="M252 2383q21 55 63 4q199 -222 137 -561q-7 -30 -27 -32q-40 -6 -44 32q-27 209 -156 367q-21 27 -12 59zM374 1328q12 17 35 10q84 -30 150 -88q17 -17 6 -37l-98 -155q-16 -21 -37 -4.5t-148 92.5q-21 13 -7 34zM368 584q-42 18 -16 89t52 119.5t65 26.5
q254 -150 308 -424q29 -146 -10 -258q-23 -67 -61 -83q-214 -86 -369 -96q-225 -15 -161 245q12 50 39 50q20 1 35 -24.5t185.5 -3.5t266.5 68q-30 156 -334 291z" />
    <glyph glyph-name="uniFC5C" unicode="&#xfc5c;" horiz-adv-x="819" arabic-form="isolated" 
d="M232 2383q21 55 63 4q199 -222 137 -561q-7 -30 -27 -32q-40 -6 -44 32q-27 209 -156 367q-21 27 -12 59zM485 604q14 55 80 -23.5t110 -231.5q95 -344 -123 -628q-126 -164 -310 -212q-69 -18 -116 3q-181 78 -281 128q-35 17 -23.5 41.5t45.5 14.5q134 -41 221 -20.5
t226 104.5q240 145 293 284q2 6 2 11q-19 96 -175 258q-15 16 -9 40z" />
    <glyph glyph-name="uniFC5D" unicode="&#xfc5d;" horiz-adv-x="1566" arabic-form="isolated" 
d="M432 1093q21 55 63 4q199 -222 137 -561q-7 -30 -27 -32q-40 -6 -44 32q-27 209 -156 367q-21 27 -12 59zM1361 564q-103 54 -283 -40q-146 -77 -177 -187q-4 -15 3 -32q36 -80 258.5 -91.5t235.5 -111.5q27 -197 -83 -285q-303 -243 -686 -258q-476 -19 -508 358
q-16 190 83 392q53 109 122 196q33 42 53.5 19t-12.5 -71q-180 -266 -114 -434q83 -212 394 -207q370 7 600 183q-48 17 -201 27q-199 14 -236.5 120t3.5 223q89 253 279 391q161 116 279.5 84.5t67.5 -224.5q-22 -80 -78 -52z" />
    <glyph glyph-name="uniFC5E" unicode="&#xfc5e;" horiz-adv-x="600" arabic-form="isolated" 
d="M499 2431q-12 22 -41.5 8.5t-21.5 -23.5q16 -19 64 -45q11 38 -1 60zM323 2386q25 5 26 -25q0 -9 -3 -17l-16 -48q-15 -45 -57 -30.5t-60 64.5t-2 120t92 152q175 192 259 152q33 -18 36.5 -66.5t-27.5 -82t-69.5 2t-98.5 -8t-89 -89.5q-52 -81 -20 -113q15 -13 29 -11z
M506 2555q38 9 57 -18q41 -60 -7 -179q21 -13 30 -18q23 -16 8 -46l-20 -41q-16 -29 -75 4q-90 -113 -163 -154q-46 -23 -63.5 2t45 69.5t120.5 118.5q-94 54 -55 139q48 102 123 123zM600 2015q8 56 44 54q37 -2 40 -45q0 -6 -1 -11q-7 -112 -42 -188q-43 -93 -124 -100
q-48 -3 -90 40q-30 -43 -72 -66q-57 -29 -112 -8q-130 54 -34 305q18 45 56 33q3 -1 5 -1q32 -15 20 -61q-6 -23 -9 -41q-8 -65 29 -72q52 -7 89 96q10 27 19 60q11 43 44 39q2 0 3 -1q33 -8 31 -37q0 -4 -1 -8v1q-3 -19 -3 -34q-1 -52 33 -57q4 0 8 -1q49 -1 63 79
q3 11 4 24z" />
    <glyph glyph-name="uniFC5F" unicode="&#xfc5f;" horiz-adv-x="600" arabic-form="isolated" 
d="M681 -932q38 26 60 19t8 -53l-21 -64q-13 -37 -40 -54l-358 -220q-23 -13 -44 -9t-15 43l6 39q7 35 41 58zM673 -727q33 21 55 15t12 -49l-15 -52q-12 -40 -50 -62l-362 -211q-40 -23 -62 -14q-21 9 -3 53l18 39q14 33 38 48zM600 2015q8 56 44 54q37 -2 40 -45
q0 -6 -1 -11q-7 -112 -42 -188q-43 -93 -124 -100q-48 -3 -90 40q-30 -43 -72 -66q-57 -29 -112 -8q-130 54 -34 305q18 45 56 33q3 -1 5 -1q32 -15 20 -61q-6 -23 -9 -41q-8 -65 29 -72q52 -7 89 96q10 27 19 60q11 43 44 39q2 0 3 -1q33 -8 31 -37q0 -4 -1 -8v1
q-3 -19 -3 -34q-1 -52 33 -57q4 0 8 -1q49 -1 63 79q3 11 4 24z" />
    <glyph glyph-name="uniFC60" unicode="&#xfc60;" horiz-adv-x="600" arabic-form="isolated" 
d="M253 2208l369 164q17 6 27 6q22 -4 19 -32l-9 -71q-5 -25 -24 -35h-1l-360 -126q-18 -6 -30 -5q-27 5 -23 38l4 28q4 23 28 33zM600 2015q8 56 44 54q37 -2 40 -45q0 -6 -1 -11q-7 -112 -42 -188q-43 -93 -124 -100q-48 -3 -90 40q-30 -43 -72 -66q-57 -29 -112 -8
q-130 54 -34 305q18 45 56 33q3 -1 5 -1q32 -15 20 -61q-6 -23 -9 -41q-8 -65 29 -72q52 -7 89 96q10 27 19 60q11 43 44 39q2 0 3 -1q33 -8 31 -37q0 -4 -1 -8v1q-3 -19 -3 -34q-1 -52 33 -57q4 0 8 -1q49 -1 63 79q3 11 4 24z" />
    <glyph glyph-name="uniFC61" unicode="&#xfc61;" horiz-adv-x="600" arabic-form="isolated" 
d="M495 2635q39 10 64 -23q20 -29 22 -78q1 -48 -37 -141q30 -18 44 -26q23 -14 8 -46l-25 -51q-16 -30 -89 11q-113 -145 -206 -196q-50 -26 -68 -2q-16 27 42 69q94 68 171 166q-120 65 -74 167q58 124 148 150zM475 2483q-12 18 -39 6q-17 -8 -23 -14q18 -20 66 -47
q7 35 -4 55zM600 2015q8 56 44 54q37 -2 40 -45q0 -6 -1 -11q-7 -112 -42 -188q-43 -93 -124 -100q-48 -3 -90 40q-30 -43 -72 -66q-57 -29 -112 -8q-130 54 -34 305q18 45 56 33q3 -1 5 -1q32 -15 20 -61q-6 -23 -9 -41q-8 -65 29 -72q52 -7 89 96q10 27 19 60q11 43 44 39
q2 0 3 -1q33 -8 31 -37q0 -4 -1 -8v1q-3 -19 -3 -34q-1 -52 33 -57q4 0 8 -1q49 -1 63 79q3 11 4 24z" />
    <glyph glyph-name="uniFC62" unicode="&#xfc62;" horiz-adv-x="600" arabic-form="isolated" 
d="M716 -635q29 17 50 10.5t9 -48.5l-20 -67q-10 -31 -50 -57l-400 -230q-16 -8 -27 -9q-29 4 -31 41l1 35q3 31 42 59zM600 2015q8 56 44 54q37 -2 40 -45q0 -6 -1 -11q-7 -112 -42 -188q-43 -93 -124 -100q-48 -3 -90 40q-30 -43 -72 -66q-57 -29 -112 -8q-130 54 -34 305
q18 45 56 33q3 -1 5 -1q32 -15 20 -61q-6 -23 -9 -41q-8 -65 29 -72q52 -7 89 96q10 27 19 60q11 43 44 39q2 0 3 -1q33 -8 31 -37q0 -4 -1 -8v1q-3 -19 -3 -34q-1 -52 33 -57q4 0 8 -1q49 -1 63 79q3 11 4 24z" />
    <glyph glyph-name="uniFC63" unicode="&#xfc63;" horiz-adv-x="600" arabic-form="isolated" 
d="M237 2661q21 55 63 4q199 -222 137 -561q-7 -30 -27 -32q-40 -6 -44 32q-27 209 -156 367q-21 27 -12 59zM600 2015q8 56 44 54q37 -2 40 -45q0 -6 -1 -11q-7 -112 -42 -188q-43 -93 -124 -100q-48 -3 -90 40q-30 -43 -72 -66q-57 -29 -112 -8q-130 54 -34 305
q18 45 56 33q3 -1 5 -1q32 -15 20 -61q-6 -23 -9 -41q-8 -65 29 -72q52 -7 89 96q10 27 19 60q11 43 44 39q2 0 3 -1q33 -8 31 -37q0 -4 -1 -8v1q-3 -19 -3 -34q-1 -52 33 -57q4 0 8 -1q49 -1 63 79q3 11 4 24z" />
    <glyph glyph-name="uniFC64" unicode="&#xfc64;" horiz-adv-x="1128" arabic-form="final" 
d="M-164 -314q-32 23 -22.5 49.5t50.5 17.5q196 -41 330 10q268 102 379 305q-3 36 -108 182q-14 19 -8 39l59 208q34 120 106 -30q94 -208 42 -444q-30 -138 -156 -292.5t-253 -168.5q-214 -24 -419 124zM1032 1019q-110 -22 -156 -36.5t-171 -69.5q-38 -14 -57 13
q-29 46 63 109q-61 38 -71 84q-16 90 73.5 213t194.5 115q77 -6 69.5 -80.5t-29.5 -105t-32 -37.5q-30 -20 -51 10.5t-53.5 33.5t-48 -15t0.5 -34q65 -60 189 -64q20 0 61.5 10t63 9t33.5 -20q11 -20 4 -37q-43 -89 -83 -98zM983.5 613.5q6.5 -43.5 21 -173.5t45 -172.5
t88.5 -54t70 -63.5q6 -24 -7 -78q-24 -102 -73 -102q-228 0 -228 390q-80 -160 -252 -158q-109 1 -129 104q-15 85 17 120q48 55 92 24q13 -9 20 -11q116 -9 163 28t86 156q14 45 47 39.5t39.5 -49z" />
    <glyph glyph-name="uniFC65" unicode="&#xfc65;" horiz-adv-x="1128" arabic-form="final" 
d="M308 1067q12 17 35 10q84 -30 150 -88q17 -17 6 -37l-98 -155q-16 -21 -37 -4.5t-148 92.5q-21 13 -7 34zM-164 -314q-32 23 -22.5 49.5t50.5 17.5q196 -41 330 10q268 102 379 305q-3 36 -108 182q-14 19 -8 39l59 208q34 120 106 -30q94 -208 42 -444
q-30 -138 -156 -292.5t-253 -168.5q-214 -24 -419 124zM1032 1019q-110 -22 -156 -36.5t-171 -69.5q-38 -14 -57 13q-29 46 63 109q-61 38 -71 84q-16 90 73.5 213t194.5 115q77 -6 69.5 -80.5t-29.5 -105t-32 -37.5q-30 -20 -51 10.5t-53.5 33.5t-48 -15t0.5 -34
q65 -60 189 -64q20 0 61.5 10t63 9t33.5 -20q11 -20 4 -37q-43 -89 -83 -98zM983.5 613.5q6.5 -43.5 21 -173.5t45 -172.5t88.5 -54t70 -63.5q6 -24 -7 -78q-24 -102 -73 -102q-228 0 -228 390q-80 -160 -252 -158q-109 1 -129 104q-15 85 17 120q48 55 92 24q13 -9 20 -11
q116 -9 163 28t86 156q14 45 47 39.5t39.5 -49z" />
    <glyph glyph-name="uniFC66" unicode="&#xfc66;" horiz-adv-x="1149" arabic-form="final" 
d="M356 -51q-46 21 -27 75q42 119 57.5 137t21.5 23q34 27 122 -2q186 -60 329 -167q53 -40 30 -108q-32 -93 -36 -104q-24 -59 -72 -55q-203 26 -377 -17q-111 -27 -143 -61q2 -31 50.5 -319t51.5 -340q8 -142 -30 -291q-11 -42 -44 -36.5t-26.5 99t-90.5 585.5
q-32 164 8 304.5t82.5 192t93.5 84.5zM978 819q-110 -22 -156 -36.5t-171 -69.5q-38 -14 -57 13q-29 46 63 109q-61 38 -71 84q-16 90 73.5 213t194.5 115q77 -6 69.5 -80.5t-29.5 -105t-32 -37.5q-30 -20 -51 10.5t-53.5 33.5t-48 -15t0.5 -34q65 -60 189 -64q20 0 61.5 10
t63 9t33.5 -20q11 -20 4 -37q-43 -89 -83 -98zM898 416q85 -1 189 -143q40 -53 67 -58q95 -18 96 -92q1 -54 -26.5 -103t-74.5 -50q-119 1 -209 146q-55 89 -196.5 72t-245.5 -98q-52 -41 -83 -7q-49 51 -24.5 83.5t103.5 84.5q259 167 404 165z" />
    <glyph glyph-name="uniFC67" unicode="&#xfc67;" horiz-adv-x="1559" arabic-form="final" 
d="M590 982q12 17 35 10q84 -30 150 -88q17 -17 6 -37l-98 -155q-16 -21 -37 -4.5t-148 92.5q-21 13 -7 34zM1169 271q8 -137 -10 -216t-32 -119q-54 -150 -198 -263.5t-384 -114.5q-363 -1 -430.5 237t129.5 568q21 35 45.5 18.5t2.5 -57.5q-140 -262 -85 -369
q78 -149 345 -146q169 2 324.5 80t188.5 142q25 92 -87 319q-9 18 -1 47l34 129q17 65 54 34q93 -80 104 -289zM1435 903q-110 -22 -156 -36.5t-171 -69.5q-38 -14 -57 13q-29 46 63 109q-61 38 -71 84q-16 90 73.5 213t194.5 115q77 -6 69.5 -80.5t-29.5 -105t-32 -37.5
q-30 -20 -51 10.5t-53.5 33.5t-48 -15t0.5 -34q65 -60 189 -64q20 0 61.5 10t63 9t33.5 -20q11 -20 4 -37q-43 -89 -83 -98zM1555 -30q-106 16 -147.5 90.5t-75.5 282.5q-67 -83 -166 -97q-76 -9 -108 64q-22 54 -12.5 103.5t53.5 60.5q17 4 36 0q133 -24 203 131
q22 47 63.5 43t47.5 -58q25 -261 51 -315t64 -60q82 -14 66 -133q-12 -89 -43 -106q-15 -8 -32 -6z" />
    <glyph glyph-name="uniFC68" unicode="&#xfc68;" horiz-adv-x="1494" arabic-form="final" 
d="M884 -223q-178 66 -24 283q2 4 20 36q18 33 41 24q31 -12 11 -56q-20 -42 45 -75t207.5 -53t197 -39.5t78.5 -77t16 -118t-37 -104.5q-56 -78 -259.5 -178t-462.5 -129q-469 -52 -582 271q-37 105 -6 281q32 180 157 381q23 37 56 18.5t-6 -81.5q-134 -221 -101 -359
q67 -289 450 -264q299 19 630 177q-45 8 -177 18q-166 13 -254 45zM1218 819q-110 -22 -156 -36.5t-171 -69.5q-38 -14 -57 13q-29 46 63 109q-61 38 -71 84q-16 90 73.5 213t194.5 115q77 -6 69.5 -80.5t-29.5 -105t-32 -37.5q-30 -20 -51 10.5t-53.5 33.5t-48 -15t0.5 -34
q65 -60 189 -64q20 0 61.5 10t63 9t33.5 -20q11 -20 4 -37q-43 -89 -83 -98zM1369 311q50 -83 120 -95q102 -18 81 -105t-21 -89q-20 -54 -56 -52q-146 9 -234 136q-51 74 -94 76.5t-135 -50t-102 -79.5q-39 -128 -80 -184q-18 -15 -32 -18q-23 -4 -27 38q-7 83 74 217
q79 132 189 221.5t181 91t136 -107.5z" />
    <glyph glyph-name="uniFC69" unicode="&#xfc69;" horiz-adv-x="1494" arabic-form="final" 
d="M813 -864q12 17 35 10q84 -30 150 -88q17 -17 6 -37l-98 -155q-16 -21 -35.5 -5.5t-108.5 69.5l-69 -110q-16 -21 -37 -4.5t-148 92.5q-21 13 -7 34l99 148q12 17 35 10q62 -22 114 -59zM884 -223q-178 66 -24 283q2 4 20 36q18 33 41 24q31 -12 11 -56q-20 -42 45 -75
t207.5 -53t197 -39.5t78.5 -77t16 -118t-37 -104.5q-56 -78 -259.5 -178t-462.5 -129q-469 -52 -582 271q-37 105 -6 281q32 180 157 381q23 37 56 18.5t-6 -81.5q-134 -221 -101 -359q67 -289 450 -264q299 19 630 177q-45 8 -177 18q-166 13 -254 45zM1218 819
q-110 -22 -156 -36.5t-171 -69.5q-38 -14 -57 13q-29 46 63 109q-61 38 -71 84q-16 90 73.5 213t194.5 115q77 -6 69.5 -80.5t-29.5 -105t-32 -37.5q-30 -20 -51 10.5t-53.5 33.5t-48 -15t0.5 -34q65 -60 189 -64q20 0 61.5 10t63 9t33.5 -20q11 -20 4 -37q-43 -89 -83 -98z
M1369 311q50 -83 120 -95q102 -18 81 -105t-21 -89q-20 -54 -56 -52q-146 9 -234 136q-51 74 -94 76.5t-135 -50t-102 -79.5q-39 -128 -80 -184q-18 -15 -32 -18q-23 -4 -27 38q-7 83 74 217q79 132 189 221.5t181 91t136 -107.5z" />
    <glyph glyph-name="uniFC6A" unicode="&#xfc6a;" horiz-adv-x="1128" arabic-form="final" 
d="M-164 -314q-32 23 -22.5 49.5t50.5 17.5q196 -41 330 10q268 102 379 305q-3 36 -108 182q-14 19 -8 39l59 208q34 120 106 -30q94 -208 42 -444q-30 -138 -156 -292.5t-253 -168.5q-214 -24 -419 124zM822 -252q12 17 35 10q84 -30 150 -88q17 -17 6 -37l-98 -155
q-16 -21 -37 -4.5t-148 92.5q-21 13 -7 34zM983.5 613.5q6.5 -43.5 21 -173.5t45 -172.5t88.5 -54t70 -63.5q6 -24 -7 -78q-24 -102 -73 -102q-228 0 -228 390q-80 -160 -252 -158q-109 1 -129 104q-15 85 17 120q48 55 92 24q13 -9 20 -11q116 -9 163 28t86 156
q14 45 47 39.5t39.5 -49z" />
    <glyph glyph-name="uniFC6B" unicode="&#xfc6b;" horiz-adv-x="1128" arabic-form="final" 
d="M308 1067q12 17 35 10q84 -30 150 -88q17 -17 6 -37l-98 -155q-16 -21 -37 -4.5t-148 92.5q-21 13 -7 34zM-164 -314q-32 23 -22.5 49.5t50.5 17.5q196 -41 330 10q268 102 379 305q-3 36 -108 182q-14 19 -8 39l59 208q34 120 106 -30q94 -208 42 -444
q-30 -138 -156 -292.5t-253 -168.5q-214 -24 -419 124zM822 -252q12 17 35 10q84 -30 150 -88q17 -17 6 -37l-98 -155q-16 -21 -37 -4.5t-148 92.5q-21 13 -7 34zM983.5 613.5q6.5 -43.5 21 -173.5t45 -172.5t88.5 -54t70 -63.5q6 -24 -7 -78q-24 -102 -73 -102
q-228 0 -228 390q-80 -160 -252 -158q-109 1 -129 104q-15 85 17 120q48 55 92 24q13 -9 20 -11q116 -9 163 28t86 156q14 45 47 39.5t39.5 -49z" />
    <glyph glyph-name="uniFC6C" unicode="&#xfc6c;" horiz-adv-x="1149" arabic-form="final" 
d="M356 -51q-46 21 -27 75q42 119 57.5 137t21.5 23q34 27 122 -2q186 -60 329 -167q53 -40 30 -108q-32 -93 -36 -104q-24 -59 -72 -55q-203 26 -377 -17q-111 -27 -143 -61q2 -31 50.5 -319t51.5 -340q8 -142 -30 -291q-11 -42 -44 -36.5t-26.5 99t-90.5 585.5
q-32 164 8 304.5t82.5 192t93.5 84.5zM858 -452q12 17 35 10q84 -30 150 -88q17 -17 6 -37l-98 -155q-16 -21 -37 -4.5t-148 92.5q-21 13 -7 34zM898 416q85 -1 189 -143q40 -53 67 -58q95 -18 96 -92q1 -54 -26.5 -103t-74.5 -50q-119 1 -209 146q-55 89 -196.5 72
t-245.5 -98q-52 -41 -83 -7q-49 51 -24.5 83.5t103.5 84.5q259 167 404 165z" />
    <glyph glyph-name="uniFC6D" unicode="&#xfc6d;" horiz-adv-x="1559" arabic-form="final" 
d="M590 982q12 17 35 10q84 -30 150 -88q17 -17 6 -37l-98 -155q-16 -21 -37 -4.5t-148 92.5q-21 13 -7 34zM1169 271q8 -137 -10 -216t-32 -119q-54 -150 -198 -263.5t-384 -114.5q-363 -1 -430.5 237t129.5 568q21 35 45.5 18.5t2.5 -57.5q-140 -262 -85 -369
q78 -149 345 -146q169 2 324.5 80t188.5 142q25 92 -87 319q-9 18 -1 47l34 129q17 65 54 34q93 -80 104 -289zM1225 -252q12 17 35 10q84 -30 150 -88q17 -17 6 -37l-98 -155q-16 -21 -37 -4.5t-148 92.5q-21 13 -7 34zM1555 -30q-106 16 -147.5 90.5t-75.5 282.5
q-67 -83 -166 -97q-76 -9 -108 64q-22 54 -12.5 103.5t53.5 60.5q17 4 36 0q133 -24 203 131q22 47 63.5 43t47.5 -58q25 -261 51 -315t64 -60q82 -14 66 -133q-12 -89 -43 -106q-15 -8 -32 -6z" />
    <glyph glyph-name="uniFC6E" unicode="&#xfc6e;" horiz-adv-x="1494" arabic-form="final" 
d="M884 -223q-178 66 -24 283q2 4 20 36q18 33 41 24q31 -12 11 -56q-20 -42 45 -75t207.5 -53t197 -39.5t78.5 -77t16 -118t-37 -104.5q-56 -78 -259.5 -178t-462.5 -129q-469 -52 -582 271q-37 105 -6 281q32 180 157 381q23 37 56 18.5t-6 -81.5q-134 -221 -101 -359
q67 -289 450 -264q299 19 630 177q-45 8 -177 18q-166 13 -254 45zM1218 -672q12 17 35 10q84 -30 150 -88q17 -17 6 -37l-98 -155q-16 -21 -37 -4.5t-148 92.5q-21 13 -7 34zM1369 311q50 -83 120 -95q102 -18 81 -105t-21 -89q-20 -54 -56 -52q-146 9 -234 136
q-51 74 -94 76.5t-135 -50t-102 -79.5q-39 -128 -80 -184q-18 -15 -32 -18q-23 -4 -27 38q-7 83 74 217q79 132 189 221.5t181 91t136 -107.5z" />
    <glyph glyph-name="uniFC6F" unicode="&#xfc6f;" horiz-adv-x="1494" arabic-form="final" 
d="M813 -864q12 17 35 10q84 -30 150 -88q17 -17 6 -37l-98 -155q-16 -21 -35.5 -5.5t-108.5 69.5l-69 -110q-16 -21 -37 -4.5t-148 92.5q-21 13 -7 34l99 148q12 17 35 10q62 -22 114 -59zM884 -223q-178 66 -24 283q2 4 20 36q18 33 41 24q31 -12 11 -56q-20 -42 45 -75
t207.5 -53t197 -39.5t78.5 -77t16 -118t-37 -104.5q-56 -78 -259.5 -178t-462.5 -129q-469 -52 -582 271q-37 105 -6 281q32 180 157 381q23 37 56 18.5t-6 -81.5q-134 -221 -101 -359q67 -289 450 -264q299 19 630 177q-45 8 -177 18q-166 13 -254 45zM1218 -672
q12 17 35 10q84 -30 150 -88q17 -17 6 -37l-98 -155q-16 -21 -37 -4.5t-148 92.5q-21 13 -7 34zM1369 311q50 -83 120 -95q102 -18 81 -105t-21 -89q-20 -54 -56 -52q-146 9 -234 136q-51 74 -94 76.5t-135 -50t-102 -79.5q-39 -128 -80 -184q-18 -15 -32 -18q-23 -4 -27 38
q-7 83 74 217q79 132 189 221.5t181 91t136 -107.5z" />
    <glyph glyph-name="uniFC70" unicode="&#xfc70;" horiz-adv-x="1128" arabic-form="final" 
d="M-164 -314q-32 23 -22.5 49.5t50.5 17.5q196 -41 330 10q268 102 379 305q-3 36 -108 182q-14 19 -8 39l59 208q34 120 106 -30q94 -208 42 -444q-30 -138 -156 -292.5t-253 -168.5q-214 -24 -419 124zM945 1174q12 17 35 10q84 -30 150 -88q17 -17 6 -37l-98 -155
q-16 -21 -35.5 -5.5t-108.5 69.5l-69 -110q-16 -21 -37 -4.5t-148 92.5q-21 13 -7 34l99 148q12 17 35 10q62 -22 114 -59zM983.5 613.5q6.5 -43.5 21 -173.5t45 -172.5t88.5 -54t70 -63.5q6 -24 -7 -78q-24 -102 -73 -102q-228 0 -228 390q-80 -160 -252 -158
q-109 1 -129 104q-15 85 17 120q48 55 92 24q13 -9 20 -11q116 -9 163 28t86 156q14 45 47 39.5t39.5 -49z" />
    <glyph glyph-name="uniFC71" unicode="&#xfc71;" horiz-adv-x="1128" arabic-form="final" 
d="M308 1067q12 17 35 10q84 -30 150 -88q17 -17 6 -37l-98 -155q-16 -21 -37 -4.5t-148 92.5q-21 13 -7 34zM-164 -314q-32 23 -22.5 49.5t50.5 17.5q196 -41 330 10q268 102 379 305q-3 36 -108 182q-14 19 -8 39l59 208q34 120 106 -30q94 -208 42 -444
q-30 -138 -156 -292.5t-253 -168.5q-214 -24 -419 124zM945 1174q12 17 35 10q84 -30 150 -88q17 -17 6 -37l-98 -155q-16 -21 -35.5 -5.5t-108.5 69.5l-69 -110q-16 -21 -37 -4.5t-148 92.5q-21 13 -7 34l99 148q12 17 35 10q62 -22 114 -59zM983.5 613.5
q6.5 -43.5 21 -173.5t45 -172.5t88.5 -54t70 -63.5q6 -24 -7 -78q-24 -102 -73 -102q-228 0 -228 390q-80 -160 -252 -158q-109 1 -129 104q-15 85 17 120q48 55 92 24q13 -9 20 -11q116 -9 163 28t86 156q14 45 47 39.5t39.5 -49z" />
    <glyph glyph-name="uniFC72" unicode="&#xfc72;" horiz-adv-x="1149" arabic-form="final" 
d="M356 -51q-46 21 -27 75q42 119 57.5 137t21.5 23q34 27 122 -2q186 -60 329 -167q53 -40 30 -108q-32 -93 -36 -104q-24 -59 -72 -55q-203 26 -377 -17q-111 -27 -143 -61q2 -31 50.5 -319t51.5 -340q8 -142 -30 -291q-11 -42 -44 -36.5t-26.5 99t-90.5 585.5
q-32 164 8 304.5t82.5 192t93.5 84.5zM880 974q12 17 35 10q84 -30 150 -88q17 -17 6 -37l-98 -155q-16 -21 -35.5 -5.5t-108.5 69.5l-69 -110q-16 -21 -37 -4.5t-148 92.5q-21 13 -7 34l99 148q12 17 35 10q62 -22 114 -59zM898 416q85 -1 189 -143q40 -53 67 -58
q95 -18 96 -92q1 -54 -26.5 -103t-74.5 -50q-119 1 -209 146q-55 89 -196.5 72t-245.5 -98q-52 -41 -83 -7q-49 51 -24.5 83.5t103.5 84.5q259 167 404 165z" />
    <glyph glyph-name="uniFC73" unicode="&#xfc73;" horiz-adv-x="1559" arabic-form="final" 
d="M590 982q12 17 35 10q84 -30 150 -88q17 -17 6 -37l-98 -155q-16 -21 -37 -4.5t-148 92.5q-21 13 -7 34zM1169 271q8 -137 -10 -216t-32 -119q-54 -150 -198 -263.5t-384 -114.5q-363 -1 -430.5 237t129.5 568q21 35 45.5 18.5t2.5 -57.5q-140 -262 -85 -369
q78 -149 345 -146q169 2 324.5 80t188.5 142q25 92 -87 319q-9 18 -1 47l34 129q17 65 54 34q93 -80 104 -289zM1337 1058q12 17 35 10q84 -30 150 -88q17 -17 6 -37l-98 -155q-16 -21 -35.5 -5.5t-108.5 69.5l-69 -110q-16 -21 -37 -4.5t-148 92.5q-21 13 -7 34l99 148
q12 17 35 10q62 -22 114 -59zM1555 -30q-106 16 -147.5 90.5t-75.5 282.5q-67 -83 -166 -97q-76 -9 -108 64q-22 54 -12.5 103.5t53.5 60.5q17 4 36 0q133 -24 203 131q22 47 63.5 43t47.5 -58q25 -261 51 -315t64 -60q82 -14 66 -133q-12 -89 -43 -106q-15 -8 -32 -6z" />
    <glyph glyph-name="uniFC74" unicode="&#xfc74;" horiz-adv-x="1494" arabic-form="final" 
d="M884 -223q-178 66 -24 283q2 4 20 36q18 33 41 24q31 -12 11 -56q-20 -42 45 -75t207.5 -53t197 -39.5t78.5 -77t16 -118t-37 -104.5q-56 -78 -259.5 -178t-462.5 -129q-469 -52 -582 271q-37 105 -6 281q32 180 157 381q23 37 56 18.5t-6 -81.5q-134 -221 -101 -359
q67 -289 450 -264q299 19 630 177q-45 8 -177 18q-166 13 -254 45zM1131 974q12 17 35 10q84 -30 150 -88q17 -17 6 -37l-98 -155q-16 -21 -35.5 -5.5t-108.5 69.5l-69 -110q-16 -21 -37 -4.5t-148 92.5q-21 13 -7 34l99 148q12 17 35 10q62 -22 114 -59zM1369 311
q50 -83 120 -95q102 -18 81 -105t-21 -89q-20 -54 -56 -52q-146 9 -234 136q-51 74 -94 76.5t-135 -50t-102 -79.5q-39 -128 -80 -184q-18 -15 -32 -18q-23 -4 -27 38q-7 83 74 217q79 132 189 221.5t181 91t136 -107.5z" />
    <glyph glyph-name="uniFC75" unicode="&#xfc75;" horiz-adv-x="1494" arabic-form="final" 
d="M813 -864q12 17 35 10q84 -30 150 -88q17 -17 6 -37l-98 -155q-16 -21 -35.5 -5.5t-108.5 69.5l-69 -110q-16 -21 -37 -4.5t-148 92.5q-21 13 -7 34l99 148q12 17 35 10q62 -22 114 -59zM884 -223q-178 66 -24 283q2 4 20 36q18 33 41 24q31 -12 11 -56q-20 -42 45 -75
t207.5 -53t197 -39.5t78.5 -77t16 -118t-37 -104.5q-56 -78 -259.5 -178t-462.5 -129q-469 -52 -582 271q-37 105 -6 281q32 180 157 381q23 37 56 18.5t-6 -81.5q-134 -221 -101 -359q67 -289 450 -264q299 19 630 177q-45 8 -177 18q-166 13 -254 45zM1131 974
q12 17 35 10q84 -30 150 -88q17 -17 6 -37l-98 -155q-16 -21 -35.5 -5.5t-108.5 69.5l-69 -110q-16 -21 -37 -4.5t-148 92.5q-21 13 -7 34l99 148q12 17 35 10q62 -22 114 -59zM1369 311q50 -83 120 -95q102 -18 81 -105t-21 -89q-20 -54 -56 -52q-146 9 -234 136
q-51 74 -94 76.5t-135 -50t-102 -79.5q-39 -128 -80 -184q-18 -15 -32 -18q-23 -4 -27 38q-7 83 74 217q79 132 189 221.5t181 91t136 -107.5z" />
    <glyph glyph-name="uniFC76" unicode="&#xfc76;" horiz-adv-x="1128" arabic-form="final" 
d="M-164 -314q-32 23 -22.5 49.5t50.5 17.5q196 -41 330 10q268 102 379 305q-3 36 -108 182q-14 19 -8 39l59 208q34 120 106 -30q94 -208 42 -444q-30 -138 -156 -292.5t-253 -168.5q-214 -24 -419 124zM792 1403q12 17 35 10q84 -30 150 -88q17 -17 6 -37l-98 -155
q-16 -21 -37 -4.5t-148 92.5q-21 13 -7 33zM937 1174q12 17 35 10q84 -30 150 -88q17 -17 6 -37l-98 -155q-15 -22 -34.5 -6.5t-94.5 61.5l-64 -102q-16 -21 -37 -4.5t-148 92.5q-21 13 -7 34l99 148q24 34 135 -39zM983.5 613.5q6.5 -43.5 21 -173.5t45 -172.5t88.5 -54
t70 -63.5q6 -24 -7 -78q-24 -102 -73 -102q-228 0 -228 390q-80 -160 -252 -158q-109 1 -129 104q-15 85 17 120q48 55 92 24q13 -9 20 -11q116 -9 163 28t86 156q14 45 47 39.5t39.5 -49z" />
    <glyph glyph-name="uniFC77" unicode="&#xfc77;" horiz-adv-x="1128" arabic-form="final" 
d="M308 1067q12 17 35 10q84 -30 150 -88q17 -17 6 -37l-98 -155q-16 -21 -37 -4.5t-148 92.5q-21 13 -7 34zM-164 -314q-32 23 -22.5 49.5t50.5 17.5q196 -41 330 10q268 102 379 305q-3 36 -108 182q-14 19 -8 39l59 208q34 120 106 -30q94 -208 42 -444
q-30 -138 -156 -292.5t-253 -168.5q-214 -24 -419 124zM792 1403q12 17 35 10q84 -30 150 -88q17 -17 6 -37l-98 -155q-16 -21 -37 -4.5t-148 92.5q-21 13 -7 33zM937 1174q12 17 35 10q84 -30 150 -88q17 -17 6 -37l-98 -155q-15 -22 -34.5 -6.5t-94.5 61.5l-64 -102
q-16 -21 -37 -4.5t-148 92.5q-21 13 -7 34l99 148q24 34 135 -39zM983.5 613.5q6.5 -43.5 21 -173.5t45 -172.5t88.5 -54t70 -63.5q6 -24 -7 -78q-24 -102 -73 -102q-228 0 -228 390q-80 -160 -252 -158q-109 1 -129 104q-15 85 17 120q48 55 92 24q13 -9 20 -11
q116 -9 163 28t86 156q14 45 47 39.5t39.5 -49z" />
    <glyph glyph-name="uniFC78" unicode="&#xfc78;" horiz-adv-x="1149" arabic-form="final" 
d="M356 -51q-46 21 -27 75q42 119 57.5 137t21.5 23q34 27 122 -2q186 -60 329 -167q53 -40 30 -108q-32 -93 -36 -104q-24 -59 -72 -55q-203 26 -377 -17q-111 -27 -143 -61q2 -31 50.5 -319t51.5 -340q8 -142 -30 -291q-11 -42 -44 -36.5t-26.5 99t-90.5 585.5
q-32 164 8 304.5t82.5 192t93.5 84.5zM727 1203q12 17 35 10q84 -30 150 -88q17 -17 6 -37l-98 -155q-16 -21 -37 -4.5t-148 92.5q-21 13 -7 33zM872 974q12 17 35 10q84 -30 150 -88q17 -17 6 -37l-98 -155q-15 -22 -34.5 -6.5t-94.5 61.5l-64 -102q-16 -21 -37 -4.5
t-148 92.5q-21 13 -7 34l99 148q24 34 135 -39zM898 416q85 -1 189 -143q40 -53 67 -58q95 -18 96 -92q1 -54 -26.5 -103t-74.5 -50q-119 1 -209 146q-55 89 -196.5 72t-245.5 -98q-52 -41 -83 -7q-49 51 -24.5 83.5t103.5 84.5q259 167 404 165z" />
    <glyph glyph-name="uniFC79" unicode="&#xfc79;" horiz-adv-x="1559" arabic-form="final" 
d="M590 982q12 17 35 10q84 -30 150 -88q17 -17 6 -37l-98 -155q-16 -21 -37 -4.5t-148 92.5q-21 13 -7 34zM1169 271q8 -137 -10 -216t-32 -119q-54 -150 -198 -263.5t-384 -114.5q-363 -1 -430.5 237t129.5 568q21 35 45.5 18.5t2.5 -57.5q-140 -262 -85 -369
q78 -149 345 -146q169 2 324.5 80t188.5 142q25 92 -87 319q-9 18 -1 47l34 129q17 65 54 34q93 -80 104 -289zM1184 1287q12 17 35 10q84 -30 150 -88q17 -17 6 -37l-98 -155q-16 -21 -37 -4.5t-148 92.5q-21 13 -7 33zM1329 1058q12 17 35 10q84 -30 150 -88q17 -17 6 -37
l-98 -155q-15 -22 -34.5 -6.5t-94.5 61.5l-64 -102q-16 -21 -37 -4.5t-148 92.5q-21 13 -7 34l99 148q24 34 135 -39zM1555 -30q-106 16 -147.5 90.5t-75.5 282.5q-67 -83 -166 -97q-76 -9 -108 64q-22 54 -12.5 103.5t53.5 60.5q17 4 36 0q133 -24 203 131q22 47 63.5 43
t47.5 -58q25 -261 51 -315t64 -60q82 -14 66 -133q-12 -89 -43 -106q-15 -8 -32 -6z" />
    <glyph glyph-name="uniFC7A" unicode="&#xfc7a;" horiz-adv-x="1494" arabic-form="final" 
d="M884 -223q-178 66 -24 283q2 4 20 36q18 33 41 24q31 -12 11 -56q-20 -42 45 -75t207.5 -53t197 -39.5t78.5 -77t16 -118t-37 -104.5q-56 -78 -259.5 -178t-462.5 -129q-469 -52 -582 271q-37 105 -6 281q32 180 157 381q23 37 56 18.5t-6 -81.5q-134 -221 -101 -359
q67 -289 450 -264q299 19 630 177q-45 8 -177 18q-166 13 -254 45zM978 1203q12 17 35 10q84 -30 150 -88q17 -17 6 -37l-98 -155q-16 -21 -37 -4.5t-148 92.5q-21 13 -7 33zM1123 974q12 17 35 10q84 -30 150 -88q17 -17 6 -37l-98 -155q-15 -22 -34.5 -6.5t-94.5 61.5
l-64 -102q-16 -21 -37 -4.5t-148 92.5q-21 13 -7 34l99 148q24 34 135 -39zM1369 311q50 -83 120 -95q102 -18 81 -105t-21 -89q-20 -54 -56 -52q-146 9 -234 136q-51 74 -94 76.5t-135 -50t-102 -79.5q-39 -128 -80 -184q-18 -15 -32 -18q-23 -4 -27 38q-7 83 74 217
q79 132 189 221.5t181 91t136 -107.5z" />
    </font>
</defs>
</svg>
